<svg width="24" height="22" viewBox="0 0 24 22" fill="none" xmlns="http://www.w3.org/2000/svg">
<path d="M10.8483 14.5454C10.5033 14.7539 10.1468 14.9586 9.76848 15.1633C3.71182 11.7942 0.766666 8.59337 0.766666 5.37835C0.766666 2.74945 2.62085 0.766855 5.07917 0.766855C6.78875 0.753742 8.40741 1.53559 9.4599 2.88285C9.53155 2.98589 9.64911 3.04733 9.77461 3.04733C9.90012 3.04733 10.0177 2.98589 10.0893 2.88285C11.1422 1.53566 12.7611 0.753855 14.4708 0.766855C15.8881 0.754195 17.2135 1.46713 17.9841 2.65669C18.0583 2.77357 18.1898 2.84133 18.3281 2.83395C18.4664 2.82657 18.5899 2.7452 18.6513 2.62107C18.7127 2.49695 18.7023 2.34938 18.6242 2.23502C17.7133 0.828576 16.1465 -0.0144812 14.4708 0.000188352C12.6849 -0.00678984 10.9792 0.741621 9.775 2.0606C8.57082 0.741621 6.86514 -0.00678984 5.07917 0.000188352C2.231 0.000188352 0 2.36267 0 5.37835C0 8.89659 3.07395 12.3167 9.40776 15.8391C9.52194 15.8984 9.64866 15.9294 9.7773 15.9296C9.90863 15.9297 10.0378 15.8966 10.153 15.8334C10.529 15.6241 10.8936 15.4148 11.2462 15.2017C11.4275 15.0918 11.4853 14.8558 11.3754 14.6746C11.2655 14.4933 11.0296 14.4355 10.8483 14.5454V14.5454Z" fill="black"/>
<path d="M1.5332 5.37852C1.5332 5.59023 1.70483 5.76186 1.91654 5.76186C2.12825 5.76186 2.29987 5.59023 2.29987 5.37852C2.29987 3.88621 3.27392 2.30036 5.07903 2.30036C5.29074 2.30036 5.46237 2.12873 5.46237 1.91702C5.46237 1.70532 5.29074 1.53369 5.07903 1.53369C2.77597 1.53369 1.5332 3.51437 1.5332 5.37852Z" fill="black"/>
<path d="M16.8671 3.4502C13.8545 3.44869 11.2871 5.63611 10.8103 8.61074C10.3334 11.5854 12.0883 14.4657 14.9504 15.406V16.8669C14.9521 17.4122 15.2443 17.9153 15.7171 18.1871V20.3169C15.7171 20.952 16.232 21.4669 16.8671 21.4669C17.5022 21.4669 18.0171 20.952 18.0171 20.3169V18.1871C18.4899 17.9153 18.782 17.4122 18.7837 16.8669V15.406C21.6459 14.4657 23.4008 11.5854 22.9239 8.61074C22.447 5.63611 19.8797 3.44869 16.8671 3.4502V3.4502ZM17.2504 20.3169C17.2504 20.5286 17.0788 20.7002 16.8671 20.7002C16.6554 20.7002 16.4837 20.5286 16.4837 20.3169V18.4002H17.2504V20.3169ZM18.0171 16.8669C18.0171 17.2903 17.6738 17.6335 17.2504 17.6335H16.4837C16.0603 17.6335 15.7171 17.2903 15.7171 16.8669V15.6049C16.4765 15.7542 17.2577 15.7542 18.0171 15.6049V16.8669ZM17.2504 14.9306V14.1835C17.2504 13.9718 17.0788 13.8002 16.8671 13.8002C16.6554 13.8002 16.4837 13.9718 16.4837 14.1835V14.9306C13.8264 14.7376 11.713 12.6242 11.52 9.96686H12.2671C12.4788 9.96686 12.6504 9.79524 12.6504 9.58353C12.6504 9.37182 12.4788 9.2002 12.2671 9.2002H11.52C11.713 6.54283 13.8264 4.42943 16.4837 4.23641V4.98353C16.4837 5.19524 16.6554 5.36686 16.8671 5.36686C17.0788 5.36686 17.2504 5.19524 17.2504 4.98353V4.23641C19.9078 4.42943 22.0212 6.54283 22.2142 9.2002H21.4671C21.2554 9.2002 21.0837 9.37182 21.0837 9.58353C21.0837 9.79524 21.2554 9.96686 21.4671 9.96686H22.2142C22.0212 12.6242 19.9078 14.7376 17.2504 14.9306Z" fill="black"/>
<path d="M19.662 6.24579L17.6403 8.26749C17.4066 8.12658 17.1392 8.05148 16.8663 8.05014C16.0195 8.05014 15.333 8.73664 15.333 9.58347C15.333 10.4303 16.0195 11.1168 16.8663 11.1168C17.7132 11.1168 18.3997 10.4303 18.3997 9.58347C18.3983 9.31061 18.3232 9.04319 18.1823 8.80952L20.204 6.78782C20.3493 6.63741 20.3472 6.39832 20.1994 6.25046C20.0515 6.10259 19.8124 6.10052 19.662 6.24579V6.24579ZM16.8663 10.3501C16.5193 10.3504 16.2154 10.1175 16.1254 9.78239C16.0353 9.44726 16.1816 9.09344 16.4821 8.91975C16.7825 8.74606 17.1621 8.79582 17.4076 9.04106C17.627 9.26018 17.6928 9.58988 17.5743 9.87641C17.4558 10.163 17.1764 10.3499 16.8663 10.3501V10.3501Z" fill="black"/>
</svg>
