<svg width="22" height="16" viewBox="0 0 22 16" fill="none" xmlns="http://www.w3.org/2000/svg">
<path fill-rule="evenodd" clip-rule="evenodd" d="M15.1583 4.23285C15.1583 6.58254 13.2851 8.4666 10.949 8.4666C8.61292 8.4666 6.73974 6.58254 6.73974 4.23285C6.73974 1.88227 8.61292 0 10.949 0C13.2851 0 15.1583 1.88227 15.1583 4.23285ZM10.9491 16.0004C7.51789 16.0004 4.58813 15.4565 4.58813 13.2806C4.58813 11.1038 7.49909 10.54 10.9491 10.54C14.3803 10.54 17.31 11.084 17.31 13.2608C17.31 15.4366 14.3991 16.0004 10.9491 16.0004ZM16.9571 4.30922C16.9571 5.50703 16.5998 6.62288 15.973 7.55051C15.9086 7.64597 15.9659 7.77476 16.0796 7.79457C16.2363 7.82159 16.3984 7.8369 16.5631 7.8414C18.2062 7.88463 19.6809 6.82102 20.0883 5.21974C20.6918 2.84123 18.9198 0.705896 16.6634 0.705896C16.4181 0.705896 16.1835 0.732013 15.9551 0.778845C15.9238 0.78605 15.8907 0.800459 15.8728 0.828378C15.8513 0.862601 15.8674 0.908532 15.8889 0.938252C16.5667 1.8938 16.9571 3.05918 16.9571 4.30922ZM19.6782 9.51257C20.7823 9.72962 21.5084 10.1727 21.8093 10.8166C22.0636 11.3453 22.0636 11.9586 21.8093 12.4864C21.349 13.4851 19.8654 13.8058 19.2887 13.8886C19.1696 13.9066 19.0738 13.8031 19.0864 13.6833C19.3809 10.9157 17.0377 9.60353 16.4315 9.30183C16.4055 9.28832 16.4002 9.2676 16.4028 9.255C16.4046 9.24599 16.4154 9.23158 16.4351 9.22888C17.7468 9.20456 19.1571 9.38468 19.6782 9.51257ZM5.43719 7.84156C5.60194 7.83706 5.76312 7.82265 5.92071 7.79473C6.03442 7.77492 6.09173 7.64613 6.02726 7.55067C5.40048 6.62304 5.04321 5.50719 5.04321 4.30938C5.04321 3.05934 5.43361 1.89395 6.11143 0.938411C6.13292 0.908691 6.14814 0.86276 6.12755 0.828537C6.10964 0.801519 6.07561 0.786209 6.04517 0.779004C5.81595 0.732172 5.58135 0.706055 5.33601 0.706055C3.07959 0.706055 1.30759 2.84139 1.91199 5.2199C2.3194 6.82117 3.79413 7.88479 5.43719 7.84156ZM5.59694 9.25401C5.59962 9.26752 5.59425 9.28733 5.56918 9.30174C4.9621 9.60344 2.61883 10.9156 2.91342 13.6823C2.92595 13.803 2.83104 13.9056 2.71195 13.8885C2.13531 13.8057 0.651629 13.4851 0.191392 12.4863C-0.0637974 11.9576 -0.0637974 11.3452 0.191392 10.8166C0.492248 10.1726 1.21752 9.72953 2.32156 9.51158C2.84358 9.38459 4.25294 9.20447 5.5656 9.22879C5.5853 9.23149 5.59515 9.2459 5.59694 9.25401Z" fill="black"/>
</svg>
