<svg width="40" height="40" viewBox="0 0 40 40" fill="none" xmlns="http://www.w3.org/2000/svg">
<path d="M40 20C40 31.0457 31.0457 40 20 40C8.9543 40 0 31.0457 0 20C0 8.9543 8.9543 0 20 0C31.0457 0 40 8.9543 40 20Z" fill="#FFAEE0"/>
<path d="M35.0781 17.7734C35.0781 23.2316 30.6534 27.6562 25.1953 27.6562C19.7372 27.6562 15.3125 23.2316 15.3125 17.7734C15.3125 12.3153 19.7372 7.89062 25.1953 7.89062C30.6534 7.89062 35.0781 12.3153 35.0781 17.7734Z" fill="#FFA2C1"/>
<path d="M32.5225 7.47715C29.1775 4.13223 24.7303 2.29004 19.9998 2.29004C15.2693 2.29004 10.8221 4.13223 7.47715 7.47715C4.13223 10.8221 2.29004 15.2693 2.29004 19.9998C2.29004 24.7303 4.13223 29.1775 7.47715 32.5225C10.8221 35.8674 15.2693 37.7096 19.9998 37.7096C24.7303 37.7096 29.1775 35.8675 32.5225 32.5225C35.8674 29.1775 37.7096 24.7303 37.7096 19.9998C37.7096 15.2693 35.8674 10.8221 32.5225 7.47715ZM19.9998 36.9283C10.6654 36.9283 3.07129 29.3342 3.07129 19.9998C3.07129 10.6654 10.6654 3.07129 19.9998 3.07129C29.3342 3.07129 36.9283 10.6654 36.9283 19.9998C36.9283 29.3342 29.3342 36.9283 19.9998 36.9283Z" fill="#C83C50"/>
<path d="M21.483 21.1598C21.483 25.1141 21.2702 28.9272 20.8756 32.5114C20.7958 33.2366 20.2241 33.8095 19.4989 33.8895C19.4802 33.8916 19.4616 33.8936 19.4429 33.8957C16.5126 34.2166 13.5544 34.2166 10.6241 33.8957C10.6055 33.8937 10.5867 33.8916 10.568 33.8895C9.84086 33.8095 9.27047 33.2312 9.19047 32.5039C8.79641 28.9219 8.58398 25.1114 8.58398 21.1598C8.58398 17.2081 8.79641 13.3977 9.19047 9.81563C9.27047 9.08836 9.84078 8.51008 10.568 8.43C10.5867 8.42797 10.6054 8.42586 10.6241 8.42383C10.6552 8.42047 10.6863 8.41711 10.7174 8.41375C10.7141 8.39359 10.7113 8.37328 10.7091 8.35281L10.7085 8.34805C10.6742 8.03594 10.6742 7.72078 10.7085 7.40867L10.7091 7.40391C10.7683 6.8657 11.1904 6.43766 11.7286 6.37844C11.7424 6.37688 11.7562 6.37539 11.7701 6.37391C11.8064 6.36992 11.8427 6.36602 11.8791 6.36219L13.2652 0.789062H16.8019L18.188 6.36219C18.2243 6.36602 18.2606 6.36992 18.297 6.37391C18.3098 6.37531 18.3226 6.37672 18.3355 6.37813C18.8748 6.43742 19.2987 6.86391 19.358 7.40328C19.3611 7.43141 19.3641 7.45953 19.3672 7.48773C19.3954 7.74711 19.3954 8.00953 19.3672 8.26891C19.3641 8.29688 19.3529 8.39352 19.3496 8.41367C19.3807 8.41703 19.4803 8.42781 19.499 8.42992C20.2225 8.50898 20.7954 9.07898 20.8751 9.80242C21.27 13.3884 21.483 17.2034 21.483 21.1598Z" fill="#199A8E"/>
<path d="M18.013 8.30953C17.2537 8.51102 16.283 8.6118 15.3124 8.6118C14.5018 8.6118 13.6912 8.54156 13.0036 8.40102C12.7766 8.35461 12.5394 8.43258 12.3891 8.60883C12.179 8.85516 12.0396 9.16867 12.003 9.51461C11.6089 13.2377 11.3965 17.1981 11.3965 21.3052C11.3965 25.4124 11.6089 29.3729 12.003 33.0959C12.0422 33.4663 12.1991 33.7995 12.4346 34.0529C11.8302 34.0141 11.2266 33.9616 10.6241 33.8957C10.6055 33.8937 10.5867 33.8916 10.568 33.8895C9.84086 33.8095 9.27047 33.2312 9.19047 32.5039C8.79641 28.9219 8.58398 25.1114 8.58398 21.1598C8.58398 17.2081 8.79641 13.3977 9.19047 9.81563C9.27047 9.08836 9.84078 8.51008 10.568 8.43C10.5867 8.42797 10.6054 8.42586 10.6241 8.42383C10.6552 8.42047 10.6863 8.41711 10.7174 8.41375C10.7141 8.39359 10.7113 8.37328 10.7091 8.35281L10.7081 8.3443C10.6739 8.03336 10.6741 7.71961 10.7085 7.40867L10.7091 7.40391C10.7683 6.8657 11.1904 6.43766 11.7286 6.37844C11.7424 6.37688 11.7563 6.37539 11.7701 6.37391C11.8064 6.36992 11.8427 6.36602 11.8791 6.36219L13.2652 0.789062H15.9206L14.9295 4.93133C14.8307 5.34391 15.1466 5.73758 15.5709 5.73461C16.1175 5.73078 16.6356 5.68914 17.0738 5.60602C17.2583 5.57102 17.4516 5.66086 17.5228 5.83461C17.6201 6.0718 17.4745 6.32445 17.2366 6.37031C16.462 6.51961 15.4795 6.55133 14.5044 6.48117C14.4305 6.47586 14.3566 6.46992 14.2829 6.46344C13.9505 6.43422 13.6505 6.66484 13.5898 6.99297C13.5888 6.99883 13.5877 7.00469 13.5866 7.01055C13.5179 7.38695 13.7837 7.74406 14.1648 7.77875C15.4073 7.89188 16.8385 7.81578 17.8273 7.55039C18.0471 7.49133 18.2738 7.6325 18.3136 7.86195C18.3486 8.06414 18.2112 8.25695 18.013 8.30953Z" fill="#147D73"/>
<path d="M17.813 0.776602C17.8242 0.877852 17.835 0.97957 17.8455 1.0816C17.835 1.18363 17.8242 1.28535 17.813 1.3866C17.775 1.73262 17.5036 2.00777 17.1577 2.04582C17.1487 2.04676 17.1399 2.04777 17.131 2.04871C15.7369 2.20137 14.3294 2.20137 12.9352 2.04871C12.9263 2.0477 12.9174 2.04676 12.9086 2.04582C12.5626 2.0077 12.2912 1.73254 12.2532 1.3866C12.242 1.28535 12.2312 1.18363 12.2207 1.0816C12.2312 0.97957 12.242 0.87793 12.2532 0.776602C12.2912 0.430586 12.5627 0.15543 12.9086 0.117383C12.9175 0.116367 12.9263 0.11543 12.9352 0.114492C14.3294 -0.0381641 15.7369 -0.0381641 17.131 0.114492C17.1399 0.115508 17.1488 0.116445 17.1577 0.117383C17.5037 0.15543 17.775 0.430586 17.813 0.776602Z" fill="#20B7A1"/>
<path d="M17.8136 0.776647C17.8247 0.877897 17.8355 0.979616 17.8461 1.08165C17.8355 1.18368 17.8247 1.2854 17.8136 1.38665C17.7755 1.73266 17.5041 2.00782 17.1582 2.04587C17.1493 2.0468 17.1404 2.04782 17.1315 2.04883C16.3896 2.13008 15.644 2.16805 14.8986 2.1629C14.569 2.06915 14.3229 1.78227 14.2844 1.43227C14.2716 1.31587 14.2592 1.19891 14.2471 1.08165C14.2592 0.964381 14.2716 0.847506 14.2844 0.731022C14.3229 0.3811 14.569 0.0942248 14.8986 0.000474796C15.6439 -0.00475958 16.3896 0.0332873 17.1315 0.114537C17.1404 0.115553 17.1493 0.11649 17.1582 0.117428C17.5041 0.155475 17.7755 0.430631 17.8136 0.776647Z" fill="#24D3B5"/>
<path d="M20.1113 20.9453C20.1113 25.0443 17.8378 28.3672 15.0332 28.3672C12.2286 28.3672 9.95508 25.0443 9.95508 20.9453C9.95508 16.8463 12.2286 13.5234 15.0332 13.5234C17.8378 13.5234 20.1113 16.8463 20.1113 20.9453Z" fill="#FFA90B"/>
<path d="M18.627 20.9455C18.627 24.0139 17.018 26.5014 15.0332 26.5014C13.0484 26.5014 11.4395 24.0139 11.4395 20.9455C11.4395 17.8771 13.0484 15.3896 15.0332 15.3896C17.018 15.3896 18.627 17.8771 18.627 20.9455Z" fill="#FFC14F"/>
<path d="M18.6269 20.9455C18.6269 23.9775 17.0559 26.4422 15.1037 26.5003C14.1096 25.3263 13.4512 23.2771 13.4512 20.9455C13.4512 18.6138 14.1096 16.5646 15.1037 15.3906C17.0559 15.4488 18.6269 17.9134 18.6269 20.9455Z" fill="#FFCD71"/>
<path d="M16.9411 20.46H12.9883C12.7726 20.46 12.5977 20.285 12.5977 20.0693C12.5977 19.8536 12.7726 19.6787 12.9883 19.6787H16.9411C17.1568 19.6787 17.3317 19.8536 17.3317 20.0693C17.3317 20.285 17.1568 20.46 16.9411 20.46ZM16.0751 21.6651C16.0751 21.4494 15.9002 21.2745 15.6845 21.2745H14.2449C14.0292 21.2745 13.8543 21.4494 13.8543 21.6651C13.8543 21.8808 14.0292 22.0557 14.2449 22.0557H15.6845C15.9002 22.0557 16.0751 21.8808 16.0751 21.6651Z" fill="#FFA90B"/>
<path d="M22.4371 19.7848C23.8532 19.6532 25.322 19.5671 26.83 19.5312C28.3304 19.5669 29.7918 19.6523 31.2013 19.7828C31.5942 19.8192 31.8111 24.7741 31.305 24.8158C29.859 24.9349 28.3633 25.0134 26.83 25.0471C25.3884 25.0154 23.98 24.9441 22.615 24.8367C22.02 24.7899 22.0515 19.8207 22.4371 19.7848Z" fill="#0A3575"/>
<path d="M24.0595 20.28C24.1921 20.9044 21.5214 21.3778 21.4313 20.7458C21.2011 19.1306 21.0486 17.5598 20.9697 16.0581C21.0118 16.0451 21.0539 16.0322 21.0962 16.0194C21.6335 15.8558 22.1891 15.7573 22.7499 15.7264C22.7939 15.7239 22.838 15.7215 22.8819 15.7193C23.324 17.1564 23.7207 18.6841 24.0595 20.28ZM32.9716 13.0557C32.4347 12.8907 31.8793 12.7907 31.3186 12.7584C31.2746 12.7559 31.2306 12.7534 31.1866 12.751C30.7409 14.1871 30.3404 15.7137 29.9975 17.3089C29.8634 17.9329 32.5329 18.413 32.6246 17.7813C32.8589 16.1667 33.0154 14.5962 33.098 13.0947C33.0559 13.0816 33.0138 13.0686 32.9716 13.0557ZM27.8015 16.4902C27.7579 16.4848 27.7141 16.4794 27.6703 16.4742C27.1127 16.4068 26.5484 16.4068 25.9908 16.4742C25.947 16.4795 25.9032 16.4848 25.8596 16.4902C25.6751 17.9826 25.5511 19.556 25.496 21.1865C25.4744 21.8245 28.1867 21.8245 28.1651 21.1865C28.11 19.556 27.986 17.9826 27.8015 16.4902Z" fill="#FFC14F"/>
<path d="M25.4804 21.7241C25.5247 19.9014 25.6549 18.1461 25.8596 16.4903C25.9032 16.4849 25.947 16.4795 25.9908 16.4742C26.3628 16.4293 26.7377 16.4143 27.1116 16.4293C26.9454 18.1193 26.8404 19.8955 26.805 21.7315C26.796 22.1933 25.4691 22.187 25.4804 21.7241ZM31.1793 18.1277C31.5414 16.3086 31.9626 14.5619 32.4296 12.9127C32.0643 12.8318 31.6926 12.78 31.3186 12.7584C31.2746 12.7559 31.2305 12.7534 31.1866 12.751C30.682 14.377 30.2353 16.1188 29.8646 17.9448C29.7798 18.3627 31.0924 18.5639 31.1793 18.1277ZM22.7984 20.9458C22.5217 19.1697 22.3207 17.4391 22.192 15.7797C21.8212 15.8302 21.4546 15.9103 21.0962 16.0194C21.054 16.0323 21.0118 16.0452 20.9697 16.0582C21.0554 17.6887 21.2278 19.4009 21.4923 21.1629C21.5668 21.6583 22.875 21.4375 22.7984 20.9458Z" fill="#FFA90B"/>
<path d="M28.1654 21.1864C28.187 21.8244 28.198 22.4711 28.198 23.1251C28.198 25.4509 28.0584 27.6839 27.8018 29.7602C27.4818 29.7997 26.1798 29.7997 25.8598 29.7602C25.6032 27.6839 25.4636 25.4509 25.4636 23.1251C25.4636 22.471 25.4746 21.8244 25.4962 21.1864C26.2607 21.1993 27.4009 21.1993 28.1654 21.1864ZM29.9978 17.3086C29.8637 17.9327 29.7384 18.5672 29.6226 19.2109C29.2109 21.5 28.953 23.7224 28.8381 25.8113C29.1461 25.9069 30.4275 26.1373 30.7495 26.1551C31.3695 24.157 31.9021 21.984 32.3138 19.6949C32.4295 19.0512 32.5331 18.4127 32.6248 17.781C31.8702 17.6584 30.7479 17.4566 29.9978 17.3086ZM21.4316 20.7456C21.5217 21.3776 21.6237 22.0162 21.7378 22.6603C22.1437 24.9504 22.6708 27.1248 23.2858 29.1245C23.6078 29.1076 24.8898 28.8804 25.198 28.7855C25.0883 26.6963 24.8361 24.4733 24.4302 22.1832C24.3161 21.5392 24.1923 20.9044 24.0598 20.2799C23.3093 20.4259 22.1866 20.6249 21.4316 20.7456Z" fill="#D5F1FE"/>
<path d="M28.198 23.1249C28.198 25.4507 28.0584 27.6837 27.8019 29.76C27.573 29.7882 26.8416 29.7963 26.3266 29.7842C26.5645 29.7898 26.8488 29.7911 27.1082 29.7881C26.9026 27.6839 26.7918 25.4468 26.7918 23.1271C26.7918 22.4765 26.8005 21.8324 26.8176 21.1959C27.2981 21.196 27.7796 21.1928 28.1654 21.1862C28.187 21.8242 28.198 22.4708 28.198 23.1249ZM32.6249 17.7808C32.2441 17.7189 31.7697 17.6369 31.2966 17.5518C31.1672 18.1752 31.0446 18.8076 30.9294 19.4479C30.5188 21.731 30.2319 23.9524 30.0619 26.0596C29.8059 26.0167 29.5265 25.9651 29.2933 25.9175C29.798 26.0206 30.5192 26.1421 30.7495 26.1548C31.3695 24.1568 31.9022 21.9837 32.3138 19.6946C32.4296 19.051 32.5332 18.4125 32.6249 17.7808ZM24.0598 20.2796C23.6811 20.3534 23.2076 20.4406 22.7344 20.5243C22.8287 21.1541 22.9324 21.7898 23.046 22.4305C23.4508 24.7146 23.9503 26.8981 24.5199 28.934C24.265 28.9823 23.9849 29.0306 23.7496 29.0665C24.2588 28.9886 24.9776 28.8531 25.198 28.7853C25.0884 26.6961 24.8362 24.473 24.4303 22.1829C24.3162 21.5389 24.1924 20.904 24.0598 20.2796Z" fill="#FFF5F5"/>
<path d="M26.2019 29.7901C28.9774 32.0978 33.2398 32.9692 33.2287 33.1039C33.1795 33.6987 33.1222 34.2848 33.0573 34.861C33.0164 35.2235 32.7311 35.5097 32.3686 35.5505C30.6046 35.7492 28.7493 35.8762 26.8306 35.9218C24.9118 35.8762 23.0565 35.7493 21.2925 35.5505C20.9301 35.5097 20.6446 35.2237 20.6039 34.8612C20.3506 32.6123 20.2139 30.2149 20.2139 27.7267C20.2139 25.2385 20.3506 22.8412 20.6039 20.5923C20.6446 20.2298 20.9301 19.9437 21.2925 19.9029C21.3725 19.8939 21.4526 19.885 21.5329 19.8763C21.7548 19.8523 21.9521 20.0201 21.9637 20.2429C22.0128 21.1815 22.0881 22.0957 22.1875 22.9791C22.2179 23.2495 23.716 27.7232 26.2019 29.7901Z" fill="#0956C6"/>
<path d="M33.0569 20.5914C33.3102 22.8403 33.4469 25.2376 33.4469 27.7258C33.4469 29.5764 33.3712 31.3766 33.2283 33.103C32.7883 33.1578 32.3392 33.1836 31.8832 33.1785C26.6124 33.1195 22.2822 28.8786 22.1182 23.61C22.107 23.2521 22.1151 22.8986 22.1411 22.5499C22.1558 22.6936 22.1712 22.8364 22.1872 22.9786C22.2176 23.2494 22.4318 23.4623 22.7026 23.4928C24.0174 23.6408 25.4001 23.7353 26.8302 23.7693C28.2609 23.7353 29.6443 23.6407 30.9596 23.4925C31.2301 23.4621 31.4427 23.2489 31.4732 22.9785C31.5726 22.0959 31.6479 21.1827 31.6969 20.2451C31.7086 20.021 31.9047 19.8511 32.1279 19.8753C32.2082 19.884 32.2883 19.8929 32.3683 19.9019C32.7307 19.9428 33.0161 20.2289 33.0569 20.5914Z" fill="#0A66EA"/>
<path d="M30.9585 29.375C30.9585 31.6618 29.206 33.5156 27.0442 33.5156C24.8824 33.5156 23.1299 31.6618 23.1299 29.375C23.1299 27.0882 24.8824 25.2344 27.0442 25.2344C29.206 25.2344 30.9585 27.0882 30.9585 29.375Z" fill="#0A4499"/>
<path d="M29.7621 29.3746C29.7621 30.9622 28.5455 32.2492 27.0446 32.2492C25.5438 32.2492 24.3271 30.9622 24.3271 29.3746C24.3271 27.787 25.5438 26.5 27.0446 26.5C28.5455 26.5 29.7621 27.787 29.7621 29.3746Z" fill="#0A66EA"/>
<path d="M29.762 29.3745C29.762 29.8128 29.6693 30.2282 29.5034 30.5999C29.1889 30.7344 28.8452 30.8086 28.4851 30.8086C26.9843 30.8086 25.7676 29.5216 25.7676 27.934C25.7676 27.4957 25.8604 27.0803 26.0262 26.7087C26.3407 26.5741 26.6844 26.5 27.0445 26.5C28.5454 26.4999 29.762 27.787 29.762 29.3745Z" fill="#2476ED"/>
<path d="M37.7096 19.9998C37.7096 24.7303 35.8675 29.1775 32.5225 32.5225C29.1775 35.8674 24.7303 37.7096 19.9998 37.7096C15.2693 37.7096 10.8221 35.8674 7.47715 32.5225C4.13223 29.1775 2.29004 24.7303 2.29004 19.9998C2.29004 19.7841 2.46488 19.6092 2.68066 19.6092C2.89645 19.6092 3.07129 19.7841 3.07129 19.9998C3.07129 24.5268 4.85746 28.6445 7.76207 31.6851L31.8494 7.59777C32.0018 7.44527 32.2493 7.44527 32.4018 7.59777C32.5543 7.75035 32.5543 7.9977 32.4018 8.1502L8.31449 32.2375C11.3551 35.1421 15.4728 36.9282 19.9998 36.9282C29.3342 36.9282 36.9283 29.3342 36.9283 19.9997C36.9283 19.784 37.1032 19.6091 37.319 19.6091C37.5347 19.6091 37.7096 19.7841 37.7096 19.9998Z" fill="#C83C50"/>
<path d="M20.0356 33.4891C18.8914 32.345 20.8802 30.3563 22.0243 31.5004C23.1684 32.6444 23.6507 34.0172 23.1016 34.5663C22.5523 35.1155 21.1797 34.6332 20.0356 33.4891Z" fill="#C83C50"/>
<path d="M20.1278 33.5781C20.0874 33.5398 20.0471 33.5006 20.0072 33.4607C18.8631 32.3166 18.3808 30.9439 18.9299 30.3948C19.4791 29.8456 20.8518 30.3279 21.9959 31.472C22.0358 31.512 22.0749 31.5522 22.1132 31.5927C21.74 31.8471 21.3746 32.1485 21.0291 32.4941C20.6837 32.8396 20.3823 33.2049 20.1278 33.5781Z" fill="#FFC14F"/>
<path d="M18.5938 35.5859C18.5938 36.7293 17.6668 37.6562 16.5234 37.6562C15.3801 37.6562 14.4531 36.7293 14.4531 35.5859C14.4531 34.4426 15.3801 33.5156 16.5234 33.5156C17.6668 33.5156 18.5938 34.4426 18.5938 35.5859Z" fill="#97BFFD"/>
<path d="M16.1859 33.543C16.0814 34.0438 16.0156 34.7734 16.0156 35.5859C16.0156 36.3983 16.0814 37.128 16.1859 37.6287C15.203 37.4676 14.4531 36.6143 14.4531 35.5859C14.4531 34.5574 15.203 33.7041 16.1859 33.543ZM16.861 33.543C16.9655 34.0438 17.0312 34.7734 17.0312 35.5859C17.0312 36.3983 16.9655 37.128 16.861 37.6287C17.8438 37.4676 18.5938 36.6143 18.5938 35.5859C18.5938 34.5574 17.8438 33.7041 16.861 33.543Z" fill="#FFF5F5"/>
</svg>
