<svg width="28" height="28" viewBox="0 0 28 28" fill="none" xmlns="http://www.w3.org/2000/svg">
<path fill-rule="evenodd" clip-rule="evenodd" d="M13.7549 20.3444C12.9945 20.3444 12.373 19.7297 12.373 18.9694C12.373 18.209 12.9822 17.5944 13.7412 17.5944H13.7549C14.5153 17.5944 15.1299 18.209 15.1299 18.9694C15.1299 19.7297 14.5153 20.3444 13.7549 20.3444" fill="black"/>
<path fill-rule="evenodd" clip-rule="evenodd" d="M13.7422 15.6379C13.1729 15.6379 12.7109 15.1759 12.7109 14.6066V8.53052C12.7109 7.96127 13.1729 7.49927 13.7422 7.49927C14.3114 7.49927 14.7734 7.96127 14.7734 8.53052V14.6066C14.7734 15.1759 14.3114 15.6379 13.7422 15.6379" fill="black"/>
<path fill-rule="evenodd" clip-rule="evenodd" d="M13.75 2.0625C7.30538 2.0625 2.0625 7.30538 2.0625 13.75C2.0625 20.1946 7.30538 25.4375 13.75 25.4375C20.1946 25.4375 25.4375 20.1946 25.4375 13.75C25.4375 7.30538 20.1946 2.0625 13.75 2.0625M13.75 27.5C6.16825 27.5 0 21.3317 0 13.75C0 6.16825 6.16825 0 13.75 0C21.3317 0 27.5 6.16825 27.5 13.75C27.5 21.3317 21.3317 27.5 13.75 27.5" fill="black"/>
</svg>
