<svg width="52" height="52" viewBox="0 0 52 52" fill="none" xmlns="http://www.w3.org/2000/svg">
<path d="M21.1487 21.9543H13.092C13.092 19.178 14.8991 16.9189 17.1204 16.9189C19.3416 16.9189 21.1487 19.178 21.1487 21.9543ZM34.845 16.9189C32.6237 16.9189 30.8167 19.178 30.8167 21.9543H38.8733C38.8733 19.178 37.0662 16.9189 34.845 16.9189ZM44.0113 44.0113C48.8808 39.1421 51.5625 32.6675 51.5625 25.7812C51.5625 18.895 48.8808 12.4204 44.0113 7.55121C39.1421 2.68167 32.6675 0 25.7812 0C18.895 0 12.4204 2.68167 7.55121 7.55121C2.68167 12.4204 0 18.895 0 25.7812C0 32.6675 2.68167 39.1421 7.55121 44.0113C12.4204 48.8808 18.895 51.5625 25.7812 51.5625C32.6675 51.5625 39.1421 48.8808 44.0113 44.0113ZM47.5342 25.7812C47.5342 37.7756 37.7756 47.5342 25.7812 47.5342C13.7869 47.5342 4.02832 37.7756 4.02832 25.7812C4.02832 13.7869 13.7869 4.02832 25.7812 4.02832C37.7756 4.02832 47.5342 13.7869 47.5342 25.7812ZM39.5373 31.775L35.9937 29.8584C35.9616 29.9181 32.6722 35.8521 25.7812 35.8521C22.9482 35.8521 20.3868 34.8686 18.1684 32.929C16.4412 31.419 15.5726 29.8662 15.5688 29.8584L12.0252 31.775C12.2046 32.1057 16.5161 39.8804 25.7812 39.8804C35.0464 39.8804 39.3579 32.1057 39.5373 31.775Z" fill="black"/>
</svg>
