<svg width="29" height="37" viewBox="0 0 29 37" fill="none" xmlns="http://www.w3.org/2000/svg">
<path d="M13.7439 27.7807H14.9941C17.2402 24.9003 25.6322 26.6091 22.8986 36.2518H5.83932C3.10576 26.6092 11.4977 24.9003 13.7439 27.7807Z" fill="#EC6B59"/>
<path d="M16.7402 26.6806C19.4646 27.3786 22.007 30.3079 20.322 36.2517H22.8988C25.1318 28.3748 19.9406 25.7921 16.7402 26.6806Z" fill="#BC4142"/>
<path d="M14.3697 29.9399C15.7929 29.9399 16.9466 28.7863 16.9466 27.3631V24.1738H11.793V27.3631C11.793 28.7863 12.9466 29.9399 14.3697 29.9399Z" fill="#F6BB93"/>
<path d="M11.793 26.7163C13.3962 27.0823 15.2236 27.18 16.9466 27.0095V24.1738H11.793V26.7163Z" fill="#E49775"/>
<path d="M5.51324 18.8937H8.39282V14.5391H5.51324C4.31073 14.5391 3.33594 15.5139 3.33594 16.7164C3.33594 17.9188 4.31073 18.8937 5.51324 18.8937Z" fill="#F6BB93"/>
<path d="M23.2253 18.8937H20.3457V14.5391H23.2253C24.4278 14.5391 25.4026 15.5139 25.4026 16.7164C25.4026 17.9188 24.4278 18.8937 23.2253 18.8937Z" fill="#F6BB93"/>
<path d="M6.62012 18.031C6.08322 15.7067 5.28968 12.6085 4.93193 11.0973C2.63207 9.10049 2.15624 4.87976 3.54685 1.87971C3.74731 1.44727 4.29972 1.31815 4.6697 1.61874C5.5837 2.36134 7.38662 3.06559 10.757 1.8294C17.3206 -0.578057 22.8477 2.66319 23.165 4.32274C23.5199 4.32274 25.2435 4.56694 25.2435 6.26191C25.2435 7.70359 22.8742 15.3824 21.8526 18.031H6.62012V18.031Z" fill="#52668D"/>
<path d="M23.1654 4.32273C22.9161 3.01856 19.449 0.737496 14.79 0.988897C18.3062 1.20271 20.8154 3.15453 21.0151 4.32273C21.3326 4.32273 22.8745 4.56693 22.8745 6.2619C22.8745 7.70358 20.7549 15.3824 19.841 18.031H21.8529C22.8745 15.3824 25.2439 7.70358 25.2439 6.2619C25.2439 4.56693 23.5203 4.32273 23.1654 4.32273Z" fill="#243B5D"/>
<path d="M6.24902 20.9666C6.24902 26.7009 22.4888 26.7009 22.4888 20.9666C22.4888 17.6807 22.0494 12.1173 21.0919 9.95479C20.8646 9.44136 20.3703 8.91452 19.9657 8.6727C19.6235 8.46818 19.2646 8.35254 18.8996 8.35254C18.4913 8.35254 18.0928 8.48334 17.6928 8.6727C16.6563 9.16243 15.6108 10.0415 14.369 10.0415C13.1272 10.0415 12.0816 9.16243 11.0451 8.6727C10.6452 8.48334 10.2467 8.35254 9.83831 8.35254C9.47329 8.35254 9.11436 8.46811 8.77219 8.6727C8.36686 8.91452 7.87195 9.4422 7.64368 9.95702C6.69013 12.1078 6.24902 17.6184 6.24902 20.9666Z" fill="#F6BB93"/>
<path d="M21.0921 9.95479C20.8648 9.44136 20.3705 8.91452 19.9659 8.6727C19.6238 8.46811 19.2648 8.35254 18.8998 8.35254C18.6029 8.35254 18.3111 8.42227 18.0203 8.53281C18.0994 8.57327 18.1777 8.61987 18.255 8.6727C18.6091 8.91452 19.0417 9.44136 19.2407 9.95479C20.0787 12.1174 20.4634 17.6808 20.4634 20.9666C20.4634 23.7066 17.2182 25.1372 13.8291 25.2588C18.0609 25.3917 22.4891 23.961 22.4891 20.9666C22.489 17.6808 22.0496 12.1174 21.0921 9.95479Z" fill="#E49775"/>
<path d="M18.2478 16.9364C17.9497 16.9364 17.708 16.6947 17.708 16.3966V15.5682C17.708 15.27 17.9497 15.0283 18.2478 15.0283C18.546 15.0283 18.7877 15.27 18.7877 15.5682V16.3966C18.7877 16.6947 18.546 16.9364 18.2478 16.9364Z" fill="#223372"/>
<path d="M16.88 15.0795C16.6632 15.0795 16.4588 14.9481 16.3761 14.7337C16.2689 14.4555 16.4075 14.143 16.6857 14.0358L19.6765 12.8829C19.9547 12.7758 20.2672 12.9142 20.3744 13.1925C20.4816 13.4707 20.343 13.7832 20.0648 13.8904L17.074 15.0433C17.0101 15.0679 16.9445 15.0795 16.88 15.0795Z" fill="#243B5D"/>
<path d="M10.491 16.9364C10.1929 16.9364 9.95117 16.6947 9.95117 16.3966V15.5682C9.95117 15.27 10.1929 15.0283 10.491 15.0283C10.7892 15.0283 11.0308 15.27 11.0308 15.5682V16.3966C11.0308 16.6947 10.7892 16.9364 10.491 16.9364Z" fill="#223372"/>
<path d="M11.8598 15.0795C11.7952 15.0795 11.7296 15.0678 11.6657 15.0432L8.67492 13.8903C8.39675 13.7831 8.25813 13.4706 8.36538 13.1924C8.47263 12.9142 8.78517 12.7758 9.06327 12.8829L12.0541 14.0358C12.3323 14.1431 12.4709 14.4555 12.3636 14.7337C12.281 14.948 12.0766 15.0795 11.8598 15.0795Z" fill="#243B5D"/>
<path d="M11.8503 22.1332C11.489 22.1332 11.2269 21.7888 11.3226 21.4403C11.7561 19.8605 12.9565 18.7246 14.3694 18.7246C15.7823 18.7246 16.9826 19.8605 17.4162 21.4403C17.5118 21.7888 17.2498 22.1332 16.8884 22.1332H11.8503Z" fill="#BC4142"/>
<path d="M17.0012 20.4289H11.7373C12.3202 19.3982 13.2815 18.7246 14.3693 18.7246C15.457 18.7246 16.4183 19.3982 17.0012 20.4289Z" fill="#EBEEF2"/>
<path d="M24.9219 27.708H23.4866C21.7255 27.708 20.2979 29.1356 20.2979 30.8967V31.9354C20.2979 32.4336 20.7016 32.8373 21.1998 32.8373H21.9406V35.9737C21.9406 36.3997 22.2859 36.745 22.7119 36.745C23.1378 36.745 23.4831 36.3997 23.4831 35.9737V33.9512C23.4831 34.3771 23.8284 34.7224 24.2544 34.7224C24.6803 34.7224 25.0256 34.3771 25.0256 33.9512C25.0256 34.3771 25.371 34.7224 25.7969 34.7224C26.2228 34.7224 26.5681 34.3771 26.5681 33.9512C26.5681 34.3771 26.9135 34.7224 27.3394 34.7224C27.7653 34.7224 28.1107 34.3771 28.1107 33.9512V30.8967C28.1107 29.1356 26.683 27.708 24.9219 27.708Z" fill="#F6BB93"/>
<path d="M24.9215 27.708H23.5918C25.3529 27.708 26.7805 29.1356 26.7805 30.8967V33.9512C26.7805 34.0939 26.7417 34.2275 26.6741 34.3422C26.8082 34.5697 27.0557 34.7224 27.3389 34.7224C27.7649 34.7224 28.1102 34.3771 28.1102 33.9512V30.8967C28.1102 29.1357 26.6825 27.708 24.9215 27.708Z" fill="#E49775"/>
<path d="M1.4034 25.1325C1.18638 25.1325 0.981724 25.0007 0.899274 24.7859C0.792439 24.5076 0.931485 24.1953 1.20986 24.0885L2.72036 23.5087C2.99867 23.4018 3.311 23.5409 3.41783 23.8193C3.52467 24.0976 3.38562 24.4099 3.10725 24.5167L1.59674 25.0965C1.53309 25.121 1.46769 25.1325 1.4034 25.1325Z" fill="#243B5D"/>
<path d="M2.95147 22.3796C2.8781 22.3796 2.80355 22.3645 2.73221 22.3327L1.09873 21.6055C0.826363 21.4843 0.703876 21.1651 0.825105 20.8927C0.946334 20.6204 1.26537 20.4977 1.53788 20.6191L3.17136 21.3463C3.44372 21.4676 3.56621 21.7868 3.44498 22.0591C3.35547 22.2601 3.15815 22.3796 2.95147 22.3796Z" fill="#243B5D"/>
<path d="M3.66857 27.7751C3.59521 27.7751 3.52065 27.76 3.44931 27.7283C3.17695 27.607 3.05446 27.2878 3.17569 27.0155L3.90293 25.382C4.02415 25.1096 4.34326 24.987 4.61569 25.1084C4.88806 25.2296 5.01054 25.5488 4.88932 25.8211L4.16208 27.4546C4.07258 27.6557 3.87533 27.7751 3.66857 27.7751Z" fill="#243B5D"/>
<path d="M8.9869 36.142V33.4529C8.9869 33.1548 8.74521 32.9131 8.44706 32.9131C8.14892 32.9131 7.90723 33.1548 7.90723 33.4529V36.142C7.90723 36.1796 7.91114 36.2164 7.91848 36.2518H8.97579C8.98305 36.2163 8.9869 36.1796 8.9869 36.142Z" fill="#BC4142"/>
<path d="M21.625 30.9453C21.4509 30.9453 21.3096 31.0865 21.3096 31.2608V32.8371H21.9404V31.2608C21.9404 31.0865 21.7992 30.9453 21.625 30.9453Z" fill="#E49775"/>
</svg>
