<svg width="32" height="33" viewBox="0 0 32 33" fill="none" xmlns="http://www.w3.org/2000/svg">
<path fill-rule="evenodd" clip-rule="evenodd" d="M9.22162 2.62842C5.008 2.62842 2.6875 4.87579 2.6875 8.95617V23.6608C2.6875 27.8305 5.008 30.125 9.22162 30.125H22.9659C27.1795 30.125 29.5 27.8728 29.5 23.7843V8.95617C29.5065 6.94929 28.967 5.38929 27.8961 4.31679C26.7944 3.21179 25.0962 2.62842 22.9805 2.62842H9.22162ZM22.9659 32.5625H9.22162C3.6885 32.5625 0.25 29.1517 0.25 23.6608V8.95617C0.25 3.54817 3.6885 0.190918 9.22162 0.190918H22.9805C25.7576 0.190918 28.0538 1.02292 29.6219 2.59429C31.1445 4.12342 31.9456 6.32204 31.9375 8.95942V23.7843C31.9375 29.1988 28.499 32.5625 22.9659 32.5625V32.5625Z" fill="black"/>
</svg>
