<svg width="49" height="41" viewBox="0 0 49 41" fill="none" xmlns="http://www.w3.org/2000/svg">
<path d="M20.1934 0.544189L18.7578 4.97223L20.1934 10.4213L31.3361 0.544189H20.1934Z" fill="#FF7D43"/>
<path d="M20.1934 0.544189V13.8792L18.7578 14.7954L17.3223 13.8792V0.544189H20.1934Z" fill="#575F64"/>
<path d="M20.1934 0.544189V13.8792L18.7578 14.7954V0.544189H20.1934Z" fill="#474F54"/>
<path d="M29.6407 29.927L24.8824 37.5972L18.7574 37.6847L3.18457 37.9076L17.3218 13.8792H20.1929L29.6407 29.927Z" fill="#8EB26F"/>
<path d="M29.6412 29.927L24.8828 37.5972L18.7578 37.6847V13.8792H20.1934L29.6412 29.927Z" fill="#6E8D53"/>
<path d="M33.1132 19.8752L22.4092 38.0914L24.8439 39.7099H41.3825L43.8172 38.0914L33.1132 19.8752Z" fill="#8EB26F"/>
<path d="M0 37.1899H49V40.2438H0V37.1899Z" fill="#6E8D53"/>
<path d="M18.7578 37.1899H49V40.2438H18.7578V37.1899Z" fill="#6E8D53"/>
</svg>
