<svg width="239" height="308" viewBox="0 0 239 308" fill="none" xmlns="http://www.w3.org/2000/svg">
<path opacity="0.5" d="M194.085 264.821C165.442 260.715 141.723 272.02 129.835 278.227C122.461 282.077 121.061 294.257 141.047 294.444C161.032 294.631 176.118 287.771 184.786 292.041C193.175 296.171 200.129 309.051 209.684 307.628C219.239 306.205 223.848 299.403 220.184 286.767C216.871 275.555 209.999 267.097 194.085 264.821Z" fill="#BA68C8"/>
<path d="M165.711 263.945L167.963 250.948L152.224 251.882C152.224 251.882 152.014 258.73 151.489 263.444C151.233 265.777 148.643 269.826 148.643 269.826C148.643 269.826 156.81 273.536 160.531 272.159C161.946 271.519 163.186 270.55 164.148 269.332C165.11 268.114 165.767 266.683 166.062 265.159C165.968 264.132 165.711 263.945 165.711 263.945Z" fill="#FFA8A7"/>
<path d="M130.057 284.981C129.832 285.55 129.783 286.173 129.916 286.77C130.049 287.367 130.358 287.91 130.803 288.33C132.32 289.496 136.73 291.281 142.471 290.5C148.211 289.718 151.361 288.05 153.648 286.265C155.934 284.479 159.143 281.959 161.756 281.388C163.824 281.006 165.802 280.242 167.59 279.136C168.36 278.448 168.196 275.438 168.196 275.438L130.057 284.981Z" fill="#263238"/>
<path d="M165.711 263.923C165.915 263.922 166.113 263.989 166.273 264.114C166.434 264.239 166.548 264.414 166.598 264.611C166.796 265.428 167.03 267.831 167.426 269.185C168.07 271.558 168.307 274.024 168.126 276.477C167.823 278.028 163.879 279.172 161.359 280.082C158.417 281.281 155.665 282.904 153.192 284.9C149.595 287.383 145.405 288.869 141.047 289.205C136.578 289.205 131.527 288.039 130.348 286.219C128.878 283.885 127.805 281.283 134.373 278.402C135.622 277.865 139.985 275.438 141.467 274.563C145.492 272.23 148.304 270.025 150.112 265.93C150.269 265.414 150.598 264.969 151.046 264.67C151.453 264.507 151.898 264.463 152.329 264.541C154.523 264.723 156.702 265.054 158.851 265.533C159.749 265.906 161.009 266.326 161.009 267.341C160.996 267.703 160.917 268.058 160.776 268.391C160.706 268.601 160.648 268.881 160.846 268.998C161.044 269.115 161.301 268.998 161.464 268.835C162.102 268.232 162.688 267.576 163.214 266.875C163.523 266.51 163.871 266.181 164.253 265.895C164.603 265.638 165.058 265.498 165.419 265.218C165.781 264.938 165.699 264.401 165.711 263.923Z" fill="#455A64"/>
<path d="M153.228 284.9C154.394 284.013 155.561 283.173 156.798 282.403C156.798 282.403 149.086 286.802 145.901 284.923C143.859 283.757 144.792 282.193 144.839 281.703C144.886 281.213 137.664 277.946 135.692 277.771C135.155 278.051 134.7 278.285 134.409 278.401C127.84 281.283 128.913 283.943 130.383 286.218C131.55 288.062 135.225 289.439 141 289.334C145.391 288.936 149.603 287.409 153.228 284.9Z" fill="#37474F"/>
<path d="M145.363 280.292C141.268 281.843 143.03 282.497 144.197 282.625C145.363 282.753 152.224 278.985 156.401 275.905C160.752 272.685 163.482 269.208 165.092 268.03C165.699 267.586 166.353 267.05 166.924 266.548C166.808 265.731 166.703 264.996 166.609 264.611C166.56 264.414 166.445 264.239 166.285 264.114C166.124 263.989 165.926 263.922 165.723 263.923L165.548 264.961C165.232 265.253 164.649 265.638 164.299 265.895C163.917 266.181 163.569 266.51 163.261 266.875C162.734 267.576 162.149 268.232 161.511 268.835C157.976 273 149.494 278.728 145.363 280.292Z" fill="#37474F"/>
<path d="M144.477 282.076C144.569 282.076 144.658 282.048 144.733 281.995C144.769 281.961 144.797 281.92 144.817 281.875C144.836 281.83 144.846 281.781 144.846 281.732C144.846 281.683 144.836 281.634 144.817 281.589C144.797 281.544 144.769 281.503 144.733 281.47C143.567 280.221 137.99 277.281 134.968 277.643C134.918 277.646 134.869 277.659 134.824 277.681C134.779 277.703 134.739 277.735 134.706 277.773C134.673 277.811 134.649 277.855 134.634 277.903C134.618 277.951 134.613 278.001 134.618 278.051C134.625 278.102 134.642 278.15 134.669 278.194C134.695 278.237 134.73 278.275 134.772 278.305C134.813 278.334 134.86 278.355 134.91 278.365C134.96 278.376 135.011 278.376 135.061 278.366C137.885 278.04 143.228 280.956 144.103 281.948C144.15 281.998 144.209 282.036 144.274 282.059C144.339 282.081 144.409 282.087 144.477 282.076Z" fill="#263238"/>
<path d="M148.035 280.023C148.127 280.023 148.217 279.994 148.292 279.941C148.327 279.908 148.355 279.869 148.375 279.825C148.394 279.78 148.404 279.733 148.404 279.685C148.404 279.636 148.394 279.589 148.375 279.544C148.355 279.5 148.327 279.461 148.292 279.428C147.125 278.168 141.548 275.239 138.527 275.589C138.476 275.592 138.427 275.605 138.382 275.628C138.337 275.65 138.297 275.681 138.265 275.719C138.232 275.757 138.207 275.802 138.192 275.849C138.177 275.897 138.172 275.948 138.177 275.998C138.194 276.098 138.25 276.188 138.333 276.247C138.416 276.306 138.519 276.33 138.62 276.313C141.455 275.998 146.728 278.903 147.662 279.895C147.709 279.945 147.767 279.983 147.832 280.005C147.898 280.028 147.967 280.034 148.035 280.023Z" fill="#263238"/>
<path d="M151.594 278.074C151.686 278.076 151.776 278.047 151.85 277.993C151.886 277.96 151.914 277.92 151.933 277.876C151.953 277.832 151.962 277.784 151.962 277.736C151.962 277.688 151.953 277.64 151.933 277.596C151.914 277.552 151.886 277.512 151.85 277.479C150.684 276.219 145.107 273.279 142.085 273.641C142.035 273.644 141.986 273.657 141.941 273.679C141.896 273.701 141.856 273.733 141.823 273.771C141.791 273.809 141.766 273.853 141.751 273.901C141.736 273.949 141.73 273.999 141.735 274.049C141.755 274.151 141.814 274.24 141.899 274.299C141.984 274.358 142.088 274.381 142.19 274.364C145.014 274.038 150.287 276.954 151.232 277.946C151.275 277.998 151.331 278.038 151.395 278.06C151.459 278.083 151.528 278.088 151.594 278.074Z" fill="#263238"/>
<path d="M154.884 275.893C154.977 275.89 155.067 275.858 155.14 275.8C155.177 275.768 155.207 275.728 155.228 275.684C155.248 275.64 155.258 275.592 155.258 275.543C155.258 275.494 155.248 275.446 155.228 275.402C155.207 275.357 155.177 275.318 155.14 275.286C153.974 274.026 148.385 271.098 145.375 271.459C145.325 271.462 145.276 271.475 145.231 271.498C145.186 271.52 145.146 271.551 145.113 271.589C145.081 271.627 145.056 271.672 145.041 271.719C145.026 271.767 145.02 271.818 145.025 271.868C145.045 271.969 145.104 272.059 145.189 272.118C145.274 272.177 145.378 272.2 145.48 272.183C148.304 271.856 153.577 274.761 154.522 275.765C154.569 275.811 154.626 275.847 154.689 275.869C154.751 275.891 154.818 275.899 154.884 275.893Z" fill="#263238"/>
<path d="M158.104 273.665C158.197 273.659 158.286 273.626 158.361 273.572C158.402 273.544 158.436 273.508 158.462 273.466C158.488 273.424 158.504 273.377 158.509 273.328C158.515 273.28 158.51 273.23 158.494 273.183C158.479 273.137 158.453 273.094 158.419 273.058C156.786 271.273 150.988 268.846 147.919 269.208C147.869 269.211 147.82 269.224 147.775 269.246C147.73 269.269 147.69 269.3 147.657 269.338C147.625 269.376 147.6 269.42 147.585 269.468C147.57 269.516 147.564 269.566 147.569 269.616C147.592 269.716 147.651 269.804 147.735 269.863C147.819 269.921 147.923 269.946 148.024 269.931C150.743 269.616 156.308 271.95 157.754 273.525C157.798 273.574 157.852 273.612 157.913 273.636C157.974 273.661 158.039 273.67 158.104 273.665Z" fill="#263238"/>
<path d="M199.371 267.865L196.162 255.813L211.563 253.795L212.029 265.462C212.029 265.462 213.581 269.627 212.613 271.144C211.644 272.661 201.412 274.201 200.479 273.186C199.546 272.171 199.371 267.865 199.371 267.865Z" fill="#FFA8A7"/>
<path d="M200.455 294.058C200.887 297.78 201.68 300.195 203.349 302.225C205.017 304.255 208.015 304.558 210.967 303.625C213.919 302.692 217.477 300.125 218.376 297.15C219.367 293.883 218.807 291.62 217.967 288.213L200.455 294.058Z" fill="#263238"/>
<path d="M212.029 265.392C213.266 265.334 212.927 270.432 213.872 275.402C214.876 280.723 216.882 282.741 217.769 287.069C218.772 292.051 218.574 294.35 216.602 297.652C214.631 300.953 207.409 304.792 203.57 300.813C200.444 297.57 200.129 293.615 200.164 288.528C200.315 284.22 200.21 279.908 199.849 275.612C199.429 271.844 198.308 268.496 199.358 267.947C199.464 268.496 199.58 269.196 199.685 269.732C199.79 270.269 199.989 272.182 200.689 272.124C200.735 271.651 200.735 271.174 200.689 270.701C200.644 270.481 200.646 270.254 200.694 270.035C200.742 269.816 200.836 269.61 200.969 269.429C201.566 268.986 202.244 268.661 202.964 268.472C204.13 268.134 206.312 267.714 207.537 267.469C208.155 267.352 208.704 267.259 209.381 267.2C209.903 267.125 210.433 267.125 210.956 267.2C211.096 267.217 211.232 267.266 211.351 267.343C211.47 267.419 211.57 267.522 211.644 267.644C211.711 267.827 211.742 268.021 211.737 268.216C211.75 268.562 211.817 268.905 211.936 269.231C211.936 269.382 212.122 269.546 212.297 269.487C212.358 269.459 212.409 269.412 212.442 269.353C212.476 269.295 212.49 269.228 212.484 269.161C212.484 268.554 212.344 268.111 212.274 267.41C212.274 267.084 212.157 266.64 212.146 266.314C212.134 265.987 212.064 265.742 212.029 265.392Z" fill="#455A64"/>
<path d="M217.42 285.729C217.571 286.44 218.528 291.2 217.011 292.25C215.495 293.3 214.293 289.684 214.293 289.684C214.293 289.684 210.314 289.1 204.691 291.889C205.018 292.635 204.259 295.389 202.661 294.957C201.063 294.525 200.199 289.124 200.188 289.042C200.188 293.919 200.549 297.734 203.594 300.884C207.433 304.863 214.678 301.012 216.626 297.722C218.575 294.432 218.773 292.122 217.793 287.14C217.665 286.639 217.548 286.172 217.42 285.729Z" fill="#37474F"/>
<path d="M213.849 290.057C213.966 291.888 216.066 291.025 216.031 288.435C215.996 285.845 214.059 279.883 213.873 275.438C213.534 269.324 213.266 265.369 212.029 265.427C212.035 265.486 212.035 265.544 212.029 265.602L212.309 268.157C212.371 268.517 212.414 268.879 212.438 269.243C212.636 272.976 212.648 280.233 213.184 283.605C213.547 285.738 213.769 287.894 213.849 290.057Z" fill="#37474F"/>
<path d="M205.343 291.76C204.727 289.692 204.236 287.588 203.873 285.46C203.29 282.123 201.248 275.438 200.233 271.844C199.972 271.189 199.796 270.503 199.708 269.803C199.603 269.301 199.498 268.636 199.405 268.134V268.029C198.647 268.426 198.892 271.319 199.288 272.824C199.685 274.33 200.163 275.928 200.653 278.075C201.913 282.321 202.007 288.668 202.812 291.118C203.617 293.568 205.833 293.51 205.343 291.76Z" fill="#37474F"/>
<path d="M204.574 292.04C204.628 292.056 204.685 292.056 204.738 292.04C207.647 290.53 210.921 289.867 214.188 290.126C214.305 290.143 214.423 290.119 214.524 290.057C214.624 289.995 214.699 289.9 214.736 289.788C214.747 289.736 214.745 289.682 214.733 289.631C214.72 289.579 214.696 289.531 214.663 289.49C214.629 289.449 214.587 289.416 214.539 289.392C214.492 289.369 214.439 289.357 214.386 289.356C210.892 289.054 207.385 289.762 204.283 291.398C204.233 291.42 204.188 291.452 204.152 291.493C204.116 291.534 204.089 291.582 204.073 291.634C204.058 291.686 204.054 291.741 204.062 291.795C204.07 291.849 204.089 291.901 204.119 291.946C204.178 292.005 204.252 292.045 204.333 292.062C204.414 292.078 204.498 292.071 204.574 292.04Z" fill="#263238"/>
<path d="M203.361 288.19L203.512 288.132C206.802 286.536 210.443 285.801 214.094 285.997C214.21 286.006 214.325 285.977 214.422 285.913C214.519 285.85 214.593 285.756 214.631 285.647C214.639 285.593 214.636 285.538 214.621 285.486C214.606 285.434 214.58 285.385 214.545 285.344C214.509 285.303 214.465 285.27 214.415 285.248C214.366 285.226 214.312 285.214 214.258 285.215C210.399 284.988 206.547 285.768 203.081 287.479C203.031 287.5 202.987 287.531 202.951 287.57C202.914 287.609 202.887 287.655 202.869 287.706C202.851 287.756 202.845 287.81 202.849 287.863C202.853 287.916 202.868 287.968 202.894 288.015C202.946 288.087 203.018 288.141 203.101 288.172C203.184 288.203 203.274 288.21 203.361 288.19Z" fill="#263238"/>
<path d="M213.662 282.252C213.746 282.239 213.824 282.204 213.89 282.15C213.955 282.097 214.006 282.027 214.036 281.948C214.051 281.898 214.056 281.844 214.048 281.791C214.041 281.739 214.022 281.688 213.993 281.644C213.964 281.599 213.926 281.562 213.881 281.534C213.836 281.506 213.785 281.488 213.732 281.482C208.132 280.513 202.788 283.523 202.567 283.652C202.517 283.674 202.473 283.706 202.436 283.747C202.4 283.787 202.373 283.835 202.356 283.887C202.34 283.938 202.334 283.993 202.34 284.047C202.346 284.101 202.364 284.153 202.392 284.2C202.468 284.288 202.574 284.346 202.69 284.363C202.805 284.38 202.923 284.356 203.022 284.293C203.022 284.293 208.26 281.353 213.522 282.252H213.662Z" fill="#263238"/>
<path d="M213.138 278.728C213.22 278.711 213.296 278.674 213.361 278.621C213.426 278.569 213.478 278.501 213.511 278.424C213.527 278.374 213.531 278.32 213.524 278.267C213.517 278.215 213.498 278.164 213.469 278.12C213.44 278.075 213.402 278.038 213.357 278.01C213.311 277.982 213.261 277.964 213.208 277.958C209.275 277.314 205.241 278.083 201.821 280.128C201.774 280.153 201.732 280.188 201.7 280.23C201.667 280.272 201.644 280.321 201.632 280.373C201.62 280.425 201.619 280.479 201.629 280.531C201.64 280.583 201.661 280.633 201.693 280.676C201.772 280.761 201.881 280.814 201.997 280.824C202.113 280.835 202.228 280.803 202.323 280.735C205.525 278.864 209.275 278.156 212.94 278.728H213.138Z" fill="#263238"/>
<path d="M212.578 274.726C212.66 274.709 212.736 274.673 212.801 274.62C212.866 274.567 212.918 274.5 212.951 274.423C212.967 274.373 212.972 274.32 212.965 274.268C212.958 274.217 212.941 274.167 212.913 274.122C212.885 274.078 212.848 274.04 212.804 274.012C212.761 273.983 212.711 273.964 212.659 273.956C206.884 272.79 201.412 276.103 201.191 276.29C201.142 276.312 201.098 276.346 201.063 276.387C201.028 276.428 201.003 276.477 200.988 276.529C200.974 276.581 200.971 276.636 200.98 276.689C200.988 276.742 201.009 276.793 201.039 276.838C201.117 276.925 201.225 276.98 201.341 276.992C201.457 277.005 201.574 276.975 201.669 276.908C201.669 276.908 207.013 273.676 212.368 274.773C212.44 274.77 212.511 274.754 212.578 274.726Z" fill="#263238"/>
<path d="M204.994 141.243C207.327 170.714 207.887 211.047 207.887 211.047C208.097 213.287 209.695 217.126 210.781 228.163C211.947 239.83 211.656 256.246 211.656 256.246C211.656 256.246 203.489 260.597 196.827 258.392C196.827 258.392 190.62 232.538 187.201 218.818C183.97 205.82 179.594 184.096 179.594 184.096L173.376 212.097C173.376 212.097 173.831 220.498 173.574 226.378C173.271 233.215 167.379 255.359 167.379 255.359C167.379 255.359 158.71 260.399 151.757 255.16C151.757 255.16 152.329 216.799 152.142 208.574C151.78 192.45 152.725 158.557 153.309 137.731L204.994 141.243Z" fill="#8EB26F"/>
<path opacity="0.3" d="M204.994 141.243C207.327 170.714 207.887 211.047 207.887 211.047C208.097 213.287 209.695 217.126 210.781 228.163C211.947 239.83 211.656 256.246 211.656 256.246C211.656 256.246 203.489 260.597 196.827 258.392C196.827 258.392 190.62 232.538 187.201 218.818C183.97 205.82 179.594 184.096 179.594 184.096L173.376 212.097C173.376 212.097 173.831 220.498 173.574 226.378C173.271 233.215 167.379 255.359 167.379 255.359C167.379 255.359 158.71 260.399 151.757 255.16C151.757 255.16 152.329 216.799 152.142 208.574C151.78 192.45 152.725 158.557 153.309 137.731L204.994 141.243Z" fill="black"/>
<path opacity="0.2" d="M179.595 184.096L176.013 165.056C176.013 165.056 167.846 163.889 163.739 160.214C163.739 160.214 166.423 165.079 174.065 166.981L177.495 186.056L173.388 212.051L179.595 184.096Z" fill="black"/>
<path d="M211.842 256.572C210.162 258.765 202.695 260.947 196.675 258.905L195.637 254.378C200.164 255.79 208.027 254.46 211.726 251.602L211.842 256.572Z" fill="#8EB26F"/>
<path d="M167.251 256.619C165.128 258.404 157.136 259.197 151.722 255.977L151.641 250.646C155.747 252.979 164.229 253.761 168.465 251.754L167.251 256.619Z" fill="#8EB26F"/>
<path d="M113.407 137.055C111.693 136.612 109.956 136.262 108.204 136.005C106.885 135.795 106.127 136.344 103 138.175C99.8734 140.007 99.2084 140.917 98.94 141.932C98.8246 142.378 98.8527 142.849 99.0202 143.279C99.1877 143.708 99.4863 144.074 99.8734 144.324C99.6278 144.544 99.4434 144.824 99.338 145.137C99.2327 145.45 99.2101 145.785 99.2723 146.109C99.3345 146.433 99.4795 146.735 99.6932 146.987C99.9069 147.238 100.182 147.43 100.492 147.544C100.304 147.759 100.173 148.018 100.11 148.296C100.047 148.575 100.054 148.864 100.13 149.139C100.206 149.415 100.35 149.666 100.547 149.873C100.745 150.079 100.99 150.233 101.262 150.321C101.129 150.645 101.071 150.994 101.092 151.344C101.113 151.693 101.212 152.034 101.383 152.34C101.553 152.646 101.79 152.909 102.076 153.111C102.362 153.313 102.69 153.448 103.035 153.506C104.734 153.815 106.454 153.999 108.18 154.054L113.407 137.055Z" fill="#F28F8F"/>
<path d="M120.757 276.92L93.9111 14.5507L96.1395 14.3174L122.974 276.745C123.055 277.585 120.827 277.771 120.757 276.92Z" fill="#455A64"/>
<path d="M108.181 153.995C108.811 153.995 109.593 152.945 110.164 152.268C110.736 151.592 111.471 150.752 111.401 150.18C111.296 149.375 110.153 149.387 110.153 149.387C110.355 149.237 110.539 149.065 110.701 148.873C111.401 148.162 110.083 147.252 108.939 147.707C108.939 147.707 109.429 147.403 109.429 147.077C109.418 146.877 109.366 146.681 109.276 146.502C109.187 146.322 109.062 146.163 108.91 146.033C108.757 145.903 108.579 145.806 108.388 145.746C108.197 145.687 107.995 145.667 107.796 145.688C108.601 145.257 108.286 144.113 107.714 143.238C107.504 143.227 107.294 143.227 107.084 143.238C106.48 146.857 106.859 150.572 108.181 153.995Z" fill="#F28F8F"/>
<path d="M101.262 150.262C102.025 150.513 102.805 150.712 103.595 150.857C104.366 151.024 105.145 151.153 105.929 151.242C106.706 151.293 107.477 151.084 108.122 150.647C108.814 150.258 109.491 149.838 110.152 149.387C109.557 149.928 108.912 150.412 108.227 150.833C107.554 151.331 106.729 151.579 105.894 151.533C105.107 151.428 104.328 151.276 103.56 151.078C102.765 150.896 101.994 150.622 101.262 150.262Z" fill="#B16668"/>
<path d="M108.939 147.707C108.295 148.064 107.628 148.38 106.944 148.652C106.577 148.814 106.178 148.894 105.777 148.886C105.408 148.844 105.041 148.778 104.68 148.687C103.249 148.375 101.835 147.985 100.445 147.521C101.892 147.766 103.315 148.127 104.739 148.442C105.088 148.533 105.443 148.604 105.8 148.652C106.15 148.649 106.496 148.59 106.827 148.477C107.562 148.232 108.239 147.952 108.939 147.707Z" fill="#B16668"/>
<path d="M107.796 145.688C107.174 146.015 106.48 146.183 105.778 146.178C105.088 146.07 104.408 145.902 103.747 145.676C102.441 145.256 101.134 144.813 99.874 144.265C101.216 144.58 102.522 145.011 103.841 145.431C104.483 145.652 105.137 145.835 105.801 145.98C106.479 146.014 107.156 145.915 107.796 145.688Z" fill="#B16668"/>
<path d="M97.4583 14.632C97.4048 15.118 97.2084 15.5773 96.8939 15.9517C96.5795 16.3262 96.1611 16.599 95.6917 16.7358C95.2223 16.8726 94.7229 16.8671 94.2565 16.7202C93.7902 16.5733 93.3778 16.2914 93.0716 15.9103C92.7654 15.5291 92.579 15.0657 92.536 14.5787C92.4929 14.0916 92.5953 13.6027 92.83 13.1738C93.0647 12.7449 93.4213 12.3951 93.8546 12.1688C94.288 11.9424 94.7788 11.8495 95.2649 11.9019C95.589 11.9353 95.9031 12.0327 96.1893 12.1884C96.4754 12.344 96.7278 12.555 96.9318 12.8089C97.1358 13.0628 97.2874 13.3547 97.3778 13.6677C97.4682 13.9807 97.4955 14.3084 97.4583 14.632Z" fill="#37474F"/>
<path d="M96.9101 9.98882C96.9859 10.6417 96.7993 11.298 96.3912 11.8133C95.9831 12.3285 95.3871 12.6606 94.7342 12.7364C94.0813 12.8122 93.4251 12.6256 92.9098 12.2175C92.3945 11.8094 92.0624 11.2134 91.9866 10.5605C91.5783 7.06038 93.5383 2.39355 93.5383 2.39355C93.5383 2.39355 96.5018 6.50036 96.9101 9.98882Z" fill="#37474F"/>
<path d="M94.1335 16.6621C80.133 37.3945 56.5422 31.2343 37.7116 32.051C17.3059 32.926 5.65047 40.7546 0.376953 50.2749C6.07048 48.1165 22.6494 47.9415 28.2729 51.6516C28.2729 51.6516 9.01058 67.2972 11.274 89.4179C16.3142 79.4193 26.0445 71.2873 46.7069 73.3524C64.9075 75.2191 88.2533 81.0527 99.1737 66.0488L94.1335 16.6621Z" fill="#8EB26F"/>
<path opacity="0.1" d="M79.492 68.1255C63.6714 74.7641 16.9098 57.6252 11.3213 89.4179C16.3615 79.4193 26.0918 71.2873 46.7542 73.3524C64.9081 75.2191 88.2539 81.0527 99.1743 66.0488L94.1341 16.6621C96.0709 36.1111 95.3125 61.487 79.492 68.1255Z" fill="black"/>
<path opacity="0.7" d="M59.6572 39.273L63.3207 47.4399L72.316 47.72C72.4355 47.7223 72.5514 47.7606 72.6489 47.8298C72.7463 47.899 72.8206 47.9959 72.8622 48.108C72.9037 48.22 72.9106 48.342 72.8818 48.458C72.8531 48.574 72.79 48.6786 72.701 48.7583L66.0274 54.7902L68.5358 63.4238C68.5722 63.5391 68.5726 63.6628 68.5369 63.7783C68.5013 63.8938 68.4313 63.9957 68.3363 64.0705C68.2413 64.1452 68.1257 64.1893 68.005 64.1967C67.8844 64.2042 67.7643 64.1747 67.6608 64.1122L59.8672 59.632L52.4586 64.7189C52.3584 64.783 52.2415 64.8162 52.1225 64.8143C52.0035 64.8125 51.8877 64.7757 51.7895 64.7086C51.6913 64.6414 51.6149 64.5469 51.57 64.4367C51.5251 64.3265 51.5136 64.2055 51.5369 64.0888L53.392 55.2919L46.2867 49.785C46.1887 49.7134 46.115 49.6134 46.0755 49.4987C46.0359 49.3839 46.0324 49.2598 46.0654 49.1429C46.0984 49.0261 46.1664 48.9222 46.2602 48.8451C46.354 48.768 46.4691 48.7214 46.5901 48.7117L55.5271 47.755L58.5722 39.2963C58.6204 39.1945 58.696 39.1081 58.7905 39.0468C58.8851 38.9855 58.9948 38.9518 59.1075 38.9494C59.2201 38.9469 59.3312 38.9759 59.4283 39.0331C59.5254 39.0903 59.6047 39.1733 59.6572 39.273Z" fill="white"/>
<path d="M135.832 141.593C135.832 141.593 127.665 145.199 122.391 147.555C118.378 149.364 118.343 149.97 117.048 151.405C115.753 152.841 110.397 153.576 110.397 153.576L110.246 152.164C110.806 151.499 111.413 150.729 111.413 150.18C111.319 149.375 110.187 149.387 110.187 149.387C110.385 149.236 110.568 149.068 110.736 148.885C111.249 148.337 110.631 147.719 109.814 147.59L109.627 145.887C109.059 145.34 108.561 144.725 108.146 144.055C107.987 143.799 107.85 143.53 107.737 143.25C106.56 143.262 105.41 143.61 104.424 144.254C103.771 145.537 102.744 147.112 100.924 147.17C99.4421 147.17 99.4188 146.529 100.095 144.989C100.607 143.527 101.263 142.119 102.056 140.788C102.802 139.703 106.967 137.872 108.274 137.288C109.581 136.705 110.607 136.717 113.104 136.973C114.581 137.23 116.1 137.056 117.479 136.472C118.646 136.075 124.865 132.271 124.865 132.271L135.832 141.593Z" fill="#FFA8A7"/>
<path d="M109.615 145.887C110.957 147.578 113.99 148.313 116.3 148.127C114.152 148.706 111.875 148.584 109.802 147.777L109.615 145.887Z" fill="#F28F8F"/>
<path d="M160.753 84.9971C150.917 87.5872 149.494 91.344 144.944 104.388C140.919 116.055 138.749 122.647 138.749 122.647L122.111 133.789C122.111 133.789 125.611 136.18 126.475 145.817C126.475 145.817 135.622 141.862 144.314 138.164C149.342 136.029 150.497 134.5 152.796 129.157C155.421 123.055 160.671 110.151 160.671 110.151L160.753 84.9971Z" fill="#37474F"/>
<path d="M198.227 75.0681C202.474 71.848 206.126 79.4783 207.561 84.9151C208.996 90.352 208.553 97.5155 205.356 110.746C204.621 113.733 204.014 120.546 204.504 129.273C205.017 138.409 205.122 142.935 205.589 149.481C205.589 149.481 194.179 157.729 173.26 155.769C156.821 154.217 152.947 146.681 152.947 146.681C152.947 146.681 153.227 122.728 153.881 110.606C154.744 94.6804 157.159 87.7152 160.753 84.9384C160.753 84.9384 168.138 82.5234 179.198 80.0149C189.418 77.7399 193.829 78.3932 198.227 75.0681Z" fill="#455A64"/>
<path d="M166.505 46.9736C165.624 47.2112 164.815 47.6623 164.149 48.287C163.484 48.9117 162.983 49.6909 162.69 50.5554C162.002 52.1655 161.628 55.0472 164.452 62.9809C165.535 66.0717 167.076 68.9821 169.025 71.6145C169.595 72.4741 170.479 73.0769 171.487 73.2945L170.857 67.0527L170.297 62.7358C170.297 62.7358 173.552 59.2357 173.622 56.1556C173.763 53.9648 173.181 51.7883 171.965 49.9604L166.505 46.9736Z" fill="#37474F"/>
<path d="M165.665 47.2185C166.015 43.7184 170.134 39.1682 178.662 38.0715C185.662 37.1732 189.933 39.2382 192.663 43.17C195.393 47.1018 194.203 52.5037 194.203 52.5037L172.035 52.7137L165.665 47.2185Z" fill="#37474F"/>
<path d="M165.303 69.3861C168.652 70.7044 169.97 68.0443 169.97 68.0443L171.218 82.4182C165.817 90.6668 178.417 92.7202 186.502 82.4882C187.08 81.766 187.37 80.8563 187.319 79.9331L187.062 75.8029C187.994 75.708 188.918 75.5481 189.827 75.3246C192.651 74.6596 194.273 72.2562 194.891 69.0944C195.962 62.21 195.37 55.1693 193.164 48.5603C192.969 47.8951 192.621 47.2844 192.15 46.7763C191.678 46.2681 191.095 45.8764 190.446 45.6319C187.039 44.4652 184.099 47.0786 179.607 49.2254C177.694 50.1471 172.922 50.8471 171.615 50.3921C173.412 52.1071 173.4 57.859 171.837 60.3674C171.438 61.0099 170.973 61.6082 170.448 62.1525C169.48 63.1442 168.442 60.8691 167.497 60.0057C167.043 59.6805 166.52 59.465 165.969 59.3763C165.418 59.2875 164.854 59.3278 164.322 59.494C163.789 59.6603 163.302 59.948 162.9 60.3344C162.497 60.7208 162.189 61.1954 162.001 61.7208C161.706 62.4399 161.556 63.2109 161.563 63.9884C161.569 64.766 161.731 65.5345 162.038 66.2486C162.346 66.9628 162.793 67.6082 163.354 68.147C163.915 68.6858 164.577 69.1071 165.303 69.3861Z" fill="#FFA8A7"/>
<path d="M187.016 75.756C183.868 76.0882 180.686 75.8471 177.624 75.0443C175.29 74.2743 173.155 71.4275 172.292 68.5107C172.467 70.8442 173.832 75.056 177.321 76.561C180.809 78.0661 184.717 77.8677 187.168 77.7277L187.016 75.756Z" fill="#F28F8F"/>
<path d="M179.899 53.6006L177.332 55.934C177.022 55.575 176.865 55.1083 176.895 54.6347C176.926 54.161 177.141 53.7184 177.495 53.4023C177.665 53.2543 177.862 53.1418 178.076 53.0715C178.289 53.0012 178.515 52.9745 178.739 52.993C178.963 53.0115 179.181 53.0748 179.381 53.1792C179.58 53.2835 179.756 53.4269 179.899 53.6006Z" fill="#37474F"/>
<path d="M191.729 53.1106L188.404 52.1772C188.554 51.741 188.864 51.378 189.271 51.1614C189.678 50.9449 190.152 50.8909 190.598 51.0105C191.024 51.1427 191.381 51.4367 191.593 51.8294C191.804 52.222 191.853 52.6821 191.729 53.1106Z" fill="#37474F"/>
<path d="M178.732 58.0105C178.762 58.2885 178.873 58.5514 179.052 58.7661C179.231 58.9807 179.47 59.1374 179.738 59.2163C180.006 59.2951 180.292 59.2926 180.558 59.209C180.825 59.1255 181.061 58.9646 181.236 58.7468C181.411 58.5291 181.518 58.2642 181.543 57.9857C181.567 57.7073 181.508 57.4279 181.374 57.1828C181.24 56.9378 181.035 56.7382 180.787 56.6093C180.539 56.4804 180.259 56.428 179.981 56.4588C179.61 56.4999 179.27 56.6862 179.036 56.977C178.802 57.2678 178.693 57.6394 178.732 58.0105Z" fill="#263238"/>
<path d="M189.046 56.3421C189.075 56.6188 189.184 56.8808 189.361 57.0954C189.538 57.3099 189.775 57.4674 190.041 57.548C190.307 57.6286 190.592 57.6288 190.858 57.5485C191.124 57.4682 191.361 57.311 191.538 57.0966C191.715 56.8822 191.825 56.6203 191.854 56.3436C191.883 56.067 191.83 55.7879 191.701 55.5415C191.572 55.2952 191.372 55.0924 191.129 54.9588C190.885 54.8251 190.607 54.7665 190.329 54.7903C190.136 54.786 189.944 54.8257 189.767 54.9062C189.591 54.9868 189.435 55.1062 189.312 55.2555C189.189 55.4048 189.1 55.5801 189.054 55.7683C189.008 55.9564 189.005 56.1526 189.046 56.3421Z" fill="#263238"/>
<path d="M183.761 54.8135L185.581 63.6455L190.166 61.5454C188.56 58.8513 186.372 56.551 183.761 54.8135Z" fill="#F28F8F"/>
<path d="M182.162 65.8857L185.896 66.8191C185.847 67.0727 185.746 67.3134 185.6 67.5264C185.454 67.7393 185.266 67.9199 185.047 68.0567C184.828 68.1936 184.583 68.2838 184.327 68.3218C184.072 68.3598 183.812 68.3447 183.562 68.2775C183.068 68.1329 182.647 67.8046 182.387 67.3599C182.127 66.9152 182.046 66.3878 182.162 65.8857Z" fill="#B16668"/>
<path d="M182.605 66.5277C182.45 66.5103 182.294 66.5103 182.139 66.5277C182.169 66.9395 182.326 67.3317 182.59 67.6496C182.853 67.9675 183.21 68.1953 183.609 68.301C183.809 68.3352 184.015 68.3352 184.215 68.301C184.223 67.8562 184.06 67.4252 183.761 67.0957C183.462 66.7663 183.049 66.5632 182.605 66.5277Z" fill="#F28F8F"/>
<path d="M228.328 0.46875C228.683 0.534395 229.017 0.681228 229.305 0.897739C229.593 1.11425 229.827 1.39455 229.989 1.71667C230.151 2.03878 230.235 2.39396 230.237 2.75435C230.238 3.11474 230.156 3.47054 229.997 3.79386C231.443 2.25381 231.899 1.88047 233.205 2.8255C234.092 3.45552 233.812 4.92557 233.812 4.92557C234.081 4.67879 234.433 4.54187 234.798 4.54187C235.163 4.54187 235.515 4.67879 235.784 4.92557C236.07 5.1601 236.283 5.47114 236.398 5.82235C236.514 6.17356 236.528 6.55045 236.437 6.90897C236.437 6.90897 237.172 6.33729 237.977 7.28232C238.288 7.64683 238.516 8.07461 238.645 8.53597C238.774 8.99734 238.801 9.48123 238.724 9.95407L237.849 9.49906C237.693 9.77959 237.473 10.0194 237.207 10.1991C236.66 10.8482 236.244 11.597 235.982 12.4042C235.632 13.2442 235.317 14.2709 234.454 14.3992C234.292 14.448 234.122 14.4613 233.955 14.4381C233.788 14.4149 233.628 14.3558 233.487 14.2649C233.345 14.174 233.224 14.0534 233.133 13.9114C233.042 13.7694 232.983 13.6095 232.96 13.4425C232.961 13.0748 233.016 12.7092 233.124 12.3575C233.124 12.3575 232.529 13.5942 231.385 13.2909C230.242 12.9875 230.347 11.9258 230.37 11.2491C229.658 11.4475 228.923 11.5641 228.597 11.0041C228.42 10.0691 228.396 9.11158 228.527 8.16902L226.672 7.55066C226.672 7.55066 225.003 7.17731 225.108 5.92894C225.33 3.68886 227.185 0.550419 228.328 0.46875Z" fill="#FFA8A7"/>
<path d="M222.262 22.2625C222.341 20.458 222.039 18.657 221.375 16.9773C220.757 15.0489 220.81 12.9679 221.527 11.0738C221.982 9.081 222.655 7.14431 223.533 5.29858C224.146 4.73057 224.913 4.35702 225.738 4.22521C226.38 4.08378 227.045 4.08378 227.687 4.22521L230.697 6.87364C230.697 6.87364 230.569 7.92367 229.775 8.15701C229.355 8.29424 228.901 8.29424 228.48 8.15701C228.48 8.15701 228.189 10.2571 228.62 10.7354C229.052 11.2138 229.39 11.3771 230.23 10.8054C230.23 11.5871 230.289 12.8005 231.199 13.0222C232.109 13.2439 233.124 12.2405 233.124 12.2405C233.124 12.2405 233.124 14.3289 233.777 14.4456C234.43 14.5622 236.857 8.11034 236.857 8.11034L238.724 9.83707C238.211 11.5638 236.729 16.9423 235.772 19.0424C234.562 21.1291 233.858 23.4709 233.719 25.8793C233.427 29.5661 232.05 51.6402 232.05 51.6402L218.948 47.195C218.948 47.195 222.157 24.1292 222.262 22.2625Z" fill="#FFA8A7"/>
<path d="M224.934 8.85774C226.193 9.55274 227.332 10.4471 228.305 11.5062C229.515 12.8782 230.464 14.4598 231.105 16.173C230.927 14.5514 230.324 13.0058 229.355 11.6928C229.61 11.6904 229.859 11.622 230.079 11.4945C229.974 12.4745 230.079 13.4079 231.245 13.5479C231.518 13.6037 231.801 13.5867 232.065 13.4987C232.329 13.4106 232.566 13.2546 232.751 13.0462C232.7 13.3089 232.729 13.5808 232.835 13.8264C232.942 14.0721 233.119 14.2799 233.346 14.4229C233.592 14.5977 233.893 14.6775 234.193 14.6475C234.493 14.6175 234.772 14.4797 234.979 14.2596C235.059 14.162 235.13 14.0565 235.189 13.9446C235.195 13.9256 235.195 13.9052 235.189 13.8862L235.037 14.0029C234.864 14.1503 234.659 14.2537 234.437 14.3045C234.216 14.3553 233.985 14.3519 233.766 14.2946C233.626 14.1932 233.511 14.0621 233.428 13.9108C233.345 13.7595 233.297 13.5917 233.287 13.4196C233.266 12.8795 233.333 12.3396 233.486 11.8212V11.7628C233.486 11.7045 233.381 11.7628 233.334 11.7628C233.101 11.9845 232.926 12.2529 232.704 12.4862C232.557 12.6436 232.374 12.763 232.171 12.8341C231.968 12.9053 231.75 12.926 231.537 12.8945C230.662 12.7895 230.569 11.7278 230.674 10.9928C230.674 10.7595 230.744 10.5261 230.779 10.2928V10.2111C230.648 10.2911 230.537 10.3986 230.452 10.5261C230.349 10.6564 230.227 10.7705 230.09 10.8645C229.926 11.0048 229.722 11.0905 229.507 11.1095C229.04 11.1095 228.889 10.7011 228.772 10.3278C228.582 9.70749 228.553 9.04868 228.69 8.41439H228.854C230.522 8.82274 231.28 7.24769 230.79 6.73434C229.83 5.75115 228.766 4.8749 227.617 4.12091C227.005 4.03126 226.381 4.07101 225.785 4.23758L227.5 4.34259C227.5 4.34259 230.569 6.81601 230.487 7.20102C230.417 7.49783 230.234 7.75559 229.977 7.91913C229.72 8.08266 229.409 8.13899 229.11 8.07605C228.275 7.9293 227.46 7.68252 226.684 7.34102C226.497 7.98271 224.934 8.85774 224.934 8.85774ZM226.03 8.35606C226.296 8.24942 226.52 8.06154 226.672 7.81937C226.672 7.81937 227.057 7.95938 228.34 8.28606C228.182 8.54441 228.042 8.81339 227.92 9.09108C227.84 9.23808 227.738 9.37187 227.617 9.48776C227.581 9.51532 227.542 9.53879 227.5 9.55777C227.043 9.11861 226.552 8.71676 226.03 8.35606Z" fill="#F28F8F"/>
<path d="M198.227 75.0684C201.961 70.4015 205.088 68.9081 206.978 66.5514C210.07 62.7129 216.731 52.3526 216.731 52.3526L221.013 30.3135C222.18 34.2219 230.79 37.4421 233.229 35.4703C233.229 35.4703 233.007 43.2173 232.12 56.3427C231.805 61.0095 231.642 61.8496 225.61 70.7515C222.763 74.9517 219.893 79.4902 215.331 86.5137C212.03 91.5889 209.043 96.3024 207.398 101.331C206.954 103.466 202.486 103.419 199.476 96.5591C196.162 88.9988 197.597 77.6934 198.227 75.0684Z" fill="#37474F"/>
</svg>
