<svg width="23" height="25" viewBox="0 0 23 25" fill="none" xmlns="http://www.w3.org/2000/svg">
<path d="M4.30369 21.8994L3.08083 23.781C2.84414 24.1478 2.94671 24.637 3.31357 24.8737C3.44769 24.9604 3.59368 24.9999 3.74354 24.9999C4.00389 24.9999 4.25639 24.8737 4.40626 24.6409L5.60152 22.8027C7.3135 23.8204 9.30955 24.4082 11.4397 24.4082C13.5738 24.4082 15.5698 23.8204 17.2779 22.7988L18.4692 24.637C18.6191 24.8698 18.8756 24.996 19.132 24.996C19.2779 24.996 19.4278 24.9565 19.5619 24.8698C19.9288 24.6331 20.0314 24.144 19.7947 23.7771L18.5758 21.8955C21.1951 19.8008 22.8794 16.578 22.8794 12.9685C22.8794 6.66089 17.7474 1.52881 11.4397 1.52881C5.13208 1.52881 0 6.66082 0 12.9685C0 16.5779 1.68439 19.8007 4.30369 21.8994V21.8994ZM11.4397 3.10661C16.8795 3.10661 21.3016 7.52868 21.3016 12.9685C21.3016 18.4083 16.8795 22.8303 11.4397 22.8303C5.99993 22.8303 1.57787 18.4083 1.57787 12.9685C1.57787 7.52868 5.99993 3.10661 11.4397 3.10661V3.10661Z" fill="black"/>
<path d="M14.0744 16.3256C14.2243 16.4558 14.4097 16.5189 14.5951 16.5189C14.816 16.5189 15.033 16.4282 15.1908 16.2506C15.4787 15.9232 15.4432 15.4262 15.1158 15.1383L12.2283 12.6097V6.26257C12.2283 5.82864 11.8732 5.47363 11.4393 5.47363C11.0054 5.47363 10.6504 5.82864 10.6504 6.26257V12.9686C10.6504 13.1974 10.749 13.4144 10.9186 13.5643L14.0744 16.3256Z" fill="black"/>
<path d="M1.57803 4.10476C1.78317 4.10476 1.98831 4.02584 2.14213 3.86807C3.081 2.9095 4.14608 2.10871 5.30188 1.48546C5.68449 1.28032 5.83047 0.803046 5.62533 0.416419C5.42019 0.0338106 4.94292 -0.112171 4.55629 0.0929674C3.25458 0.791189 2.06327 1.68664 1.01005 2.76359C0.706291 3.07525 0.710244 3.57617 1.0219 3.87992C1.17961 4.02986 1.3808 4.10476 1.57803 4.10476V4.10476Z" fill="black"/>
<path d="M17.5777 1.48539C18.7374 2.10469 19.7986 2.90944 20.7374 3.868C20.8913 4.02577 21.0964 4.10469 21.3015 4.10469C21.4988 4.10469 21.7 4.02973 21.8538 3.87986C22.1654 3.5761 22.1693 3.07512 21.8656 2.76352C20.8164 1.69053 19.6211 0.791123 18.3193 0.0929674C17.9328 -0.112171 17.4554 0.0338106 17.2503 0.416419C17.0491 0.802981 17.1911 1.28025 17.5777 1.48539V1.48539Z" fill="black"/>
</svg>
