<svg width="17" height="21" viewBox="0 0 17 21" fill="none" xmlns="http://www.w3.org/2000/svg">
<path d="M0.625 1.26C0.625 0.564045 1.18904 0 1.885 0H11.125L16.375 4.40999V19.74C16.375 20.436 15.811 21 15.115 21H1.885C1.18904 21 0.625 20.436 0.625 19.74V1.26Z" fill="#8EB26F"/>
<path d="M11.125 0V3.14999C11.125 3.84595 11.689 4.4103 12.385 4.4103H16.375" fill="#6F8C55"/>
<path d="M5.87586 11.2934C5.6265 11.09 5.36398 10.965 5.01617 10.965C4.39273 10.965 3.94618 11.4312 3.94618 12.5406C3.94618 13.63 4.3665 14.0959 4.99029 14.0959C5.43619 14.0959 5.71871 13.9118 5.97465 13.7153L6.46684 14.3453C6.13215 14.6668 5.63962 14.9362 4.91777 14.9362C3.66435 14.9362 2.81055 14.1025 2.81055 12.5406C2.81055 11.0174 3.72305 10.1577 4.93747 10.1577C5.59373 10.1577 6.02686 10.3546 6.40748 10.663L5.87586 11.2934Z" fill="white"/>
<path d="M8.42164 14.9362C7.59442 14.9362 6.9779 14.6478 6.60352 14.2799L7.15475 13.67C7.48978 13.9653 7.89664 14.1293 8.38228 14.1293C8.82854 14.1293 9.13041 13.9256 9.13041 13.5775C9.13041 13.2493 8.9401 13.1053 8.31007 12.9077C7.26631 12.5796 6.86599 12.1662 6.86599 11.4837C6.86599 10.643 7.64035 10.1577 8.58571 10.1577C9.27509 10.1577 9.8129 10.3743 10.207 10.7483L9.6948 11.3396C9.38635 11.0834 9.02508 10.9584 8.67074 10.9584C8.26388 10.9584 7.99413 11.1096 7.99413 11.3987C7.99413 11.6874 8.1979 11.7993 8.89351 12.0221C9.76008 12.304 10.2654 12.6584 10.2654 13.4921C10.266 14.3452 9.57073 14.9362 8.42164 14.9362Z" fill="white"/>
<path d="M12.4389 13.9186H12.4717L13.3055 10.2754H14.4211L13.1152 14.8245H11.7629L10.4629 10.2754H11.6182L12.4389 13.9186Z" fill="white"/>
</svg>
