<svg width="18" height="18" viewBox="0 0 18 18" fill="none" xmlns="http://www.w3.org/2000/svg">
<path d="M7.65 16.11V1.89C7.65 0.54 7.074 0 5.643 0H2.007C0.576 0 0 0.54 0 1.89V16.11C0 17.46 0.576 18 2.007 18H5.643C7.074 18 7.65 17.46 7.65 16.11Z" fill="black"/>
<path d="M17.1002 15.8759V12.0239C17.1002 10.8539 16.2002 9.8999 15.0932 9.8999H11.4572C10.3502 9.8999 9.4502 10.8539 9.4502 12.0239V15.8759C9.4502 17.0459 10.3502 17.9999 11.4572 17.9999H15.0932C16.2002 17.9999 17.1002 17.0459 17.1002 15.8759Z" fill="black"/>
<path d="M17.1002 5.976V2.124C17.1002 0.954 16.2002 0 15.0932 0H11.4572C10.3502 0 9.4502 0.954 9.4502 2.124V5.976C9.4502 7.146 10.3502 8.1 11.4572 8.1H15.0932C16.2002 8.1 17.1002 7.146 17.1002 5.976Z" fill="black"/>
</svg>
