<svg width="14" height="15" viewBox="0 0 14 15" fill="none" xmlns="http://www.w3.org/2000/svg">
<path d="M0.914062 4.39453L1.69245 13.7911C1.74823 14.4687 2.32544 15 3.00565 15H10.1777C10.8579 15 11.4351 14.4687 11.4909 13.7911L12.2692 4.39453H0.914062ZM4.39397 13.2422C4.16394 13.2422 3.9704 13.0632 3.95581 12.8302L3.51636 5.74034C3.50133 5.49788 3.68543 5.28932 3.92748 5.27429C4.17853 5.25668 4.3781 5.44295 4.39353 5.68541L4.83299 12.7753C4.84854 13.0263 4.64988 13.2422 4.39397 13.2422ZM7.0311 12.8027C7.0311 13.0456 6.83455 13.2422 6.59165 13.2422C6.34875 13.2422 6.1522 13.0456 6.1522 12.8027V5.71289C6.1522 5.46999 6.34875 5.27344 6.59165 5.27344C6.83455 5.27344 7.0311 5.46999 7.0311 5.71289V12.8027ZM9.66694 5.74037L9.22749 12.8302C9.21305 13.0609 9.02077 13.2531 8.76144 13.2413C8.51938 13.2263 8.33528 13.0177 8.35031 12.7753L8.78976 5.68544C8.80479 5.44298 9.01723 5.26658 9.25582 5.27432C9.49787 5.28935 9.68197 5.49791 9.66694 5.74037Z" fill="black"/>
<path d="M12.3047 1.75781H9.66797V1.31836C9.66797 0.591387 9.07658 0 8.34961 0H4.83398C4.10701 0 3.51562 0.591387 3.51562 1.31836V1.75781H0.878906C0.393486 1.75781 0 2.1513 0 2.63672C0 3.12208 0.393486 3.51562 0.878906 3.51562C4.92088 3.51562 8.26286 3.51562 12.3047 3.51562C12.7901 3.51562 13.1836 3.12208 13.1836 2.63672C13.1836 2.1513 12.7901 1.75781 12.3047 1.75781ZM8.78906 1.75781H4.39453V1.31836C4.39453 1.0759 4.59152 0.878906 4.83398 0.878906H8.34961C8.59207 0.878906 8.78906 1.0759 8.78906 1.31836V1.75781Z" fill="black"/>
</svg>
