<svg width="19" height="19" viewBox="0 0 19 19" fill="none" xmlns="http://www.w3.org/2000/svg">
<path fill-rule="evenodd" clip-rule="evenodd" d="M13.2646 1.40613H5.69414C3.05864 1.40613 1.40576 3.27338 1.40576 5.91588V13.0436C1.40576 15.6861 3.05164 17.5534 5.69414 17.5534H13.2603C15.9071 17.5534 17.5521 15.6861 17.5521 13.0436V5.91588C17.5556 3.27338 15.9098 1.40613 13.2646 1.40613Z" stroke="black" stroke-linecap="round" stroke-linejoin="round"/>
<path fill-rule="evenodd" clip-rule="evenodd" d="M8.36478 6.6869C8.36478 7.5794 7.64203 8.30215 6.74953 8.30215C5.8579 8.30215 5.13428 7.5794 5.13428 6.6869C5.13428 5.79441 5.8579 5.07166 6.74953 5.07166C7.64115 5.07253 8.3639 5.79528 8.36478 6.6869Z" stroke="black" stroke-linecap="round" stroke-linejoin="round"/>
<path d="M17.5561 12.0822C16.7485 11.2509 15.1954 9.57178 13.5066 9.57178C11.817 9.57178 10.8431 13.2757 9.21825 13.2757C7.59337 13.2757 6.11725 11.6009 4.81525 12.6745C3.51325 13.7473 2.28125 15.9409 2.28125 15.9409" stroke="black" stroke-linecap="round" stroke-linejoin="round"/>
</svg>
