<svg width="17" height="16" viewBox="0 0 17 16" fill="none" xmlns="http://www.w3.org/2000/svg">
<g clip-path="url(#clip0_1_16774)">
<path d="M16.5536 8.18417C16.5536 7.64035 16.5096 7.09359 16.4155 6.55859H8.86963V9.63925H13.1908C13.0115 10.6328 12.4353 11.5117 11.5917 12.0703V14.0692H14.1697C15.6835 12.6758 16.5536 10.6181 16.5536 8.18417Z" fill="#4285F4"/>
<path d="M8.87019 16.0007C11.0278 16.0007 12.8474 15.2923 14.1731 14.0694L11.5952 12.0705C10.8779 12.5585 9.95195 12.8348 8.87313 12.8348C6.78605 12.8348 5.01643 11.4268 4.38149 9.53369H1.72119V11.5943C3.07927 14.2958 5.84539 16.0007 8.87019 16.0007Z" fill="#34A853"/>
<path d="M4.37799 9.53331C4.04288 8.53974 4.04288 7.46387 4.37799 6.4703V4.40967H1.72063C0.585962 6.67019 0.585962 9.33342 1.72063 11.5939L4.37799 9.53331Z" fill="#FBBC04"/>
<path d="M8.87019 3.16644C10.0107 3.1488 11.1131 3.57798 11.9391 4.36578L14.2231 2.08174C12.7769 0.72367 10.8573 -0.0229773 8.87019 0.000539111C5.84539 0.000539111 3.07927 1.70548 1.72119 4.40987L4.37855 6.4705C5.01055 4.57449 6.78311 3.16644 8.87019 3.16644Z" fill="#EA4335"/>
</g>
<defs>
<clipPath id="clip0_1_16774">
<rect width="16" height="16" fill="white" transform="translate(0.709473)"/>
</clipPath>
</defs>
</svg>
