<svg width="19" height="18" viewBox="0 0 19 18" fill="none" xmlns="http://www.w3.org/2000/svg">
<path d="M10.953 16.7287C10.7067 16.8329 10.4415 16.9276 10.1574 17.0224L8.66085 17.5149C4.90062 18.7272 2.92106 17.7138 1.69922 13.9536L0.486853 10.2123C-0.725513 6.45203 0.278477 4.463 4.03871 3.25063L5.49734 2.76758C5.31737 3.22222 5.16583 3.74315 5.02375 4.33039L4.09554 8.299C3.05366 12.7601 4.57859 15.2227 9.03972 16.2836L10.6309 16.6624C10.7351 16.6908 10.8488 16.7098 10.953 16.7287Z" fill="black"/>
<path d="M14.3816 0.671105L12.7999 0.301712C9.63636 -0.446546 7.75151 0.169109 6.64333 2.46124C6.35918 3.03901 6.13186 3.73991 5.94243 4.54499L5.01421 8.5136C4.08599 12.4727 5.30783 14.4239 9.25749 15.3616L10.8487 15.7404C11.3981 15.873 11.9095 15.9583 12.3831 15.9962C15.3383 16.2803 16.9106 14.8975 17.7062 11.4782L18.6344 7.51908C19.5626 3.55995 18.3502 1.59932 14.3816 0.671105Z" fill="black"/>
</svg>
