<svg width="35" height="51" viewBox="0 0 35 51" fill="none" xmlns="http://www.w3.org/2000/svg">
<path d="M7.31859 35.6043L6.08281 32.8819C5.40264 31.3829 5.05074 29.7555 5.05078 28.1091V18.9482H23.3463L26.6728 26.4435V35.6043" fill="#D08D78"/>
<path d="M23.0286 27.5385C23.1077 27.5214 23.1798 27.4809 23.2356 27.4223C23.2913 27.3636 23.3282 27.2895 23.3414 27.2096C23.3546 27.1297 23.3434 27.0476 23.3095 26.9741C23.2755 26.9006 23.2202 26.839 23.1509 26.7974L22.9954 26.7032C22.6575 27.2512 22.1504 27.6738 21.551 27.9071C20.9516 28.1403 20.2926 28.1714 19.674 27.9957C19.0553 27.8199 18.5108 27.4469 18.123 26.9332C17.7352 26.4196 17.5252 25.7932 17.525 25.1492C17.525 25.1351 17.525 25.1201 17.525 25.1051C16.9926 25.4343 16.3794 25.6093 15.7537 25.6106C15.5103 25.6079 15.2678 25.58 15.0302 25.5273C15.0221 26.4347 14.6568 27.3023 14.0137 27.9416C13.3707 28.5809 12.5017 28.9403 11.5956 28.9418C10.9795 28.9391 10.3744 28.7784 9.83793 28.475C9.30147 28.1716 8.85156 27.7357 8.53109 27.2088L5.05078 21.3975V28.109C5.05074 29.7555 5.40264 31.3829 6.08281 32.8818L7.31859 35.6042H15.8535L15.8701 35.486C16.1347 33.597 16.9579 31.8306 18.2337 30.4142C19.5095 28.9978 21.1795 27.9963 23.0286 27.5385Z" fill="#F2B9A1"/>
<path d="M15.0303 20.6142V3.12536C15.0303 2.46274 15.2931 1.82726 15.761 1.35872C16.2289 0.890178 16.8634 0.626953 17.5251 0.626953C18.1868 0.626953 18.8214 0.890178 19.2892 1.35872C19.7571 1.82726 20.02 2.46274 20.02 3.12536V20.6142" fill="#D08D78"/>
<path d="M13.8244 24.162C14.0721 24.565 14.2018 25.0296 14.1987 25.5028C14.1962 26.1934 13.9212 26.855 13.4336 27.3433C12.946 27.8317 12.2853 28.1071 11.5957 28.1095C11.1221 28.1088 10.6567 27.9858 10.2444 27.7524C9.83215 27.519 9.48697 27.183 9.24223 26.777L5.34196 20.2645C5.07127 19.813 4.98504 19.2744 5.10124 18.7608C5.21744 18.2472 5.5271 17.7984 5.96567 17.5079L7.0634 16.775C7.37701 16.5609 7.74833 16.4476 8.12787 16.4502C8.45833 16.4498 8.7832 16.5356 9.07048 16.6991C9.35776 16.8627 9.59752 17.0984 9.76615 17.383L13.8244 24.162Z" fill="#D08D78"/>
<path d="M9.76549 17.383C9.59686 17.0984 9.3571 16.8627 9.06982 16.6991C8.78254 16.5356 8.45767 16.4498 8.12721 16.4502C7.74767 16.4476 7.37635 16.5609 7.06274 16.775L6.13965 17.3913C5.96511 17.7042 5.87626 18.0577 5.88211 18.416C5.88795 18.7743 5.98827 19.1247 6.17291 19.4317L10.0732 25.9442C10.3179 26.3502 10.6631 26.6862 11.0754 26.9196C11.4876 27.153 11.9531 27.276 12.4267 27.2767C12.9126 27.2762 13.3884 27.1375 13.7988 26.8769C14.0591 26.466 14.1975 25.9894 14.198 25.5028C14.2011 25.0296 14.0715 24.565 13.8238 24.162L9.76549 17.383Z" fill="#F2B9A1"/>
<path d="M17.9817 20.83C18.2294 21.233 18.359 21.6976 18.3559 22.1708C18.3535 22.8614 18.0785 23.523 17.5908 24.0113C17.1032 24.4996 16.4425 24.775 15.7529 24.7775C15.2793 24.7768 14.8139 24.6538 14.4016 24.4204C13.9894 24.187 13.6442 23.851 13.3995 23.445L9.49918 16.9324C9.2285 16.481 9.14227 15.9423 9.25847 15.4288C9.37467 14.9152 9.68433 14.4664 10.1229 14.1759L11.2206 13.443C11.5342 13.2289 11.9056 13.1156 12.2851 13.1182C12.6156 13.1178 12.9404 13.2035 13.2277 13.3671C13.515 13.5306 13.7548 13.7663 13.9234 14.0509L17.9817 20.83Z" fill="#D08D78"/>
<path d="M13.9237 14.0509C13.7551 13.7663 13.5153 13.5306 13.228 13.3671C12.9407 13.2035 12.6159 13.1178 12.2854 13.1182C11.9059 13.1156 11.5345 13.2289 11.2209 13.443L10.2978 14.0593C10.1233 14.3721 10.0345 14.7256 10.0403 15.0839C10.0462 15.4423 10.1465 15.7927 10.3311 16.0996L14.2314 22.6122C14.4761 23.0182 14.8213 23.3542 15.2336 23.5876C15.6458 23.821 16.1113 23.944 16.5849 23.9447C17.0708 23.9441 17.5466 23.8055 17.957 23.5449C18.2173 23.1339 18.3557 22.6574 18.3562 22.1708C18.3593 21.6976 18.2297 21.233 17.982 20.83L13.9237 14.0509Z" fill="#F2B9A1"/>
<path d="M22.3016 26.2438C22.1129 26.5587 21.8459 26.8193 21.5268 27.0002C21.2076 27.1812 20.8471 27.2763 20.4804 27.2764C20.2014 27.2765 19.9252 27.2216 19.6675 27.1147C19.4097 27.0079 19.1755 26.8512 18.9783 26.6537C18.781 26.4562 18.6246 26.2216 18.5179 25.9635C18.4112 25.7054 18.3563 25.4288 18.3564 25.1494C18.3565 23.8135 18.6965 22.4997 19.3444 21.3319L21.9815 16.5782C22.1431 16.2869 22.3797 16.0441 22.6666 15.8752C22.9534 15.7062 23.2802 15.6171 23.6131 15.6172C23.9813 15.617 24.3414 15.7263 24.6476 15.9312L25.7603 16.674C26.0409 16.8612 26.271 17.1149 26.4302 17.4126C26.5893 17.7103 26.6726 18.0428 26.6726 18.3804C26.6726 18.7521 26.5717 19.1169 26.3807 19.4356L22.3016 26.2438Z" fill="#D08D78"/>
<path d="M16.6934 35.6043C16.9392 33.8809 17.6923 32.2701 18.8566 30.9773C20.0208 29.6846 21.5434 28.7686 23.2299 28.3464H23.2423C23.51 28.2794 23.7476 28.1246 23.9171 27.9067C24.0867 27.6887 24.1785 27.4202 24.1779 27.1439C24.1778 26.9302 24.1226 26.7203 24.0175 26.5344C23.9124 26.3484 23.7611 26.1929 23.5783 26.0829L22.5338 25.4558C21.767 24.9951 21.1325 24.3434 20.6919 23.5642C20.2514 22.785 20.0198 21.9049 20.0198 21.0094C20.0198 20.4628 20.2367 19.9385 20.6227 19.5519C21.0087 19.1654 21.5322 18.9482 22.0781 18.9482C22.3645 18.9491 22.6477 19.0095 22.9097 19.1256L25.9526 20.4798C27.1566 21.0149 28.1798 21.8883 28.8981 22.9942C29.6164 24.1 29.9989 25.3908 29.9992 26.71C29.9992 27.6331 29.8119 28.5465 29.4487 29.3949L26.7917 35.6043H16.6934Z" fill="#F2B9A1"/>
<path d="M34.9884 38.1029C34.9884 37.4403 34.7255 36.8048 34.2577 36.3363C33.7898 35.8677 33.1552 35.6045 32.4935 35.6045H2.55539C1.89372 35.6045 1.25914 35.8677 0.79127 36.3363C0.323396 36.8048 0.0605469 37.4403 0.0605469 38.1029V48.0965C0.0605469 48.7592 0.323396 49.3946 0.79127 49.8632C1.25914 50.3317 1.89372 50.5949 2.55539 50.5949H32.4935C33.1552 50.5949 33.7898 50.3317 34.2577 49.8632C34.7255 49.3946 34.9884 48.7592 34.9884 48.0965V38.1029Z" fill="#E73844"/>
<path d="M32.4934 35.6045H2.55525C2.31244 35.6081 2.07147 35.6474 1.84006 35.7211C1.76645 35.9528 1.72723 36.1941 1.72363 36.4373V46.4309C1.72363 47.0936 1.98648 47.729 2.45436 48.1976C2.92223 48.6661 3.5568 48.9293 4.21848 48.9293H34.1566C34.3994 48.9257 34.6404 48.8865 34.8718 48.8128C34.9454 48.581 34.9846 48.3397 34.9882 48.0965V38.1029C34.9882 37.4403 34.7254 36.8048 34.2575 36.3363C33.7896 35.8677 33.1551 35.6045 32.4934 35.6045Z" fill="#FF4D55"/>
<path d="M4.28516 47.7188L9.27231 37.7302L10.7592 38.4747L5.77208 48.4633L4.28516 47.7188Z" fill="white"/>
<path d="M10.8718 43.0996C10.3784 43.0996 9.89601 43.2461 9.48574 43.5207C9.07546 43.7952 8.75569 44.1854 8.56686 44.6419C8.37803 45.0984 8.32863 45.6008 8.42489 46.0854C8.52116 46.5701 8.75877 47.0152 9.10768 47.3647C9.45659 47.7141 9.90112 47.952 10.3851 48.0484C10.869 48.1448 11.3707 48.0953 11.8265 47.9062C12.2824 47.7171 12.672 47.3969 12.9462 46.9861C13.2203 46.5752 13.3666 46.0922 13.3666 45.598C13.3666 44.9354 13.1038 44.2999 12.6359 43.8314C12.168 43.3628 11.5335 43.0996 10.8718 43.0996ZM10.8718 46.4308C10.7073 46.4308 10.5465 46.382 10.4098 46.2905C10.273 46.199 10.1664 46.0689 10.1035 45.9167C10.0405 45.7645 10.0241 45.5971 10.0562 45.4355C10.0883 45.274 10.1675 45.1256 10.2838 45.0091C10.4001 44.8927 10.5482 44.8133 10.7096 44.7812C10.8709 44.7491 11.0381 44.7656 11.19 44.8286C11.342 44.8916 11.4719 44.9984 11.5633 45.1353C11.6546 45.2723 11.7034 45.4333 11.7034 45.598C11.7034 45.8189 11.6158 46.0307 11.4598 46.1869C11.3039 46.3431 11.0924 46.4308 10.8718 46.4308Z" fill="white"/>
<path d="M6.71332 40.601C6.71332 40.1068 6.56701 39.6238 6.29287 39.2129C6.01873 38.802 5.62909 38.4818 5.17322 38.2927C4.71734 38.1036 4.21571 38.0541 3.73176 38.1505C3.24781 38.2469 2.80327 38.4849 2.45436 38.8343C2.10545 39.1837 1.86784 39.6289 1.77157 40.1135C1.67531 40.5982 1.72471 41.1005 1.91354 41.557C2.10237 42.0136 2.42214 42.4038 2.83242 42.6783C3.24269 42.9528 3.72505 43.0994 4.21848 43.0994C4.88015 43.0994 5.51473 42.8361 5.9826 42.3676C6.45048 41.899 6.71332 41.2636 6.71332 40.601ZM4.21848 41.4338C4.054 41.4338 3.89322 41.3849 3.75646 41.2934C3.6197 41.2019 3.51311 41.0718 3.45017 40.9197C3.38722 40.7675 3.37076 40.6 3.40284 40.4385C3.43493 40.2769 3.51414 40.1285 3.63044 40.0121C3.74674 39.8956 3.89492 39.8163 4.05624 39.7841C4.21756 39.752 4.38477 39.7685 4.53672 39.8315C4.68868 39.8946 4.81856 40.0013 4.90994 40.1383C5.00132 40.2752 5.05009 40.4362 5.05009 40.601C5.05009 40.8218 4.96248 41.0337 4.80652 41.1898C4.65056 41.346 4.43904 41.4338 4.21848 41.4338Z" fill="white"/>
<path d="M23.3338 38.239L21.6939 37.9658L21.3936 39.768H18.9213L19.1757 38.239L17.5358 37.9658L17.2356 39.768H15.8609V41.4336H16.9586L16.404 44.7648H15.0293V46.4304H16.127L15.8726 47.9595L17.5125 48.2326L17.8127 46.4304H20.2851L20.0306 47.9595L21.6706 48.2326L21.9708 46.4304H23.3454V44.7648H22.2477L22.8024 41.4336H24.1771V39.768H23.0793L23.3338 38.239ZM20.562 44.7648H18.0896L18.6443 41.4336H21.1167L20.562 44.7648Z" fill="white"/>
<path d="M32.4937 40.6009V38.9353H29.9989V38.1025H28.3357V38.9353C27.674 38.9353 27.0394 39.1986 26.5715 39.6671C26.1037 40.1357 25.8408 40.7711 25.8408 41.4338C25.8408 42.0964 26.1037 42.7318 26.5715 43.2004C27.0394 43.6689 27.674 43.9322 28.3357 43.9322V45.5978H25.8408V47.2634H28.3357V48.0962H29.9989V47.2634C30.6606 47.2634 31.2951 47.0001 31.763 46.5316C32.2309 46.0631 32.4937 45.4276 32.4937 44.765C32.4937 44.1023 32.2309 43.4669 31.763 42.9983C31.2951 42.5298 30.6606 42.2666 29.9989 42.2666V40.6009H32.4937ZM30.8305 44.765C30.8305 44.9858 30.7429 45.1977 30.5869 45.3538C30.431 45.51 30.2195 45.5978 29.9989 45.5978V43.9322C30.2195 43.9322 30.431 44.0199 30.5869 44.1761C30.7429 44.3323 30.8305 44.5441 30.8305 44.765ZM28.3357 42.2666C28.1151 42.2666 27.9036 42.1788 27.7476 42.0226C27.5917 41.8665 27.504 41.6546 27.504 41.4338C27.504 41.2129 27.5917 41.0011 27.7476 40.8449C27.9036 40.6887 28.1151 40.6009 28.3357 40.6009V42.2666Z" fill="white"/>
<path d="M19.2255 21.582C18.6583 22.6858 18.3605 23.9084 18.3564 25.1498C18.3557 25.6117 18.5053 26.0613 18.7827 26.4303C19.06 26.7994 19.45 27.0679 19.8935 27.195C20.3369 27.3221 20.8097 27.301 21.24 27.1348C21.6704 26.9686 22.0349 26.6664 22.2783 26.2741L22.1054 26.17C21.3019 25.6824 20.6232 25.0138 20.1232 24.2173C19.6233 23.4208 19.3159 22.5184 19.2255 21.582Z" fill="#F2B9A1"/>
<path d="M23.2514 18.3654L26.2286 19.6912L26.3808 19.4364C26.6516 18.9845 26.7383 18.4454 26.6228 17.9312C26.5073 17.417 26.1984 16.967 25.7604 16.6748L24.6477 15.932C24.4332 15.7888 24.1915 15.6917 23.9377 15.6467C23.6839 15.6018 23.4236 15.61 23.1731 15.6707C22.9226 15.7315 22.6874 15.8436 22.4823 16C22.2773 16.1563 22.1067 16.3535 21.9815 16.579L21.0127 18.3279C21.3692 18.183 21.7513 18.1118 22.136 18.1185C22.5208 18.1252 22.9002 18.2098 23.2514 18.3671V18.3654Z" fill="#F2B9A1"/>
<path d="M18.7992 20.5992L20.02 18.3998V3.12536C20.02 2.46274 19.7571 1.82726 19.2892 1.35872C18.8214 0.890178 18.1868 0.626953 17.5251 0.626953C16.8634 0.626953 16.2289 0.890178 15.761 1.35872C15.2931 1.82726 15.0303 2.46274 15.0303 3.12536V14.2799L18.6952 20.4019C18.7343 20.4652 18.7642 20.5309 18.7992 20.5992Z" fill="#F2B9A1"/>
</svg>
