<svg width="15" height="15" viewBox="0 0 15 15" fill="none" xmlns="http://www.w3.org/2000/svg">
<g clip-path="url(#clip0_1_15147)">
<path d="M7.5 15C11.6421 15 15 11.6421 15 7.5C15 3.35786 11.6421 0 7.5 0C3.35786 0 0 3.35786 0 7.5C0 11.6421 3.35786 15 7.5 15Z" fill="#FFD93B"/>
<path d="M7.50001 12.4382C5.48532 12.4382 3.71485 11.1473 3.0947 9.22585C3.03516 9.04116 3.13641 8.84288 3.3211 8.78335C3.50673 8.72335 3.70407 8.82507 3.7636 9.00976C4.29001 10.6396 5.79141 11.7351 7.50001 11.7351C9.2086 11.7351 10.71 10.6401 11.2364 9.00976C11.2959 8.82507 11.4933 8.72335 11.6789 8.78335C11.8636 8.84288 11.9649 9.04116 11.9053 9.22585C11.2852 11.1473 9.5147 12.4382 7.50001 12.4382Z" fill="#3E4347"/>
<path d="M14.9999 7.4999C14.9999 11.6437 11.6413 14.9999 7.4999 14.9999C5.14209 14.9999 3.0374 13.9124 1.66162 12.2085C2.94834 13.2491 4.58662 13.8702 6.37021 13.8702C10.5116 13.8702 13.8702 10.514 13.8702 6.37021C13.8702 4.58662 13.2491 2.94834 12.2085 1.66162C13.9101 3.0374 14.9999 5.14209 14.9999 7.4999Z" fill="#F4C534"/>
<path d="M6.25312 6.27473C5.90062 5.79379 5.265 5.4741 4.54031 5.4741C3.81234 5.47738 3.17672 5.79707 2.82422 6.27801C2.84062 5.34566 3.60187 4.59473 4.54031 4.59473C5.47219 4.59473 6.23672 5.34238 6.25312 6.27473Z" fill="#3E4347"/>
<path d="M12.1765 6.27473C11.824 5.79379 11.1883 5.4741 10.4637 5.4741C9.73568 5.47738 9.10006 5.79707 8.74756 6.27801C8.76396 5.34566 9.52522 4.59473 10.4637 4.59473C11.396 4.59473 12.1601 5.34238 12.1765 6.27473Z" fill="#3E4347"/>
</g>
<defs>
<clipPath id="clip0_1_15147">
<rect width="15" height="15" fill="white"/>
</clipPath>
</defs>
</svg>
