<svg width="36" height="40" viewBox="0 0 36 40" fill="none" xmlns="http://www.w3.org/2000/svg">
<path d="M24.7507 21.127C25.6302 16.1633 28.936 15.4303 30.5795 15.989C32.4533 16.6258 32.5155 18.894 32.2244 20.6826C31.279 26.489 27.2383 29.3204 24.748 27.4423L24.751 32.5783C27.5235 31.6674 33.7858 28.7892 35.0034 21.125C36.3789 12.4564 28.541 11.4656 24.7613 14.6775L24.7507 21.127Z" fill="#FFDFB8"/>
<path d="M23.3924 12.8487C22.9725 12.9068 22.5451 12.873 22.1395 12.7497C21.7339 12.6263 21.3599 12.4164 21.0431 12.1343C20.7516 12.4854 20.3825 12.7639 19.965 12.9477C19.5475 13.1315 19.0931 13.2156 18.6375 13.1933C18.182 13.171 17.7379 13.0429 17.3403 12.8192C16.9428 12.5955 16.6025 12.2823 16.3466 11.9043C15.8574 12.7055 15.085 13.293 14.183 13.5501C13.281 13.8071 12.3155 13.7149 11.4783 13.2917V15.7152C11.4783 16.2409 11.2698 16.7451 10.8986 17.1168C10.5274 17.4886 10.0239 17.6974 9.49896 17.6974C8.97401 17.6974 8.47055 17.4886 8.09935 17.1168C7.72815 16.7451 7.51962 16.2409 7.51962 15.7152L7.5173 13.1969C7.08582 13.197 6.65964 13.1018 6.26908 12.9181C5.87853 12.7344 5.53321 12.4668 5.2577 12.1343C4.75228 12.5849 4.10658 12.8464 3.43041 12.8741C2.75424 12.9018 2.08935 12.6941 1.54883 12.2864V37.8889C1.54883 38.2404 1.68827 38.5775 1.93648 38.8261C2.18469 39.0747 2.52134 39.2143 2.87236 39.2143H23.4278C23.7788 39.2143 24.1155 39.0747 24.3637 38.8261C24.6119 38.5775 24.7514 38.2404 24.7514 37.8889V12.2864C24.3538 12.587 23.886 12.7806 23.3924 12.8487Z" fill="#FFCD38"/>
<path d="M24.7494 32.5762V37.8878C24.7494 38.2393 24.6099 38.5765 24.3617 38.825C24.1135 39.0736 23.7769 39.2132 23.4258 39.2132H2.87138C2.52036 39.2132 2.18372 39.0736 1.93551 38.825C1.6873 38.5765 1.54785 38.2393 1.54785 37.8878V32.5762L2.58352 33.8022C3.04977 34.3507 3.62944 34.7913 4.28245 35.0933C4.93545 35.3954 5.6462 35.5518 6.36551 35.5517H19.9317C20.651 35.5518 21.3618 35.3954 22.0148 35.0933C22.6678 34.7913 23.2475 34.3507 23.7137 33.8022L24.7494 32.5762Z" fill="#FFF1D7"/>
<path d="M24.6471 7.49669C24.6508 7.43273 24.6567 7.36978 24.6567 7.30516C24.6581 6.78854 24.5426 6.27831 24.3188 5.8128C24.0951 5.34729 23.7689 4.9386 23.3649 4.6174C22.9608 4.2962 22.4893 4.07086 21.9858 3.95828C21.4823 3.84571 20.9599 3.84883 20.4578 3.96741C20.3284 3.55447 20.1016 3.17879 19.7967 2.87212C19.4917 2.56545 19.1175 2.3368 18.7057 2.20551C18.2939 2.07422 17.8565 2.04413 17.4307 2.1178C17.0048 2.19146 16.6029 2.36671 16.2589 2.62874C15.9141 2.12063 15.4504 1.70471 14.9083 1.41725C14.3662 1.12978 13.762 0.979492 13.1486 0.979492C12.5352 0.979492 11.931 1.12978 11.3889 1.41725C10.8468 1.70471 10.3831 2.12063 10.0383 2.62874C9.69431 2.36664 9.29237 2.19133 8.86646 2.11763C8.44054 2.04392 8.00316 2.07399 7.5913 2.20529C7.17943 2.33659 6.80519 2.56526 6.5002 2.87197C6.19521 3.17868 5.96844 3.55441 5.83905 3.96741C5.33705 3.84912 4.81482 3.84622 4.31153 3.95893C3.80825 4.07164 3.337 4.29704 2.93313 4.6182C2.52926 4.93936 2.20328 5.34795 1.97963 5.81331C1.75598 6.27867 1.64048 6.78871 1.6418 7.30516C1.6418 7.37143 1.64809 7.43273 1.6514 7.49669C1.32017 7.72356 1.03883 8.01594 0.82469 8.35581C0.610553 8.69568 0.468156 9.07585 0.406269 9.47291C0.344381 9.86997 0.364313 10.2755 0.464837 10.6646C0.56536 11.0536 0.744347 11.418 0.990777 11.7351C1.23721 12.0523 1.54586 12.3156 1.89773 12.5088C2.24961 12.702 2.63725 12.821 3.03679 12.8586C3.43633 12.8961 3.83932 12.8513 4.22092 12.727C4.60253 12.6027 4.95469 12.4014 5.25571 12.1357C5.53143 12.4685 5.87707 12.7362 6.26799 12.9199C6.65891 13.1036 7.08548 13.1987 7.51729 13.1983L7.51961 15.7166C7.51961 16.2423 7.72815 16.7465 8.09935 17.1182C8.47054 17.49 8.974 17.6988 9.49895 17.6988C10.0239 17.6988 10.5274 17.49 10.8986 17.1182C11.2698 16.7465 11.4783 16.2423 11.4783 15.7166V13.2921C12.3154 13.7151 13.2808 13.8072 14.1826 13.5502C15.0844 13.2932 15.8567 12.7058 16.3459 11.9047C16.6019 12.2827 16.9421 12.5959 17.3397 12.8196C17.7373 13.0433 18.1814 13.1714 18.6369 13.1937C19.0924 13.216 19.5468 13.132 19.9643 12.9482C20.3818 12.7644 20.7509 12.4859 21.0425 12.1347C21.3435 12.4007 21.6956 12.6021 22.0773 12.7267C22.459 12.8512 22.8621 12.8961 23.2618 12.8586C23.6615 12.8212 24.0493 12.7022 24.4013 12.509C24.7534 12.3157 25.0621 12.0523 25.3086 11.735C25.5551 11.4177 25.7341 11.0533 25.8346 10.6641C25.9351 10.2748 25.9549 9.86916 25.8929 9.47198C25.8309 9.0748 25.6883 8.69455 25.4739 8.35466C25.2595 8.01477 24.9779 7.72245 24.6465 7.49569L24.6471 7.49669Z" fill="#FFF1D7"/>
<path d="M18.9482 30.5563C18.7946 30.5563 18.6473 30.4952 18.5387 30.3864C18.4301 30.2777 18.3691 30.1302 18.3691 29.9764V21.2312C18.3691 21.0774 18.4301 20.93 18.5387 20.8212C18.6473 20.7125 18.7946 20.6514 18.9482 20.6514C19.1018 20.6514 19.249 20.7125 19.3576 20.8212C19.4662 20.93 19.5272 21.0774 19.5272 21.2312V29.9764C19.5272 30.1302 19.4662 30.2777 19.3576 30.3864C19.249 30.4952 19.1018 30.5563 18.9482 30.5563Z" fill="#F7B521"/>
<path d="M7.3476 30.5563C7.19403 30.5563 7.04674 30.4952 6.93815 30.3864C6.82956 30.2777 6.76855 30.1302 6.76855 29.9764V21.2312C6.76855 21.0774 6.82956 20.93 6.93815 20.8212C7.04674 20.7125 7.19403 20.6514 7.3476 20.6514C7.50117 20.6514 7.64846 20.7125 7.75705 20.8212C7.86564 20.93 7.92665 21.0774 7.92665 21.2312V29.9764C7.92656 30.1302 7.86552 30.2776 7.75695 30.3863C7.64838 30.4951 7.50115 30.5562 7.3476 30.5563Z" fill="#F7B521"/>
<path d="M13.1484 30.5563C12.9948 30.5563 12.8475 30.4952 12.7389 30.3864C12.6303 30.2777 12.5693 30.1302 12.5693 29.9764V21.2312C12.5693 21.0774 12.6303 20.93 12.7389 20.8212C12.8475 20.7125 12.9948 20.6514 13.1484 20.6514C13.302 20.6514 13.4492 20.7125 13.5578 20.8212C13.6664 20.93 13.7274 21.0774 13.7274 21.2312V29.9764C13.7274 30.1302 13.6664 30.2777 13.5578 30.3864C13.4492 30.4952 13.302 30.5563 13.1484 30.5563Z" fill="#F7B521"/>
</svg>
