<svg width="26" height="23" viewBox="0 0 26 23" fill="none" xmlns="http://www.w3.org/2000/svg">
<path d="M19.6028 2.71684H15.9948C14.7827 1.37008 13.0764 0.606445 11.2458 0.606445H11.2427L5.89209 0.608557C3.94121 0.609302 2.29512 2.0706 2.06319 4.00763L1.58105 8.03431L12.7981 10.2752L22.0089 8.03431L19.6028 2.71684Z" fill="#FADBC5"/>
<path d="M1.58118 8.03418L0.970657 13.1329C0.872517 13.9527 1.13048 14.777 1.67845 15.3945C2.22648 16.0121 3.01428 16.3662 3.8399 16.3662H7.39376L7.21885 18.3156C7.12928 19.3134 7.46563 20.3098 8.14168 21.0493C8.81773 21.7887 9.78007 22.2128 10.782 22.2128H11.4932L11.4928 21.3035C11.4918 19.1911 12.3126 17.1978 13.8041 15.6908C15.2954 14.1839 17.2722 13.3535 19.371 13.3517H19.603L22.009 8.03418H1.58118Z" fill="#F9CFB2"/>
<path d="M25.9169 2.7168H19.6025V8.03433L22.5832 10.0906L25.9169 8.03433V2.7168Z" fill="#7BE2F6"/>
<path d="M19.6025 8.03418H25.9169V13.3516H19.6025V8.03418Z" fill="#35C7F5"/>
</svg>
