<svg width="61" height="52" viewBox="0 0 61 52" fill="none" xmlns="http://www.w3.org/2000/svg">
<path d="M30.2274 51.3401C29.9549 51.3401 29.6979 51.214 29.531 50.9982L22.0595 41.336H7.29681C3.36493 41.336 0.166016 38.1326 0.166016 34.1951V7.67332C0.166016 3.73583 3.36493 0.532227 7.29681 0.532227H53.158C57.0899 0.532227 60.2888 3.73571 60.2888 7.67332V34.1951C60.2888 38.1326 57.09 41.3361 53.158 41.3361H38.3951L30.9237 50.9983C30.7569 51.214 30.4999 51.3401 30.2274 51.3401Z" fill="#EF5350"/>
<path d="M30.2274 51.3401C29.9549 51.3401 29.6979 51.214 29.531 50.9982L22.0595 41.336H7.29681C3.36493 41.336 0.166016 38.1326 0.166016 34.1951V7.67332C0.166016 3.73583 3.36493 0.532227 7.29681 0.532227H53.158C57.0899 0.532227 60.2888 3.73571 60.2888 7.67332V34.1951C60.2888 38.1326 57.09 41.3361 53.158 41.3361H38.3951L30.9237 50.9983C30.7569 51.214 30.4999 51.3401 30.2274 51.3401Z" fill="#EF5350"/>
<path d="M53.7699 0.560547C54.9018 1.82503 55.5918 3.49392 55.5918 5.32167V22.8596C55.5918 31.765 48.3828 38.9843 39.49 38.9843H37.364C35.0517 38.9843 32.8696 40.056 31.4539 41.8869L26.9697 47.6858L29.5313 50.9984C29.698 51.2142 29.9552 51.3403 30.2276 51.3403C30.5 51.3403 30.7572 51.2142 30.9239 50.9984L38.3954 41.3362H53.1583C57.0965 41.3362 60.2891 38.1391 60.2891 34.1952V7.67366C60.2888 3.94265 57.4164 0.87264 53.7699 0.560547Z" fill="#D32F2F"/>
<path d="M53.283 23.3699C52.4622 23.3699 51.7969 22.7036 51.7969 21.8816V16.5488C51.7969 15.7268 52.4622 15.0605 53.283 15.0605C54.1039 15.0605 54.7692 15.7268 54.7692 16.5488V21.8816C54.7691 22.7036 54.1037 23.3699 53.283 23.3699Z" fill="white"/>
<path d="M6.1784 26.615C5.59808 26.0339 5.59808 25.0915 6.1784 24.5103L13.6348 17.0433C14.2151 16.4621 15.1562 16.4621 15.7365 17.0433C16.3168 17.6244 16.3168 18.5668 15.7365 19.148L8.28009 26.615C7.69977 27.1962 6.75884 27.1962 6.1784 26.615Z" fill="white"/>
<path d="M32.1664 23.4593H30.6989L31.2517 20.1983H32.1664C32.9872 20.1983 33.6525 19.532 33.6525 18.7101C33.6525 17.8881 32.9872 17.2218 32.1664 17.2218H31.7563L31.8323 16.7734C31.9841 15.8778 31.2949 15.0605 30.3878 15.0605C29.6733 15.0605 29.0629 15.5768 28.9434 16.2822L28.7841 17.2218H25.5276L25.6036 16.7734C25.7554 15.8778 25.0662 15.0605 24.1591 15.0605C23.4446 15.0605 22.8342 15.5768 22.7146 16.2822L22.5554 17.2218H20.7363C19.9155 17.2218 19.2501 17.8881 19.2501 18.7101C19.2501 19.532 19.9155 20.1983 20.7363 20.1983H22.0507L21.4979 23.4593H20.7361C19.9153 23.4593 19.25 24.1256 19.25 24.9476C19.25 25.7695 19.9153 26.4358 20.7361 26.4358H20.9933L20.9173 26.8842C20.7655 27.7798 21.4547 28.5971 22.3618 28.5971C23.0763 28.5971 23.6867 28.0808 23.8062 27.3754L23.9655 26.4358H27.2218L27.1458 26.8842C26.994 27.7798 27.6832 28.5971 28.5903 28.5971C29.3048 28.5971 29.9152 28.0808 30.0347 27.3754L30.194 26.4358H32.166C32.9868 26.4358 33.6522 25.7695 33.6522 24.9476C33.6525 24.1256 32.9872 23.4593 32.1664 23.4593ZM27.7266 23.4593H24.4703L25.0231 20.1983H28.2795L27.7266 23.4593Z" fill="white"/>
<path d="M53.283 28.5967C54.1038 28.5967 54.7692 27.9303 54.7692 27.1084C54.7692 26.2864 54.1038 25.6201 53.283 25.6201C52.4623 25.6201 51.7969 26.2864 51.7969 27.1084C51.7969 27.9303 52.4623 28.5967 53.283 28.5967Z" fill="white"/>
<path d="M14.744 27.1084C15.5648 27.1084 16.2301 26.4421 16.2301 25.6201C16.2301 24.7982 15.5648 24.1318 14.744 24.1318C13.9232 24.1318 13.2578 24.7982 13.2578 25.6201C13.2578 26.4421 13.9232 27.1084 14.744 27.1084Z" fill="white"/>
<path d="M7.17171 19.5254C7.99249 19.5254 8.65786 18.8591 8.65786 18.0371C8.65786 17.2152 7.99249 16.5488 7.17171 16.5488C6.35092 16.5488 5.68555 17.2152 5.68555 18.0371C5.68555 18.8591 6.35092 19.5254 7.17171 19.5254Z" fill="white"/>
<path d="M48.0345 23.1799L45.6976 21.8288L48.0345 20.4776C48.7452 20.0666 48.9888 19.1564 48.5784 18.4446C48.168 17.7329 47.2591 17.489 46.5483 17.9L44.2114 19.2511V16.5488C44.2114 15.7268 43.5461 15.0605 42.7253 15.0605C41.9045 15.0605 41.2392 15.7268 41.2392 16.5488V19.2511L38.9023 17.9C38.1915 17.489 37.2826 17.7329 36.8722 18.4446C36.4618 19.1564 36.7054 20.0666 37.4161 20.4776L39.753 21.8288L37.4161 23.1799C36.7054 23.5909 36.4618 24.5011 36.8722 25.2129C37.2826 25.9246 38.1915 26.1685 38.9023 25.7575L41.2392 24.4064V27.1087C41.2392 27.9307 41.9045 28.597 42.7253 28.597C43.5461 28.597 44.2114 27.9307 44.2114 27.1087V24.4064L46.5483 25.7575C47.2591 26.1685 48.168 25.9246 48.5784 25.2129C48.9888 24.5012 48.7452 23.5909 48.0345 23.1799Z" fill="white"/>
</svg>
