<svg width="16" height="10" viewBox="0 0 16 10" fill="none" xmlns="http://www.w3.org/2000/svg">
<path d="M9.02496 4.5518C9.02496 7.06561 7.00463 9.10345 4.51256 9.10345C2.02049 9.10345 0 7.06515 0 4.5518C0 2.03845 2.02033 0 4.51256 0C7.00478 0 9.02496 2.03799 9.02496 4.5518Z" fill="black"/>
<path d="M13.9755 4.55177C13.9755 6.91798 12.9653 8.83694 11.7192 8.83694C10.4731 8.83694 9.46289 6.91798 9.46289 4.55177C9.46289 2.18556 10.4729 0.266602 11.719 0.266602C12.9651 0.266602 13.9753 2.18494 13.9753 4.55177" fill="black"/>
<path d="M16.001 4.55173C16.001 6.67127 15.6458 8.39056 15.2074 8.39056C14.7691 8.39056 14.4141 6.67173 14.4141 4.55173C14.4141 2.43172 14.7693 0.712891 15.2074 0.712891C15.6456 0.712891 16.001 2.43157 16.001 4.55173Z" fill="black"/>
</svg>
