<svg width="35" height="35" viewBox="0 0 35 35" fill="none" xmlns="http://www.w3.org/2000/svg">
<g clip-path="url(#clip0_1_324)">
<path d="M17.1297 18.1316L18.1835 17.4463C18.1145 17.4437 18.0452 17.4424 17.9756 17.4424C16.149 17.4424 14.5301 18.35 13.5449 19.7385L14.5626 20.933C14.6591 21.0463 14.834 21.0463 14.9306 20.933L17.1072 18.3782C17.035 18.3103 17.0424 18.1884 17.1297 18.1316Z" fill="#DA4A54"/>
<path d="M26.5941 12.2228L28.4212 11.0346C28.568 10.9391 28.568 10.7238 28.4212 10.6282L25.5554 8.76433C25.4739 8.71135 25.432 8.61484 25.4489 8.51914L26.0497 5.10536C26.0779 4.94543 25.944 4.80367 25.783 4.8227L22.3306 5.23188C22.2193 5.24506 22.1135 5.17997 22.075 5.07455L20.8726 1.78256C20.8205 1.64 20.6519 1.57997 20.5216 1.65764L17.5138 3.45115C17.4125 3.51151 17.2825 3.49002 17.2059 3.40024L14.9307 0.729538C14.8341 0.616196 14.6592 0.616196 14.5626 0.729538L12.2872 3.40017C12.2108 3.48995 12.0808 3.51151 11.9795 3.45108L8.97165 1.65751C8.84139 1.57984 8.67278 1.63987 8.62068 1.78243L7.41829 5.07448C7.37981 5.1799 7.27401 5.24506 7.16269 5.23188L3.71038 4.82264C3.54935 4.80354 3.41557 4.94536 3.44368 5.10529L4.04441 8.51907C4.06122 8.61478 4.01935 8.71135 3.93794 8.76426L1.07207 10.6282C0.925195 10.7237 0.925195 10.939 1.07207 11.0345L3.93787 12.8984C4.01928 12.9514 4.06122 13.0479 4.04434 13.1437L3.44355 16.5575C3.41537 16.7174 3.54922 16.8591 3.71025 16.8401L7.01993 16.4478C7.18369 16.4284 7.31847 16.5752 7.28537 16.737L5.84659 23.772C5.79847 24.0071 6.08451 24.1616 6.25432 23.9923L11.9697 18.2917C12.0696 18.1921 12.233 18.1988 12.3245 18.3061L14.5626 20.9331C14.6592 21.0465 14.8341 21.0465 14.9307 20.9331L17.0747 18.4167L17.1298 18.3961L26.5941 12.2228Z" fill="#DD636E"/>
<path d="M28.4216 10.6285L25.5558 8.76463C25.4744 8.71172 25.4324 8.61515 25.4493 8.51945L26.0501 5.10567C26.0782 4.94574 25.9444 4.80398 25.7834 4.82301L23.0632 5.1454L22.7107 7.14816C22.6939 7.24386 22.7358 7.34043 22.8172 7.39334L24.1898 8.28611C25.0387 8.83818 25.0387 10.0826 24.1898 10.6347L22.8172 11.5274C22.7358 11.5804 22.6938 11.6769 22.7107 11.7727L22.8658 12.6541L24.3384 14.8717L26.5946 12.2231L28.4216 11.0349C28.5685 10.9393 28.5685 10.724 28.4216 10.6285Z" fill="#DA4A54"/>
<path d="M34.9181 18.1321L33.0542 16.9198C33.0012 16.8854 32.974 16.8225 32.9849 16.7603L33.3756 14.54C33.3939 14.436 33.3069 14.3438 33.2022 14.3562L30.9568 14.6223C30.8844 14.6309 30.8156 14.5886 30.7905 14.5199L30.0085 12.3789C29.9746 12.2862 29.8649 12.2471 29.7802 12.2976L27.8239 13.4641C27.758 13.5034 27.6735 13.4894 27.6237 13.431L26.1438 11.694C26.081 11.6202 25.9672 11.6202 25.9044 11.694L24.4246 13.431C24.3748 13.4894 24.2902 13.5034 24.2244 13.4641L22.2681 12.2976C22.1834 12.247 22.0737 12.2861 22.0398 12.3788L21.2578 14.5199C21.2327 14.5885 21.1639 14.6309 21.0915 14.6223L18.8461 14.3562C18.7413 14.3438 18.6543 14.436 18.6726 14.54L18.8856 15.7502L18.1839 17.4467L17.1302 18.1321C17.0347 18.1942 17.0347 18.3342 17.1302 18.3963L18.9941 19.6086C19.0471 19.643 19.0744 19.7059 19.0634 19.7681L18.6727 21.9884C18.6544 22.0924 18.7414 22.1847 18.8461 22.1722L21.0915 21.9061C21.164 21.8975 21.2328 21.9398 21.2578 22.0085L22.0398 24.1495C22.0736 24.2422 22.1833 24.2813 22.2681 24.2308L23.4078 23.5512L25.1551 23.9548L25.9045 24.8344C25.9673 24.9081 26.0811 24.9081 26.1439 24.8344L27.5995 23.1258C27.659 23.056 27.7653 23.0516 27.8303 23.1164L31.5475 26.824C31.658 26.9342 31.844 26.8337 31.8127 26.6808L30.877 22.1052C30.8554 22 30.9431 21.9045 31.0496 21.9171L33.2023 22.1722C33.307 22.1846 33.394 22.0924 33.3757 21.9884L32.9849 19.7681C32.974 19.7059 33.0012 19.643 33.0542 19.6086L34.9181 18.3963C35.0136 18.3342 35.0136 18.1942 34.9181 18.1321Z" fill="#FFD064"/>
<path d="M34.9176 18.132L33.0536 16.9197C33.0007 16.8853 32.9734 16.8225 32.9844 16.7603L33.3751 14.54C33.3934 14.4359 33.3064 14.3437 33.2016 14.3561L30.9562 14.6223C30.8839 14.6309 30.815 14.5885 30.7899 14.5199L30.5259 13.7969L30.3283 14.9194C30.2672 15.2664 30.4192 15.6163 30.7142 15.8082L31.2499 16.1566C31.7822 16.5028 31.7822 17.2831 31.2499 17.6292L30.7142 17.9776C30.4192 18.1695 30.2672 18.5194 30.3283 18.8663L30.4685 19.6628C30.5705 20.2423 30.0855 20.7562 29.502 20.6871L29.2995 20.663C28.706 20.5927 28.2176 21.1247 28.3376 21.7111L28.8288 24.1129L31.5469 26.824C31.6574 26.9341 31.8434 26.8336 31.8121 26.6808L30.8763 22.1052C30.8548 22 30.9425 21.9045 31.049 21.9171L33.2016 22.1722C33.3064 22.1846 33.3934 22.0924 33.3751 21.9884L32.9843 19.7681C32.9733 19.7058 33.0006 19.643 33.0536 19.6086L34.9175 18.3963C35.0131 18.3342 35.0131 18.1942 34.9176 18.132Z" fill="#FFC250"/>
<path d="M14.9709 5.64941C15.6372 5.64941 16.1686 6.20661 16.1379 6.87308L15.9154 11.7148C15.8922 12.2203 15.4762 12.6181 14.971 12.6181C14.4657 12.6181 14.0497 12.2202 14.0265 11.7148L13.804 6.87308C13.7732 6.20661 14.3046 5.64941 14.9709 5.64941Z" fill="#617881"/>
<path d="M14.9713 16.2158C15.4701 16.2158 15.8743 15.8109 15.8743 15.3115C15.8743 14.8121 15.4701 14.4072 14.9713 14.4072C14.4726 14.4072 14.0684 14.8121 14.0684 15.3115C14.0684 15.8109 14.4726 16.2158 14.9713 16.2158Z" fill="#617881"/>
<path d="M10.7969 27.5325H12.5442V22.8827C12.5442 19.8833 14.9808 17.4431 17.9759 17.4431C20.971 17.4431 23.4076 19.8833 23.4076 22.8827V27.5325H25.1549V22.8826C25.1549 18.9121 21.9407 15.6934 17.9759 15.6934C14.0111 15.6934 10.7969 18.9121 10.7969 22.8826V27.5325Z" fill="#9BB9C1"/>
<path d="M10.7969 27.5324L12.5442 29.4396V26.1611H10.7969V27.5324Z" fill="#86A0AF"/>
<path d="M23.4072 28.7136L25.1545 27.5324V26.1611H23.4072V28.7136Z" fill="#86A0AF"/>
<path d="M12.5436 34.1131H10.7879C9.64084 34.1131 8.71094 33.1818 8.71094 32.0331V29.6122C8.71094 28.4635 9.64084 27.5322 10.7879 27.5322H12.5436V34.1131Z" fill="#4073C8"/>
<path d="M23.4075 34.1131H25.1631C26.3102 34.1131 27.2401 33.1818 27.2401 32.0331V29.6122C27.2401 28.4635 26.3102 27.5322 25.1631 27.5322H22.0137L23.4075 34.1131Z" fill="#4073C8"/>
<path d="M10.7885 27.5323C10.6872 27.5323 10.5876 27.5396 10.4902 27.5536V32.0778C10.4902 32.6339 10.04 33.0847 9.4847 33.0847H8.99609C9.35684 33.7 10.0245 34.1131 10.7885 34.1131H12.5442L13.2212 27.5322H10.7885V27.5323Z" fill="#3B66C1"/>
<path d="M25.1631 27.5322H24.9015C25.0824 27.8408 25.1862 28.2001 25.1862 28.5838V31.0047C25.1862 32.052 24.4132 32.9185 23.4074 33.0634L22.79 34.1131H25.1631C26.3102 34.1131 27.2402 33.1819 27.2402 32.0331V29.6123C27.2401 28.4635 26.3102 27.5322 25.1631 27.5322Z" fill="#3B66C1"/>
<path d="M22.2649 34.7211H22.8351C23.151 34.7211 23.407 34.4647 23.407 34.1484V27.4974C23.407 27.1812 23.151 26.9248 22.8351 26.9248H22.2649C21.7162 26.9248 21.2715 27.3702 21.2715 27.9196V33.7262C21.2715 34.2757 21.7162 34.7211 22.2649 34.7211Z" fill="#617881"/>
<path d="M13.6861 34.7211H13.1158C12.7999 34.7211 12.5439 34.4647 12.5439 34.1484V27.4974C12.5439 27.1812 12.7999 26.9248 13.1158 26.9248H13.6861C14.2347 26.9248 14.6794 27.3702 14.6794 27.9196V33.7262C14.6794 34.2757 14.2347 34.7211 13.6861 34.7211Z" fill="#617881"/>
</g>
<defs>
<clipPath id="clip0_1_324">
<rect width="34.0273" height="34.0759" fill="white" transform="translate(0.961914 0.644531)"/>
</clipPath>
</defs>
</svg>
