<svg width="18" height="18" viewBox="0 0 18 18" fill="none" xmlns="http://www.w3.org/2000/svg">
<path d="M8.14538 11.6555L6.4803 13.3206C6.12929 13.6716 5.57126 13.6716 5.21125 13.3296C5.11224 13.2306 5.01324 13.1406 4.91423 13.0416C3.98719 12.1056 3.15015 11.1245 2.40311 10.0985C1.66508 9.07243 1.07105 8.04638 0.63903 7.02933C0.21601 6.00328 0 5.02224 0 4.08619C0 3.47416 0.108005 2.88914 0.324015 2.34911C0.540025 1.80008 0.882041 1.29606 1.35906 0.84604C1.93509 0.279013 2.56512 0 3.23115 0C3.48316 0 3.73518 0.0540026 3.96019 0.162008C4.1942 0.270013 4.40121 0.43202 4.56321 0.666031L6.65131 3.60917C6.81332 3.83418 6.93033 4.04119 7.01133 4.2392C7.09233 4.42821 7.13734 4.61722 7.13734 4.78822C7.13734 5.00423 7.07433 5.22024 6.94833 5.42725C6.83132 5.63426 6.66031 5.85027 6.4443 6.06628L5.76027 6.77732C5.66127 6.87632 5.61626 6.99333 5.61626 7.13734C5.61626 7.20934 5.62526 7.27234 5.64327 7.34434C5.67027 7.41635 5.69727 7.47035 5.71527 7.52435C5.87728 7.82137 6.15629 8.20839 6.55231 8.67641C6.95733 9.14443 7.38935 9.62145 7.85737 10.0985C7.94737 10.1885 8.04638 10.2785 8.13638 10.3685C8.4964 10.7195 8.5054 11.2955 8.14538 11.6555Z" fill="black"/>
<path d="M17.9734 14.6969C17.9734 14.9489 17.9284 15.2099 17.8384 15.4619C17.8114 15.5339 17.7844 15.6059 17.7484 15.6779C17.5953 16.0019 17.3973 16.308 17.1363 16.596C16.6953 17.082 16.2093 17.433 15.6603 17.658C15.6513 17.658 15.6423 17.667 15.6333 17.667C15.1022 17.883 14.5262 18 13.9052 18C12.9871 18 12.0061 17.784 10.971 17.343C9.93599 16.902 8.90094 16.308 7.87489 15.5609C7.52388 15.2999 7.17286 15.0389 6.83984 14.7599L9.78298 11.8167C10.035 12.0057 10.26 12.1498 10.449 12.2488C10.494 12.2668 10.548 12.2938 10.611 12.3208C10.683 12.3478 10.755 12.3568 10.836 12.3568C10.989 12.3568 11.106 12.3028 11.205 12.2038L11.8891 11.5287C12.1141 11.3037 12.3301 11.1327 12.5371 11.0247C12.7441 10.8987 12.9511 10.8357 13.1761 10.8357C13.3471 10.8357 13.5272 10.8717 13.7252 10.9527C13.9232 11.0337 14.1302 11.1507 14.3552 11.3037L17.3343 13.4188C17.5683 13.5808 17.7304 13.7698 17.8294 13.9948C17.9194 14.2199 17.9734 14.4449 17.9734 14.6969Z" fill="black"/>
</svg>
