<svg width="18" height="18" viewBox="0 0 18 18" fill="none" xmlns="http://www.w3.org/2000/svg">
<path d="M5.21016 3.861C4.83216 3.861 4.53516 3.555 4.53516 3.186V0.675C4.53516 0.306 4.83216 0 5.21016 0C5.58816 0 5.88516 0.306 5.88516 0.675V3.177C5.88516 3.555 5.58816 3.861 5.21016 3.861Z" fill="black"/>
<path d="M11.8898 3.861C11.5118 3.861 11.2148 3.555 11.2148 3.186V0.675C11.2148 0.297 11.5208 0 11.8898 0C12.2678 0 12.5648 0.306 12.5648 0.675V3.177C12.5648 3.555 12.2678 3.861 11.8898 3.861Z" fill="black"/>
<path d="M15.363 2.2501C14.769 1.8091 13.914 2.2321 13.914 2.9791V3.0691C13.914 4.1221 13.158 5.0941 12.105 5.2021C10.89 5.3281 9.864 4.3741 9.864 3.1861V2.2501C9.864 1.7551 9.459 1.3501 8.964 1.3501H8.136C7.641 1.3501 7.236 1.7551 7.236 2.2501V3.1861C7.236 3.8971 6.867 4.5271 6.309 4.8781C6.228 4.9321 6.138 4.9771 6.048 5.0221C5.967 5.0671 5.877 5.1031 5.778 5.1301C5.67 5.1661 5.553 5.1931 5.427 5.2021C5.283 5.2201 5.139 5.2201 4.995 5.2021C4.869 5.1931 4.752 5.1661 4.644 5.1301C4.554 5.1031 4.464 5.0671 4.374 5.0221C4.284 4.9771 4.194 4.9321 4.113 4.8781C3.546 4.4821 3.186 3.7981 3.186 3.0691V2.9791C3.186 2.2861 2.448 1.8721 1.863 2.1691C1.854 2.1781 1.845 2.1781 1.836 2.1871C1.8 2.2051 1.773 2.2231 1.737 2.2501C1.71 2.2771 1.674 2.2951 1.647 2.3221C1.395 2.5201 1.17 2.7451 0.981 2.9881C0.882 3.0961 0.801 3.2131 0.729 3.3301C0.72 3.3391 0.711 3.3481 0.702 3.3661C0.621 3.4831 0.549 3.6181 0.486 3.7441C0.468 3.7621 0.459 3.7711 0.459 3.7891C0.405 3.8971 0.351 4.0051 0.315 4.1221C0.288 4.1671 0.279 4.2031 0.261 4.2481C0.207 4.3831 0.171 4.5181 0.135 4.6531C0.0990001 4.7791 0.072 4.9141 0.0539999 5.0491C0.036 5.1481 0.027 5.2471 0.018 5.3551C0.00899998 5.4811 0 5.6071 0 5.7331V13.6171C0 16.0381 1.962 18.0001 4.383 18.0001H12.717C15.138 18.0001 17.1 16.0381 17.1 13.6171V5.7331C17.1 4.3021 16.416 3.0511 15.363 2.2501ZM8.55 13.8781H4.374C4.005 13.8781 3.699 13.5721 3.699 13.2031C3.699 12.8251 4.005 12.5191 4.374 12.5191H8.55C8.928 12.5191 9.225 12.8251 9.225 13.2031C9.225 13.5721 8.928 13.8781 8.55 13.8781ZM11.052 10.5391H4.374C4.005 10.5391 3.699 10.2331 3.699 9.8641C3.699 9.4861 4.005 9.1801 4.374 9.1801H11.052C11.43 9.1801 11.736 9.4861 11.736 9.8641C11.736 10.2331 11.43 10.5391 11.052 10.5391Z" fill="black"/>
</svg>
