<svg width="182" height="536" viewBox="0 0 182 536" fill="none" xmlns="http://www.w3.org/2000/svg">
<path d="M91.973 114.718C88.0435 76.4373 92.098 21.1747 92.1396 20.5916C92.7922 12.3716 94.1113 6.4149 95.4304 3.47127C95.0118 3.27104 94.62 3.01914 94.2641 2.72147C91.9869 7.42851 91.0427 16.9259 90.765 20.4805C90.765 21.0636 86.5995 76.2012 90.5706 114.621C91.024 114.763 91.5044 114.797 91.973 114.718ZM96.0413 224.285C96.2277 224.557 96.4575 224.797 96.7217 224.994C101.457 189.392 97.0133 150.389 92.9866 122.938C92.7089 121.092 92.4729 119.189 92.2507 117.232C91.7899 117.293 91.323 117.293 90.8622 117.232C91.0982 119.259 91.3482 121.217 91.6259 123.119C95.5831 150.167 99.9569 188.379 95.5276 223.494L96.0413 224.285ZM121.493 117.634C111.44 88.4756 104.511 53.1659 100.929 12.802V12.2327C100.318 5.29021 99.6515 0 97.2355 0C96.6795 0.0149572 96.1493 0.237915 95.7497 0.624824C96.1377 0.996561 96.6165 1.25991 97.1383 1.38851H97.2493C98.138 1.38851 98.9155 5.08194 99.5543 12.3577V12.927C103.137 53.402 110.079 88.7811 120.187 118.079C140.099 175.868 166.925 196.029 181.143 202.889L181.74 201.639C167.716 194.863 141.251 174.938 121.493 117.634V117.634ZM68.9099 331.103C65.5369 344.907 62.9088 358.881 61.0371 372.967C59.0793 388.337 53.0393 399.668 44.0001 404.902C36.9048 408.998 28.1017 409.068 18.5627 405.013H18.3405C14.3416 404.708 10.8287 406.499 7.94059 410.359C-2.61206 424.453 -2.65371 462.539 7.85728 490.268C11.4905 500.602 18.7405 509.272 28.2683 514.678C28.5619 517.552 29.8426 520.236 31.8923 522.273C39.543 530.729 53.6641 535.061 72.77 535.061C82.1164 534.979 91.4408 534.139 100.651 532.548C106.803 532.982 112.98 532.903 119.118 532.312C129.49 531.159 134.781 528.674 137.391 526.119C143.943 525.078 150.384 523.437 156.636 521.218L156.15 519.926C150.493 521.932 144.672 523.438 138.752 524.425C139.438 523.322 139.794 522.045 139.779 520.745C139.712 519.375 139.301 518.042 138.585 516.872C138.921 516.165 139.123 515.402 139.182 514.622C139.252 512.921 138.66 511.258 137.53 509.985C138.739 508.707 139.616 507.153 140.085 505.458C140.848 502.389 140.085 497.766 132.323 493.114C112.481 481.312 75.672 478.299 46.6799 486.102C33.3919 489.671 30.0179 495.225 29.643 499.238C29.4111 501.781 30.1337 504.32 31.6702 506.361C30.2469 507.862 29.1917 509.672 28.5877 511.651C28.4698 512.108 28.3771 512.572 28.31 513.039C19.3846 507.784 12.5993 499.548 9.1486 489.782C-1.02915 462.9 -1.0847 424.716 9.0514 411.192C11.6063 407.777 14.6054 406.152 18.1322 406.388C28.0462 410.554 37.2242 410.47 44.6944 406.152C54.1223 400.723 60.4123 389.032 62.4117 373.217C64.285 359.202 66.9037 345.297 70.2568 331.561C69.7936 331.454 69.3423 331.301 68.9099 331.103V331.103ZM70.8538 328.965C74.1724 315.247 77.9491 301.625 81.6703 288.226C86.5023 270.828 91.0566 254.388 94.389 238.601C95.1527 235.019 95.7775 231.367 96.3329 227.687C95.8732 227.483 95.4435 227.216 95.0555 226.896C94.5001 230.756 93.8336 234.574 93.0283 238.323C89.7098 254.055 85.1554 270.481 80.3234 287.851C76.6161 301.264 72.8255 314.899 69.507 328.632C69.9423 328.807 70.4006 328.919 70.8677 328.965H70.8538ZM137.794 514.442C137.776 514.756 137.724 515.068 137.641 515.372C137.075 514.635 136.453 513.944 135.78 513.303C136.178 512.594 136.472 511.832 136.655 511.04C137.438 511.996 137.843 513.207 137.794 514.442V514.442ZM101.984 501.265C70.7566 499.196 54.1223 502.264 52.5533 510.387C52.245 511.975 52.5003 513.62 53.2753 515.039C50.6372 514.428 48.1517 513.761 45.8885 513.039C45.8885 512.789 45.7913 512.539 45.7496 512.29C45.2359 508.207 48.2489 504.292 51.4703 502.223C60.6622 496.308 94.6112 494.142 122.701 503.278C125.715 504.207 128.635 505.421 131.42 506.902C130.752 507.529 130.038 508.105 129.282 508.624C120.818 504.237 111.507 501.727 101.984 501.265ZM127.963 509.485C123.062 512.47 115.328 515.233 105.872 517.205C91.5704 520.19 70.9788 518.857 55.2192 515.469C54.6569 514.814 54.248 514.041 54.0222 513.208C53.7964 512.374 53.7595 511.501 53.914 510.651C54.8999 505.611 64.0085 500.14 101.887 502.653C110.954 503.131 119.827 505.455 127.963 509.485V509.485ZM54.3723 516.705C54.8014 517.2 55.2654 517.664 55.7608 518.093C57.6023 519.578 59.6453 520.793 61.8285 521.704C58.7599 521.509 55.733 521.218 52.7755 520.801C50.0653 519.439 47.8295 517.29 46.3606 514.636C48.9154 515.4 51.5953 516.08 54.4278 516.705H54.3723ZM56.9271 517.233C72.5895 520.343 92.2507 521.398 106.108 518.621C114.328 516.913 123.492 513.997 129.268 510.29C130.344 510.911 131.387 511.588 132.392 512.317C125.311 516.913 112.606 520.648 95.2082 521.468C85.7386 521.898 75.9219 522.328 66.3967 521.995C63.0024 520.975 59.8152 519.363 56.9827 517.233H56.9271ZM130.573 509.387C131.315 508.857 132.011 508.268 132.656 507.624C133.645 508.24 134.575 508.947 135.433 509.735C135.44 509.818 135.44 509.901 135.433 509.985C134.856 510.514 134.249 511.01 133.614 511.47C132.636 510.725 131.621 510.03 130.573 509.387V509.387ZM133.587 506.61C133.868 506.253 134.119 505.872 134.336 505.472C134.778 506.18 135.106 506.953 135.308 507.763C135.308 507.763 135.308 507.763 135.308 507.763C134.739 507.374 134.211 506.958 133.587 506.61ZM119.188 495.502C94.514 489.879 69.6319 489.948 50.9426 495.683C47.763 496.669 39.5152 499.501 33.8918 504.194C35.3914 499.321 40.1678 495.28 45.4164 493.322C56.3856 489.24 69.1876 487.519 81.7119 487.519C97.2771 487.519 112.426 490.157 123.131 494.183C129.851 496.697 133.489 499.529 133.698 502.417C130.698 499.376 125.714 496.974 119.188 495.502ZM51.3453 497.016C69.8263 491.337 94.389 491.281 118.882 496.863C125.63 498.404 130.74 501.029 133.406 504.167C133.158 504.785 132.816 505.361 132.392 505.875C129.442 504.275 126.339 502.973 123.131 501.987C93.6531 492.406 60.0235 495.044 50.7205 501.084C47.1381 503.389 43.778 507.805 44.375 512.498C44.375 512.498 44.375 512.498 44.375 512.581C42.1234 511.822 39.9326 510.894 37.8213 509.804C36.1813 508.939 34.7206 507.771 33.5169 506.361C37.7935 502.251 44.8888 498.974 51.3453 496.988V497.016ZM37.1826 511.082C39.6153 512.313 42.1465 513.339 44.7499 514.15C45.6927 516.658 47.3845 518.816 49.5958 520.329C45.8286 519.684 42.1154 518.755 38.4877 517.552C36.4923 515.731 34.9515 513.467 33.989 510.943C33.6923 510.108 33.4965 509.241 33.4058 508.36C34.5299 509.433 35.8017 510.34 37.1826 511.054V511.082ZM52.4561 522.19C54.9983 523.582 57.667 524.731 60.4261 525.619C64.6102 526.927 68.8661 527.994 73.1726 528.813C71.3537 528.674 69.507 528.493 67.6186 528.285C56.3995 527.008 47.4297 524.12 41.4592 519.954C45.0799 520.945 48.7631 521.692 52.4839 522.19H52.4561ZM60.8566 524.3C59.3292 523.786 57.8991 523.245 56.5939 522.689C59.718 523.009 62.8977 523.203 66.119 523.328C74.825 526.202 86.8217 527.91 99.707 528.355C94.467 529.021 89.1878 529.332 83.9058 529.285C76.1159 528.214 68.4195 526.548 60.8844 524.3H60.8566ZM71.7425 523.439C79.5875 523.439 87.5576 523.148 95.3471 522.801C112.009 522.065 125.894 518.427 133.67 513.192L134.045 513.525C133.399 514.418 132.638 515.221 131.781 515.913C125.603 521.065 117.424 524.772 107.663 526.952C95.6033 527.171 83.5588 525.992 71.7702 523.439H71.7425ZM132.615 516.983C133.514 516.24 134.32 515.391 135.017 514.456C135.746 515.171 136.401 515.957 136.974 516.802C134.892 520.273 128.893 523.745 120.035 526.522C117.855 526.661 115.661 526.772 113.481 526.841C120.462 524.867 126.977 521.515 132.642 516.983H132.615ZM31.0176 499.307C31.573 494.239 37.2659 489.99 47.0409 487.352C75.7136 479.646 112.065 482.589 131.615 494.225C137.169 497.557 139.668 501.292 138.738 505.041C138.374 506.325 137.729 507.51 136.85 508.513C136.812 508.134 136.747 507.758 136.655 507.388C136.342 506.099 135.765 504.889 134.961 503.833C135.017 503.567 135.059 503.299 135.086 503.028C135.378 499.238 131.518 495.808 123.617 492.85C104.053 485.505 69.8263 482.714 44.9304 491.99C38.9737 494.211 33.6141 498.932 32.3089 504.694C31.3071 503.085 30.854 501.195 31.0176 499.307ZM29.9346 511.942C30.3424 510.501 31.0418 509.159 31.9895 507.999C32.0688 509.16 32.3071 510.305 32.6977 511.401C33.3825 513.255 34.3728 514.983 35.6274 516.511C33.566 515.714 31.5578 514.787 29.6152 513.734C29.6442 513.125 29.7515 512.523 29.9346 511.942V511.942ZM32.9198 521.259C31.3345 519.643 30.2373 517.612 29.754 515.4C32.353 516.754 35.0552 517.901 37.8352 518.829C42.6672 523.314 51.4703 527.827 67.5214 529.66C72.9465 530.295 78.4022 530.633 83.8641 530.673C87.3215 531.187 90.9178 531.631 94.5418 531.979C64.6889 536.075 42.9587 532.339 32.9198 521.259V521.259ZM100.554 531.062C97.9714 530.909 95.3749 530.687 92.8061 530.423C97.6474 530.126 102.46 529.472 107.205 528.466C109.371 528.466 111.551 528.466 113.731 528.341C110.079 529.271 106.094 530.118 101.818 530.854L100.554 531.062ZM118.966 530.854C114.953 531.264 110.918 531.421 106.886 531.326C111.328 530.456 115.722 529.353 120.049 528.021C124.978 527.688 129.865 527.174 134.558 526.48C131.282 528.563 125.978 530.076 118.966 530.854V530.854ZM136.78 524.661C133.142 525.244 129.365 525.716 125.519 526.05C131.532 523.661 135.725 520.968 137.766 518.121C138.138 518.915 138.35 519.773 138.391 520.648C138.401 522.145 137.823 523.587 136.78 524.661V524.661Z" fill="black"/>
</svg>
