<svg width="15" height="15" viewBox="0 0 15 15" fill="none" xmlns="http://www.w3.org/2000/svg">
<g clip-path="url(#clip0_19_3059)">
<path d="M7.5 15C11.6421 15 15 11.6421 15 7.5C15 3.35786 11.6421 0 7.5 0C3.35786 0 0 3.35786 0 7.5C0 11.6421 3.35786 15 7.5 15Z" fill="#FFD93B"/>
<path d="M14.9999 7.4999C14.9999 11.6437 11.6413 14.9999 7.4999 14.9999C5.14209 14.9999 3.0374 13.9124 1.66162 12.2085C2.94834 13.2491 4.58662 13.8702 6.37021 13.8702C10.5116 13.8702 13.8702 10.514 13.8702 6.37021C13.8702 4.58662 13.2491 2.94834 12.2085 1.66162C13.9101 3.0374 14.9999 5.14209 14.9999 7.4999Z" fill="#F4C534"/>
<path d="M9.7392 11.2738C9.7392 11.4927 9.56436 11.6642 9.34873 11.6642H5.6517C5.43607 11.6642 5.26123 11.4922 5.26123 11.2738C5.26123 11.0581 5.43607 10.8833 5.6517 10.8833H9.34873C9.56389 10.8833 9.7392 11.0581 9.7392 11.2738Z" fill="#3E4347"/>
<path d="M3.27573 7.66664C3.45901 7.55883 4.00135 8.14008 4.85307 8.17195C5.73479 8.20476 6.24714 7.55883 6.43042 7.66664C6.6587 7.74492 6.34745 9.23555 4.85307 9.24117C3.35917 9.23555 3.04745 7.74492 3.27573 7.66664Z" fill="#3E4347"/>
<path d="M2.92395 7.01129C2.7538 6.9841 2.63755 6.82379 2.6652 6.65317C2.69286 6.48301 2.85036 6.36629 3.02333 6.39442C4.7802 6.6766 5.31411 5.42176 5.31927 5.4091C5.38395 5.24926 5.56583 5.17239 5.72661 5.23754C5.88645 5.3027 5.96333 5.48504 5.89817 5.64489C5.54567 6.50832 4.43848 7.25457 2.92395 7.01129Z" fill="#E9B02C"/>
<path d="M11.7244 7.66664C11.5411 7.55883 10.9988 8.14008 10.1471 8.17195C9.26534 8.20476 8.753 7.55883 8.56972 7.66664C8.34143 7.74492 8.65268 9.23555 10.1471 9.24117C11.641 9.23555 11.9527 7.74492 11.7244 7.66664Z" fill="#3E4347"/>
<path d="M9.1018 5.64399C9.03664 5.48415 9.11352 5.3018 9.27336 5.23665C9.43274 5.17149 9.61461 5.2479 9.68024 5.4068C9.70367 5.46305 10.2404 6.6729 11.9766 6.39399C12.1487 6.36587 12.3076 6.48259 12.3348 6.65274C12.362 6.82337 12.2462 6.98368 12.076 7.01087C10.5723 7.25274 9.45711 6.5154 9.1018 5.64399Z" fill="#E9B02C"/>
</g>
<defs>
<clipPath id="clip0_19_3059">
<rect width="15" height="15" fill="white"/>
</clipPath>
</defs>
</svg>
