<svg width="31" height="32" viewBox="0 0 31 32" fill="none" xmlns="http://www.w3.org/2000/svg">
<mask id="mask0_19_647" style="mask-type:luminance" maskUnits="userSpaceOnUse" x="0" y="0" width="31" height="32">
<path fill-rule="evenodd" clip-rule="evenodd" d="M0.166992 0.000976562H30.7013V31.0825H0.166992V0.000976562Z" fill="white"/>
</mask>
<g mask="url(#mask0_19_647)">
<path fill-rule="evenodd" clip-rule="evenodd" d="M8.404 23.161C8.76658 23.161 9.12916 23.2045 9.48383 23.2945C10.5542 23.5675 11.4836 24.2455 12.0346 25.156C12.3924 25.7275 12.5903 26.395 12.5967 27.076C12.5967 28.051 13.4232 28.8325 14.4397 28.8325H16.4236C17.4353 28.8325 18.2618 28.0555 18.2666 27.097C18.2602 26.038 18.6972 25.0315 19.4968 24.274C20.2853 23.527 21.3873 23.0785 22.4893 23.1085C23.2113 23.125 23.9064 23.3095 24.5192 23.6395C25.4011 24.118 26.5268 23.833 27.0367 23.008L28.088 21.3475C28.3223 20.965 28.3904 20.485 28.2653 20.0425C28.1418 19.6 27.8315 19.216 27.4135 18.9895C26.435 18.4555 25.7367 17.5945 25.447 16.5625C25.1604 15.55 25.3172 14.4445 25.8761 13.534C26.2402 12.934 26.7738 12.4285 27.4135 12.0805C28.2717 11.605 28.5725 10.5415 28.0737 9.71348C28.0532 9.68048 28.0342 9.64598 28.0183 9.60998L27.0905 8.08598C26.5854 7.25348 25.4612 6.96698 24.5793 7.44248C23.6262 7.97648 22.4925 8.12948 21.4032 7.85798C20.3154 7.59098 19.4034 6.93848 18.835 6.01748C18.4708 5.44148 18.2729 4.77098 18.2666 4.08848C18.2808 3.57548 18.0908 3.11498 17.7457 2.77748C17.4021 2.44148 16.9192 2.25098 16.4236 2.25098H14.4397C13.9488 2.25098 13.4897 2.43248 13.1429 2.75948C12.7977 3.08798 12.6093 3.52448 12.6125 3.98948C12.5792 6.18248 10.6872 7.94798 8.39608 7.94798C7.66142 7.94048 6.95367 7.75298 6.33933 7.40498C5.47642 6.93998 4.34908 7.22648 3.844 8.05898L2.77208 9.72848C2.28125 10.5355 2.58208 11.602 3.45608 12.0835C4.75283 12.7945 5.56192 14.1205 5.56192 15.5425C5.56192 16.9645 4.75283 18.289 3.45292 19.0015C2.58367 19.4785 2.28283 20.539 2.78633 21.364L3.78542 22.996C4.03242 23.4175 4.43617 23.722 4.90325 23.8465C5.36875 23.9695 5.88175 23.917 6.30925 23.692C6.93783 23.3425 7.66933 23.161 8.404 23.161M16.4236 31.0825H14.4397C12.1137 31.0825 10.2217 29.2915 10.2217 27.088C10.2185 26.8165 10.1362 26.5345 9.98258 26.29C9.734 25.879 9.33183 25.585 8.86792 25.468C8.40717 25.351 7.90208 25.4155 7.48725 25.6435C6.49292 26.1685 5.32283 26.296 4.2525 26.011C3.18375 25.7245 2.26067 25.0285 1.71917 24.106L0.729582 22.4905C-0.427835 20.5885 0.260915 18.151 2.26542 17.053C2.83383 16.7425 3.18692 16.1635 3.18692 15.5425C3.18692 14.9215 2.83383 14.341 2.26542 14.0305C0.259332 12.9265 -0.427835 10.483 0.727999 8.58098L1.8015 6.91148C2.94308 5.03048 5.52392 4.36748 7.53633 5.46248C7.81025 5.61698 8.10792 5.69498 8.41033 5.69798C9.39675 5.69798 10.2217 4.92698 10.2375 3.97898C10.2312 2.93348 10.6666 1.92998 11.4598 1.17248C12.2562 0.416477 13.3139 0.000976562 14.4397 0.000976562H16.4236C17.5572 0.000976562 18.6592 0.441977 19.4493 1.20848C20.2378 1.97948 20.6732 3.03698 20.64 4.10948C20.6432 4.35098 20.7271 4.62998 20.8791 4.87448C21.1308 5.27948 21.5282 5.56448 22.0001 5.68148C22.4719 5.79248 22.9659 5.73248 23.3855 5.49698C25.4122 4.40048 27.9914 5.05748 29.1488 6.96248L30.1353 8.58098C30.1606 8.62448 30.1828 8.66648 30.2018 8.70998C31.2499 10.5865 30.5501 12.949 28.6026 14.0275C28.3192 14.182 28.0896 14.398 27.9312 14.659C27.6858 15.0625 27.6177 15.5425 27.7412 15.9835C27.8679 16.4335 28.1703 16.807 28.5963 17.038C29.5573 17.5615 30.2746 18.4435 30.5612 19.462C30.8477 20.479 30.691 21.583 30.1321 22.4935L29.0807 24.1525C27.9233 26.0365 25.3441 26.689 23.338 25.591C23.0704 25.4455 22.7617 25.366 22.4545 25.3585H22.445C21.9874 25.3585 21.5172 25.543 21.1752 25.8655C20.8284 26.194 20.6384 26.632 20.6416 27.097C20.6305 29.3005 18.7384 31.0825 16.4236 31.0825" fill="black"/>
</g>
<path fill-rule="evenodd" clip-rule="evenodd" d="M15.4383 12.7119C13.7916 12.7119 12.4521 13.9824 12.4521 15.5424C12.4521 17.1024 13.7916 18.3699 15.4383 18.3699C17.085 18.3699 18.4245 17.1024 18.4245 15.5424C18.4245 13.9824 17.085 12.7119 15.4383 12.7119M15.4383 20.6199C12.4822 20.6199 10.0771 18.3429 10.0771 15.5424C10.0771 12.7419 12.4822 10.4619 15.4383 10.4619C18.3944 10.4619 20.7995 12.7419 20.7995 15.5424C20.7995 18.3429 18.3944 20.6199 15.4383 20.6199" fill="black"/>
</svg>
