<svg width="395" height="395" viewBox="0 0 395 395" fill="none" xmlns="http://www.w3.org/2000/svg">
<path opacity="0.1" d="M296.005 199.752C312.456 199.449 328.906 199.25 345.357 198.877L370.021 198.305C378.188 198.048 386.472 197.85 394.697 197.547V197.173C386.472 196.87 378.246 196.672 370.021 196.427L345.333 195.89C328.883 195.517 312.432 195.318 295.982 195.027C279.531 194.735 263.092 194.525 246.642 194.443C241.473 194.443 236.293 194.443 231.125 194.443C236.223 193.557 241.31 192.647 246.408 191.748C262.591 188.808 278.75 185.705 294.908 182.613C311.067 179.521 327.215 176.406 343.338 173.186L367.536 168.332C375.598 166.652 383.66 165.031 391.698 163.304L391.64 162.942C383.473 164.109 375.306 165.276 367.209 166.442L342.837 170.223C326.573 172.708 310.344 175.368 294.092 177.934C277.84 180.501 261.622 183.161 245.405 185.938C240.307 186.836 235.208 187.711 230.121 188.633C234.986 186.883 239.84 185.133 244.705 183.325C260.129 177.631 275.506 171.763 290.872 165.906C306.237 160.049 321.614 154.239 336.945 148.218L359.929 139.235C367.571 136.19 375.236 133.191 382.855 130.088L382.726 129.749C374.898 132.27 367.104 134.895 359.287 137.473L335.953 145.372C320.366 150.645 304.849 156.082 289.285 161.426C273.721 166.769 258.215 172.218 242.722 177.759C237.845 179.545 232.945 181.26 228.068 183.103C232.587 180.513 237.094 177.915 241.59 175.309C255.789 167.014 269.906 158.579 284.035 150.143C298.164 141.708 312.269 133.273 326.328 124.721L347.399 111.887C354.399 107.559 361.399 103.277 368.399 98.8901L368.224 98.5751C360.944 102.425 353.722 106.369 346.477 110.242L324.764 122.038C310.332 129.936 295.993 137.986 281.596 145.955C267.199 153.924 252.86 161.974 238.58 170.129C234.053 172.743 229.526 175.36 224.999 177.981C229.021 174.629 233.03 171.273 237.028 167.912C249.582 157.284 262.007 146.515 274.456 135.758C286.905 125.001 299.342 114.221 311.697 103.37L330.225 87.0363C336.362 81.5645 342.533 76.1276 348.635 70.5974L348.402 70.3174C341.903 75.3693 335.475 80.5144 329.011 85.6013L309.749 101.048C296.915 111.339 284.175 121.758 271.388 132.106C258.601 142.455 245.872 152.862 233.225 163.374C229.211 166.734 225.209 170.102 221.219 173.478L231.311 161.472C241.812 148.813 252.195 136.05 262.591 123.298C272.986 110.545 283.346 97.7817 293.637 84.9363L309.049 65.6739C314.147 59.2104 319.281 52.8401 324.333 46.2833L324.053 46.0499C318.534 52.1518 313.097 58.3237 307.614 64.4605L291.28 82.9995C280.418 95.3549 269.696 107.827 258.892 120.229C248.089 132.631 237.378 145.115 226.738 157.657C223.378 161.671 220.021 165.68 216.669 169.686C219.306 165.171 221.908 160.644 224.533 156.105C232.7 141.825 240.68 127.451 248.695 113.089C256.71 98.7267 264.714 84.3529 272.613 69.9207L284.455 48.2667C288.34 41.0214 292.283 33.7995 296.122 26.5309L295.807 26.3442C291.432 33.3445 287.15 40.3447 282.821 47.345L269.988 68.4274C261.447 82.4278 253.047 96.6267 244.565 110.72C236.083 124.814 227.694 138.955 219.399 153.165C216.801 157.669 214.207 162.172 211.617 166.676C213.414 161.799 215.176 156.91 216.949 152.022C222.503 136.54 227.881 120.999 233.283 105.459C238.685 89.9181 244.075 74.3776 249.349 58.7904L257.235 35.4562C259.814 27.651 262.439 19.8457 264.971 12.0171L264.621 11.8887C261.529 19.519 258.531 27.1726 255.474 34.8145L246.502 57.7987C240.517 73.1292 234.706 88.518 228.803 103.872C222.899 119.226 217.136 134.615 211.384 150.038C209.611 154.904 207.825 159.757 206.075 164.634C206.997 159.535 207.884 154.437 208.782 149.338C211.559 133.133 214.161 116.892 216.774 100.652C219.388 84.4112 222.001 68.1707 224.486 51.9068L228.208 27.5109C229.375 19.344 230.623 11.1771 231.708 3.08011H231.346C229.62 11.1187 227.998 19.1923 226.318 27.2426L221.464 51.4401C218.244 67.5757 215.187 83.7346 212.049 99.8818C208.91 116.029 205.912 132.071 202.995 148.253C202.097 153.352 201.175 158.45 200.3 163.549C200.3 158.369 200.3 153.2 200.3 148.02C200.219 131.57 199.962 115.131 199.729 98.6801C199.495 82.2295 199.227 65.7789 198.853 49.34L198.328 24.6642C198.072 16.4972 197.873 8.21362 197.57 0H197.162C196.847 8.16695 196.648 16.4389 196.403 24.6642L195.82 49.34C195.447 65.7789 195.248 82.2295 194.957 98.6801C194.665 115.131 194.455 131.57 194.373 148.02C194.373 153.2 194.373 158.369 194.373 163.549C193.487 158.45 192.577 153.352 191.678 148.253C188.738 132.071 185.635 115.924 182.543 99.7651C179.451 83.6062 176.336 67.459 173.116 51.3234L168.262 27.1259C166.582 19.0757 164.961 11.002 163.234 2.96344H162.872C164.039 11.1304 165.206 19.2973 166.372 27.3943L170.083 51.7901C172.568 68.054 175.228 84.2829 177.794 100.535C180.361 116.787 183.021 133.016 185.798 149.222C186.696 154.32 187.583 159.419 188.493 164.517C186.743 159.64 184.993 154.787 183.185 149.922C177.491 134.498 171.623 119.132 165.777 103.755C159.932 88.378 154.11 73.0125 148.078 57.682L139.095 34.6979C136.05 27.0559 133.051 19.4023 129.948 11.7721L129.609 11.9004C132.13 19.729 134.755 27.5343 137.333 35.3395L145.232 58.6737C150.505 74.2609 155.942 89.7898 161.286 105.342C166.629 120.894 172.078 136.423 177.619 151.905C179.404 156.794 181.12 161.682 182.963 166.559C180.373 162.056 177.775 157.552 175.169 153.049C166.886 138.838 158.439 124.721 150.003 110.604C141.568 96.4867 133.133 82.3578 124.581 68.3107L111.747 47.2283C107.419 40.2281 103.137 33.2278 98.75 26.2276L98.435 26.4142C102.285 33.6828 106.229 40.9047 110.102 48.15L122.003 69.8857C129.901 84.3179 137.951 98.6684 145.92 113.054C153.889 127.439 161.939 141.79 170.094 156.07C172.708 160.605 175.325 165.132 177.946 169.651C174.609 165.637 171.238 161.636 167.877 157.622C157.249 145.08 146.48 132.643 135.723 120.194C124.966 107.745 114.197 95.3199 103.335 82.9645L87.0013 64.4256C81.5295 58.2887 76.0926 52.1168 70.5624 46.0149L70.2824 46.2483C75.3343 52.7468 80.4794 59.1754 85.5663 65.6389L101.013 84.9363C111.304 97.77 121.723 110.51 132.071 123.298C142.42 136.085 152.827 148.813 163.327 161.472C166.687 165.478 170.055 169.48 173.431 173.478C169.433 170.094 165.431 166.726 161.426 163.374C148.767 152.874 136.003 142.49 123.251 132.106C110.499 121.723 97.735 111.339 84.9012 101.048L65.6389 85.6363C59.1754 80.5494 52.7468 75.4043 46.2482 70.3524L46.0149 70.6324C52.1168 76.1626 58.3003 81.5995 64.4372 87.0713L82.9645 103.405C95.3199 114.221 107.792 124.954 120.159 135.758C132.526 146.562 145.045 157.284 157.587 167.912L169.616 177.981C165.105 175.36 160.582 172.743 156.047 170.129C141.755 161.962 127.381 153.97 113.019 145.955C98.6567 137.94 84.2829 129.936 69.8507 122.038L48.1967 110.195C40.9397 106.31 33.7178 102.367 26.4492 98.5284L26.2626 98.8434C33.2628 103.23 40.2631 107.512 47.2633 111.841L68.3457 124.674C82.3462 133.226 96.545 141.615 110.639 150.097C124.733 158.579 138.873 166.967 153.084 175.263C157.587 177.861 162.094 180.458 166.606 183.056C161.717 181.26 156.829 179.498 151.94 177.713C136.458 172.171 120.917 166.781 105.377 161.379C89.8364 155.977 74.2959 150.599 58.7087 145.325L35.3745 137.426C27.5693 134.848 19.7757 132.223 11.9354 129.703L11.8071 130.041C19.4373 133.145 27.0909 136.143 34.7329 139.188L57.7286 148.172C73.0475 154.145 88.4364 159.955 103.79 165.859C119.144 171.763 134.533 177.584 149.957 183.278C154.822 185.051 159.675 186.778 164.552 188.586C159.454 187.665 154.355 186.79 149.257 185.891C133.051 183.115 116.811 180.513 100.57 177.888C84.3296 175.263 68.089 172.661 51.8251 170.176L27.4293 166.466C19.2623 165.299 11.0954 164.051 2.99844 162.966V163.327C11.0487 165.054 19.1107 166.676 27.1609 168.356L51.3234 173.151C67.459 176.371 83.6179 179.428 99.7651 182.578C115.912 185.728 132.071 188.773 148.253 191.713C153.352 192.612 158.45 193.522 163.549 194.408C158.369 194.408 153.2 194.408 148.02 194.408C131.57 194.49 115.131 194.747 98.68 194.992C82.2295 195.237 65.7789 195.482 49.34 195.855L24.6642 196.438C16.4389 196.683 8.22528 196.882 0 197.185V197.558C8.16695 197.862 16.4389 198.06 24.6642 198.317L49.34 198.889C65.7789 199.262 82.2295 199.46 98.68 199.764C115.131 200.067 131.57 200.254 148.02 200.335H163.549C158.45 201.21 153.352 202.132 148.253 203.03C132.071 205.959 115.924 209.074 99.7651 212.154C83.6062 215.234 67.424 218.349 51.3234 221.558L27.1259 226.411C19.0757 228.091 11.0137 229.713 2.96344 231.44V231.801C11.1304 230.635 19.2973 229.468 27.3943 228.301L51.7901 224.579C68.054 222.094 84.2829 219.434 100.535 216.867C116.787 214.301 133.016 211.641 149.222 208.864C154.32 207.965 159.419 207.09 164.517 206.169C159.64 207.919 154.787 209.669 149.922 211.477C134.498 217.182 119.132 223.051 103.755 228.896C88.378 234.741 73.0125 240.563 57.6936 246.583L34.6979 255.567C27.0559 258.624 19.4023 261.611 11.7721 264.714L11.9004 265.064C19.7407 262.532 27.5343 259.907 35.3395 257.329L58.6737 249.43C74.2609 244.168 89.7897 238.732 105.342 233.376C120.894 228.021 136.423 222.596 151.905 217.042C156.79 215.269 161.678 213.488 166.571 211.699C162.052 214.289 157.544 216.887 153.049 219.493C138.838 227.788 124.733 236.235 110.604 244.658C96.475 253.082 82.3578 261.541 68.3107 270.081L47.2283 282.915C40.2281 287.255 33.2278 291.537 26.2276 295.912L26.4142 296.227C33.6828 292.377 40.9047 288.433 48.1616 284.56L69.8157 272.718C84.2362 264.819 98.5867 256.769 112.984 248.8C127.381 240.832 141.72 232.781 156.012 224.638C160.539 222.013 165.066 219.411 169.581 216.774L157.552 226.843C145.01 237.483 132.573 248.252 120.124 258.997C107.675 269.743 95.2499 280.523 82.8945 291.385L64.3672 307.719C58.2303 313.202 52.0468 318.639 45.9449 324.158L46.1782 324.438C52.6768 319.386 59.1054 314.252 65.5689 309.154L84.8429 293.742C97.6767 283.451 110.405 273.033 123.193 262.696C135.98 252.359 148.708 241.928 161.367 231.416L173.373 221.324C170.036 225.268 166.687 229.235 163.327 233.225C152.827 245.872 142.443 258.636 132.06 271.388C121.676 284.14 111.292 296.904 101.002 309.749L85.5896 329.011C80.5028 335.475 75.3576 341.903 70.3057 348.402L70.5857 348.635C76.1159 342.533 81.5528 336.362 87.0247 330.225L103.359 311.697C114.221 299.33 124.943 286.87 135.746 274.456C146.55 262.042 157.249 249.559 167.877 237.063C171.238 233.061 174.609 229.06 177.946 225.034C175.325 229.553 172.708 234.08 170.094 238.615C161.927 252.895 153.935 267.269 145.92 281.631C137.905 295.994 129.901 310.367 122.003 324.799L110.172 346.454C106.275 353.699 102.332 360.921 98.505 368.189L98.8201 368.376C103.207 361.376 107.489 354.376 111.817 347.375L124.651 326.305C133.203 312.246 141.592 298.105 150.073 284C158.555 269.894 166.956 255.765 175.239 241.567C177.837 237.063 180.435 232.556 183.033 228.044C181.236 232.921 179.474 237.81 177.689 242.698C172.148 258.181 166.757 273.733 161.356 289.262C155.954 304.79 150.575 320.343 145.302 335.93L137.403 359.264C134.825 367.081 132.2 374.875 129.679 382.703L130.018 382.832C133.121 375.201 136.12 367.548 139.165 359.906L148.148 336.922C154.122 321.591 159.944 306.202 165.847 290.848C171.751 275.494 177.514 260.106 183.255 244.682C185.028 239.817 186.813 234.963 188.563 230.098C187.653 235.185 186.766 240.283 185.868 245.382C183.091 261.587 180.49 277.84 177.864 294.068C175.239 310.297 172.661 326.561 170.129 342.895L166.419 367.291C165.252 375.458 164.004 383.567 162.919 391.722L163.281 391.78C165.007 383.742 166.629 375.68 168.309 367.618L173.163 343.42C176.383 327.296 179.439 311.126 182.59 294.978C185.74 278.831 188.785 262.672 191.725 246.49C192.623 241.392 193.533 236.305 194.42 231.206C194.42 236.375 194.42 241.555 194.42 246.723C194.502 263.174 194.758 279.625 195.003 296.064C195.248 312.502 195.493 328.965 195.867 345.415L196.45 370.079C196.695 378.305 196.893 386.53 197.208 394.755H197.57C197.873 386.53 198.072 378.305 198.328 370.079L198.9 345.415C199.273 328.965 199.472 312.514 199.775 296.064C200.079 279.613 200.265 263.174 200.347 246.723C200.347 241.555 200.347 236.375 200.347 231.206C201.222 236.305 202.144 241.392 203.042 246.49C205.97 262.672 209.085 278.831 212.177 294.978C215.269 311.126 218.372 327.296 221.593 343.42L226.446 367.618C228.126 375.68 229.748 383.742 231.475 391.78L231.836 391.722C230.67 383.555 229.503 375.388 228.336 367.291L224.521 342.895C222.036 326.631 219.376 310.402 216.809 294.15C214.242 277.898 211.594 261.669 208.817 245.463C207.919 240.365 207.032 235.266 206.11 230.18C207.86 235.045 209.611 239.898 211.419 244.763C217.124 260.187 222.993 275.564 228.838 290.93C234.683 306.296 240.505 321.673 246.537 337.003L255.509 359.987C258.566 367.629 261.564 375.283 264.656 382.913L265.006 382.785C262.474 374.956 259.849 367.163 257.27 359.346L249.384 336.012C244.11 320.424 238.673 304.907 233.318 289.343C227.963 273.779 222.538 258.262 216.984 242.78C215.211 237.892 213.484 233.003 211.652 228.126C214.227 232.645 216.821 237.153 219.434 241.648C227.729 255.847 236.176 269.964 244.6 284.081C253.024 298.199 261.482 312.327 270.023 326.386L282.856 347.457C287.185 354.457 291.467 361.457 295.842 368.458L296.157 368.271C292.307 361.002 288.363 353.78 284.49 346.535L272.648 324.799C264.749 310.367 256.699 296.017 248.73 281.631C240.762 267.246 232.711 252.895 224.568 238.615C221.943 234.088 219.341 229.55 216.704 225.034C220.056 229.063 223.413 233.073 226.773 237.063C237.413 249.605 248.182 262.042 258.927 274.491C269.673 286.94 280.453 299.365 291.315 311.732L307.649 330.26C313.132 336.397 318.569 342.568 324.088 348.67L324.368 348.437C319.316 341.938 314.182 335.51 309.084 329.046L293.672 309.784C283.381 296.95 272.963 284.21 262.626 271.423C252.289 258.636 241.858 245.907 231.346 233.26C227.986 229.246 224.622 225.244 221.254 221.254C225.244 224.622 229.246 227.986 233.26 231.346C245.907 241.847 258.671 252.23 271.423 262.626C284.175 273.021 296.904 283.393 309.749 293.672L329 309.061C335.463 314.159 341.892 319.293 348.39 324.344L348.624 324.064C342.522 318.546 336.35 313.109 330.213 307.626L311.686 291.292C299.33 280.43 286.858 269.708 274.444 258.904C262.031 248.1 249.57 237.39 237.016 226.749C233.011 223.389 229.001 220.033 224.988 216.681C229.503 219.318 234.041 221.919 238.568 224.544C252.849 232.711 267.222 240.692 281.585 248.707C295.947 256.722 310.321 264.726 324.753 272.624L346.419 284.56C353.664 288.445 360.886 292.388 368.166 296.227L368.341 295.912C361.341 291.537 354.34 287.255 347.34 282.915L326.27 270.081C312.211 261.541 298.07 253.14 283.976 244.658C269.883 236.176 255.742 227.764 241.497 219.469C236.993 216.864 232.486 214.266 227.974 211.676C232.851 213.472 237.751 215.246 242.628 217.019C258.122 222.573 273.663 227.951 289.192 233.353C304.72 238.755 320.273 244.145 335.86 249.407L359.194 257.306C367.011 259.884 374.805 262.509 382.633 265.041L382.761 264.691C375.143 261.587 367.478 258.601 359.836 255.544L336.852 246.56C321.521 240.587 306.132 234.776 290.778 228.873C275.424 222.969 260.036 217.206 244.612 211.454C239.747 209.681 234.893 207.895 230.028 206.145C235.115 207.067 240.213 207.942 245.312 208.841C261.529 211.617 277.77 214.231 293.998 216.844C310.227 219.458 326.48 222.071 342.743 224.556L367.139 228.278C375.306 229.445 383.473 230.693 391.57 231.778L391.628 231.416C383.59 229.69 375.528 228.068 367.466 226.388L343.362 221.558C327.238 218.338 311.067 215.281 294.932 212.131C278.796 208.981 262.614 205.935 246.432 203.007C241.333 202.109 236.246 201.187 231.148 200.312H246.665C263.116 200.242 279.566 199.985 296.005 199.752Z" fill="#8EB26F"/>
</svg>
