<svg width="53" height="53" viewBox="0 0 53 53" fill="none" xmlns="http://www.w3.org/2000/svg">
<path d="M22.1252 22.6462H14.0686C14.0686 19.8698 15.8757 17.6108 18.0969 17.6108C20.3182 17.6108 22.1252 19.8698 22.1252 22.6462ZM35.8215 17.6108C33.6003 17.6108 31.7932 19.8698 31.7932 22.6462H39.8499C39.8499 19.8698 38.0428 17.6108 35.8215 17.6108ZM44.9879 44.7032C49.8574 39.834 52.5391 33.3594 52.5391 26.4731C52.5391 19.5869 49.8574 13.1123 44.9879 8.24311C40.1186 3.37356 33.644 0.691895 26.7578 0.691895C19.8716 0.691895 13.397 3.37356 8.52777 8.24311C3.65823 13.1123 0.976562 19.5869 0.976562 26.4731C0.976562 33.3594 3.65823 39.834 8.52777 44.7032C13.397 49.5727 19.8716 52.2544 26.7578 52.2544C33.644 52.2544 40.1186 49.5727 44.9879 44.7032ZM48.5107 26.4731C48.5107 38.4675 38.7521 48.2261 26.7578 48.2261C14.7635 48.2261 5.00488 38.4675 5.00488 26.4731C5.00488 14.4788 14.7635 4.72021 26.7578 4.72021C38.7521 4.72021 48.5107 14.4788 48.5107 26.4731ZM40.5139 32.4668L36.9702 30.5502C36.9381 30.61 33.6488 36.5439 26.7578 36.5439C23.9248 36.5439 21.3633 35.5605 19.1449 33.6209C17.4178 32.1109 16.5492 30.5581 16.5454 30.5502L13.0017 32.4668C13.1811 32.7976 17.4927 40.5723 26.7578 40.5723C36.0229 40.5723 40.3345 32.7976 40.5139 32.4668Z" fill="#8EB26F"/>
</svg>
