<svg width="44" height="44" viewBox="0 0 44 44" fill="none" xmlns="http://www.w3.org/2000/svg">
<g clip-path="url(#clip0_1_475)">
<path d="M22.0772 39.7283C12.2501 39.7283 4.25488 31.7334 4.25488 21.906C4.25488 12.0789 12.2501 4.08398 22.0772 4.08398C31.9043 4.08398 39.8991 12.0789 39.8991 21.906C39.8991 31.7334 31.9043 39.7283 22.0772 39.7283ZM22.0772 5.53519C13.05 5.53519 5.70642 12.8792 5.70642 21.906C5.70642 30.9331 13.05 38.2767 22.0772 38.2767C31.104 38.2767 38.4479 30.9331 38.4479 21.906C38.4479 12.8792 31.104 5.53519 22.0772 5.53519Z" fill="#FFD151"/>
<path d="M16.5222 8.13217C16.5222 12.6707 12.8426 16.3503 8.30405 16.3503C3.76514 16.3503 0.0859375 12.6707 0.0859375 8.13217C0.0859375 3.5936 3.76514 -0.0859375 8.30405 -0.0859375C12.8426 -0.0859375 16.5222 3.5936 16.5222 8.13217Z" fill="#64E8FF"/>
<path d="M8.3045 -0.0859375C7.82681 -0.0859375 7.35886 -0.0446472 6.90332 0.0335693C10.7745 0.698578 13.7206 4.07095 13.7206 8.13217C13.7206 12.1934 10.7745 15.5658 6.90332 16.2308C7.35886 16.309 7.82681 16.3503 8.3045 16.3503C12.8431 16.3503 16.5226 12.6707 16.5226 8.13217C16.5226 3.5936 12.8431 -0.0859375 8.3045 -0.0859375Z" fill="#0FD9FF"/>
<path d="M44.0697 8.13217C44.0697 12.6707 40.3905 16.3503 35.8516 16.3503C31.313 16.3503 27.6338 12.6707 27.6338 8.13217C27.6338 3.5936 31.313 -0.0859375 35.8516 -0.0859375C40.3905 -0.0859375 44.0697 3.5936 44.0697 8.13217Z" fill="#6193FF"/>
<path d="M44.0663 7.89693C43.9364 3.36003 40.1531 -0.212417 35.6166 -0.0825036C35.1842 -0.070083 34.7609 -0.0244287 34.3483 0.0517737C38.0752 0.741959 40.9461 3.95522 41.0588 7.89693C41.1767 12.0015 38.2635 15.489 34.3477 16.2124C34.9103 16.3168 35.492 16.3638 36.0869 16.347C40.6238 16.2168 44.1962 12.4338 44.0663 7.89693Z" fill="#407BFF"/>
<path d="M16.5222 35.6956C16.5222 40.2346 12.8426 43.9138 8.30405 43.9138C3.76514 43.9138 0.0859375 40.2346 0.0859375 35.6956C0.0859375 31.1571 3.76514 27.4775 8.30405 27.4775C12.8426 27.4775 16.5222 31.1571 16.5222 35.6956Z" fill="#FF6969"/>
<path d="M8.30414 27.4775C7.66766 27.4775 7.04797 27.55 6.45312 27.687C10.1004 28.5266 12.8202 31.7935 12.8202 35.6956C12.8202 39.5981 10.1004 42.8647 6.45312 43.7043C7.04797 43.8412 7.66766 43.9138 8.30414 43.9138C12.8427 43.9138 16.5222 40.2346 16.5222 35.6956C16.5222 31.1571 12.8427 27.4775 8.30414 27.4775Z" fill="#FF4848"/>
<path d="M44.0697 35.6956C44.0697 40.2346 40.3905 43.9138 35.8516 43.9138C31.313 43.9138 27.6338 40.2346 27.6338 35.6956C27.6338 31.1571 31.313 27.4775 35.8516 27.4775C40.3905 27.4775 44.0697 31.1571 44.0697 35.6956Z" fill="#FF95C2"/>
<path d="M35.852 27.4775C35.2843 27.4775 34.7304 27.5353 34.1953 27.6447C37.94 28.4111 40.7568 31.7244 40.7568 35.6956C40.7568 39.6669 37.94 42.9802 34.1953 43.7466C34.7304 43.856 35.2843 43.9138 35.852 43.9138C40.3905 43.9138 44.0697 40.2346 44.0697 35.6956C44.0697 31.1571 40.3905 27.4775 35.852 27.4775Z" fill="#FF758E"/>
<path d="M12.1878 4.9339C11.8743 5.1229 11.5383 5.27228 11.1868 5.37802C10.5329 4.62607 9.39351 4.54685 8.64155 5.20078C8.24141 5.54889 8.01448 6.05545 8.02153 6.58618V6.98868C6.65458 7.02426 5.35679 6.40659 4.52226 5.33338C4.46553 5.26053 4.35038 5.27899 4.32017 5.36594C4.04658 6.14911 3.29899 9.0166 6.41087 10.3997C5.71263 10.8733 4.90226 11.1486 4.06572 11.2C3.94352 11.2073 3.91096 11.3722 4.02208 11.4235C7.55726 13.0563 11.646 11.023 11.646 6.57376C11.6457 6.46164 11.6346 6.34986 11.6138 6.23975C11.9468 5.9111 12.2006 5.5123 12.3577 5.07422C12.3943 4.97183 12.2811 4.87784 12.1878 4.9339Z" fill="white"/>
<path d="M35.2726 13.3411C34.8718 13.3411 34.5469 13.0161 34.5469 12.6153V5.4704C34.5469 4.06619 35.6892 2.92383 37.0934 2.92383H37.9528C38.3536 2.92383 38.6786 3.24878 38.6786 3.6496C38.6786 4.05042 38.3536 4.37503 37.9528 4.37503H37.0934C36.4895 4.37503 35.9981 4.86649 35.9981 5.4704V12.6153C35.9981 13.0161 35.6731 13.3411 35.2726 13.3411Z" fill="white"/>
<path d="M36.9613 8.71814H33.6672C33.2664 8.71814 32.9414 8.39319 32.9414 7.99237C32.9414 7.59155 33.2664 7.2666 33.6672 7.2666H36.9613C37.3621 7.2666 37.6871 7.59155 37.6871 7.99237C37.6871 8.39319 37.3621 8.71814 36.9613 8.71814Z" fill="white"/>
<path d="M6.54785 35.6064V32.9961C6.54785 32.8037 6.75565 32.6839 6.92215 32.7799L9.1817 34.0851L11.4416 35.3903C11.6078 35.4866 11.6078 35.7266 11.4416 35.823L9.1817 37.1281L6.92215 38.4333C6.75565 38.5293 6.54785 38.4091 6.54785 38.2171V35.6064Z" fill="white"/>
<path d="M38.736 40.4603H32.9665C31.9302 40.4603 31.0869 39.617 31.0869 38.5808V32.8112C31.0869 31.7746 31.9302 30.9316 32.9665 30.9316H38.736C39.7723 30.9316 40.6156 31.7746 40.6156 32.8112V38.5808C40.6156 39.617 39.7723 40.4603 38.736 40.4603ZM32.9665 32.3828C32.7301 32.3828 32.5381 32.5749 32.5381 32.8112V38.5808C32.5381 38.8167 32.7301 39.0088 32.9665 39.0088H38.736C38.972 39.0088 39.1644 38.8167 39.1644 38.5808V32.8112C39.1644 32.5749 38.972 32.3828 38.736 32.3828H32.9665Z" fill="white"/>
<path d="M35.8517 37.7654C34.7111 37.7654 33.7832 36.8372 33.7832 35.6965C33.7832 34.5558 34.7111 33.6279 35.8517 33.6279C36.9924 33.6279 37.9206 34.5558 37.9206 35.6965C37.9206 36.8372 36.9924 37.7654 35.8517 37.7654ZM35.8517 35.0791C35.5114 35.0791 35.2344 35.3561 35.2344 35.6965C35.2344 36.0369 35.5114 36.3138 35.8517 36.3138C36.1925 36.3138 36.4691 36.0369 36.4691 35.6965C36.4694 35.3561 36.1925 35.0791 35.8517 35.0791Z" fill="white"/>
<path d="M19.5128 28.5158L19.25 23.4592C19.2292 23.0591 18.8884 22.7526 18.4876 22.7724C18.0875 22.7932 17.78 23.1346 17.8008 23.5348L18.0636 28.5913C18.0838 28.9787 18.404 29.2791 18.7877 29.2791C18.8005 29.2791 18.8129 29.2788 18.826 29.2781C19.2262 29.2573 19.5336 28.9163 19.5128 28.5158Z" fill="#83A7C5"/>
<path d="M20.3269 23.4967H17.2868C16.9179 23.4967 16.6191 23.1976 16.6191 22.8287V19.3415C16.6191 18.9729 16.9179 18.6738 17.2868 18.6738H20.3269C20.3843 18.6738 20.4309 18.7205 20.4309 18.7779V23.3927C20.4309 23.4501 20.3843 23.4967 20.3269 23.4967Z" fill="#FF95C2"/>
<path d="M26.882 25.8163C25.9787 25.2628 24.8524 24.6686 23.5103 24.1526C22.3844 23.7196 21.3401 23.4316 20.4307 23.2368C20.4307 21.8028 20.4307 20.369 20.4307 18.9353C21.3427 18.7412 22.3928 18.4529 23.5261 18.0165C24.8635 17.5012 25.9844 16.9073 26.882 16.3555V25.8163Z" fill="#E5F4FF"/>
<path d="M26.882 27.2156C26.4812 27.2156 26.1562 26.8907 26.1562 26.4898V15.6808C26.1562 15.28 26.4812 14.9551 26.882 14.9551C27.2828 14.9551 27.6078 15.28 27.6078 15.6808V26.4898C27.6078 26.8907 27.2828 27.2156 26.882 27.2156Z" fill="#6464FF"/>
</g>
<defs>
<clipPath id="clip0_1_475">
<rect width="44" height="44" fill="white"/>
</clipPath>
</defs>
</svg>
