<svg width="72" height="72" viewBox="0 0 72 72" fill="none" xmlns="http://www.w3.org/2000/svg">
<g clip-path="url(#clip0_19_2884)">
<path d="M37.6697 65.4014C24.522 68.5558 11.1838 60.3795 8.02936 47.2318C4.87488 34.0841 13.0512 20.746 26.1989 17.5915C39.3466 14.437 52.6847 22.6133 55.8392 35.761C58.9937 48.9087 50.8174 62.2469 37.6697 65.4014ZM26.7724 19.982C14.8199 22.8497 7.55214 34.7058 10.4199 46.6583C13.2876 58.6108 25.1437 65.8786 37.0962 63.0109C49.0486 60.1432 56.3164 48.287 53.4487 36.3346C50.581 24.3821 38.7249 17.1143 26.7724 19.982Z" fill="black"/>
<path d="M35.6622 57.0347C27.0564 59.0994 18.4607 53.8303 16.396 45.2245C14.3312 36.6187 19.6004 28.023 28.2062 25.9583C36.8119 23.8935 45.4076 29.1627 47.4724 37.7684C49.5371 46.3742 44.268 54.9699 35.6622 57.0347ZM28.7797 28.3488C21.6082 30.0694 17.0659 37.4795 18.7865 44.6509C20.5071 51.8224 27.9172 56.3648 35.0887 54.6442C42.2601 52.9235 46.8025 45.5135 45.0819 38.342C43.3613 31.1705 35.9512 26.6281 28.7797 28.3488Z" fill="black"/>
<path d="M33.6547 48.6677C29.5909 49.6428 25.7376 47.2807 24.7626 43.2169C23.7876 39.153 26.1496 35.2998 30.2135 34.3248C34.2773 33.3498 38.1306 35.7118 39.1056 39.7756C40.0806 43.8395 37.7186 47.6927 33.6547 48.6677ZM30.787 36.7153C28.1575 37.3462 26.5222 40.0138 27.1531 42.6433C27.784 45.2729 30.4516 46.9081 33.0812 46.2772C35.7107 45.6463 37.346 42.9787 36.7151 40.3492C36.0842 37.7196 33.4166 36.0844 30.787 36.7153Z" fill="black"/>
<path d="M32.2217 42.6916C31.9827 42.7489 31.5046 42.8636 31.2082 42.682C30.6154 42.3186 30.4433 41.6014 30.8067 41.0086L44.4338 18.7784C44.7972 18.1856 45.5144 18.0135 46.1072 18.3769C46.7 18.7403 46.872 19.4574 46.5087 20.0502L32.8815 42.2805C32.9389 42.5195 32.4608 42.6342 32.2217 42.6916V42.6916Z" fill="black"/>
<path d="M51.8249 19.0275L45.8487 20.4613C45.1316 20.6334 44.5388 20.27 44.3667 19.5528L42.9328 13.5766C42.8755 13.3376 42.9998 12.8021 42.9425 12.5631L49.3018 2.18895C49.7225 1.83519 50.2006 1.72048 50.6787 1.60577C51.2142 1.73012 51.568 2.15086 51.6827 2.62896L52.8297 7.40994L57.6107 6.26286C58.0888 6.14815 58.6243 6.27249 58.978 6.69324C59.0927 7.17134 59.2075 7.64943 59.0831 8.18489L52.7238 18.559C52.4847 18.6164 52.064 18.9701 51.8249 19.0275V19.0275ZM46.4704 17.7841L50.7733 16.7517L55.3157 9.3416L52.208 10.0872C51.4909 10.2593 50.8981 9.89588 50.726 9.17873L49.9804 6.07109L45.438 13.4812L46.4704 17.7841Z" fill="black"/>
</g>
<defs>
<clipPath id="clip0_19_2884">
<rect width="59" height="59" fill="white" transform="translate(0 13.7649) rotate(-13.4917)"/>
</clipPath>
</defs>
</svg>
