<svg width="60" height="59" viewBox="0 0 60 59" fill="none" xmlns="http://www.w3.org/2000/svg">
<g clip-path="url(#clip0_1_4981)">
<path d="M25.1517 58.9999C11.6309 58.9999 0.568359 47.9374 0.568359 34.4166C0.568359 20.8958 11.6309 9.83325 25.1517 9.83325C38.6725 9.83325 49.735 20.8958 49.735 34.4166C49.735 47.9374 38.6725 58.9999 25.1517 58.9999ZM25.1517 12.2916C12.86 12.2916 3.02669 22.1249 3.02669 34.4166C3.02669 46.7083 12.86 56.5416 25.1517 56.5416C37.4434 56.5416 47.2767 46.7083 47.2767 34.4166C47.2767 22.1249 37.4434 12.2916 25.1517 12.2916Z" fill="#8EB26F"/>
<path d="M25.152 50.3958C16.302 50.3958 9.17285 43.2667 9.17285 34.4167C9.17285 25.5667 16.302 18.4375 25.152 18.4375C34.002 18.4375 41.1312 25.5667 41.1312 34.4167C41.1312 43.2667 34.002 50.3958 25.152 50.3958ZM25.152 20.8958C17.777 20.8958 11.6312 27.0417 11.6312 34.4167C11.6312 41.7917 17.777 47.9375 25.152 47.9375C32.527 47.9375 38.6729 41.7917 38.6729 34.4167C38.6729 27.0417 32.527 20.8958 25.152 20.8958Z" fill="#8EB26F"/>
<path d="M25.1514 41.7917C20.9722 41.7917 17.7764 38.5959 17.7764 34.4167C17.7764 30.2376 20.9722 27.0417 25.1514 27.0417C29.3305 27.0417 32.5264 30.2376 32.5264 34.4167C32.5264 38.5959 29.3305 41.7917 25.1514 41.7917ZM25.1514 29.5001C22.4472 29.5001 20.2347 31.7126 20.2347 34.4167C20.2347 37.1209 22.4472 39.3334 25.1514 39.3334C27.8555 39.3334 30.068 37.1209 30.068 34.4167C30.068 31.7126 27.8555 29.5001 25.1514 29.5001Z" fill="#8EB26F"/>
<path d="M25.1519 35.6457C24.9061 35.6457 24.4144 35.6457 24.1686 35.3999C23.6769 34.9082 23.6769 34.1707 24.1686 33.6791L42.6061 15.2416C43.0977 14.7499 43.8352 14.7499 44.3269 15.2416C44.8185 15.7332 44.8185 16.4707 44.3269 16.9624L25.8894 35.3999C25.8894 35.6457 25.3977 35.6457 25.1519 35.6457Z" fill="#8EB26F"/>
<path d="M49.7354 17.2083H43.5895C42.852 17.2083 42.3604 16.7167 42.3604 15.9792V9.83333C42.3604 9.5875 42.6062 9.09583 42.6062 8.85L51.2104 0.245833C51.702 0 52.1937 0 52.6854 0C53.177 0.245833 53.4229 0.7375 53.4229 1.22917V6.14583H58.3395C58.8312 6.14583 59.3229 6.39167 59.5687 6.88333C59.5687 7.375 59.5687 7.86667 59.3229 8.35833L50.7187 16.9625C50.4729 16.9625 49.9812 17.2083 49.7354 17.2083ZM44.8187 14.75H49.2437L55.3895 8.60417H52.1937C51.4562 8.60417 50.9645 8.1125 50.9645 7.375V4.17917L44.8187 10.325V14.75Z" fill="#8EB26F"/>
</g>
<defs>
<clipPath id="clip0_1_4981">
<rect width="59" height="59" fill="white" transform="translate(0.568359)"/>
</clipPath>
</defs>
</svg>
