<svg width="15" height="15" viewBox="0 0 15 15" fill="none" xmlns="http://www.w3.org/2000/svg">
<path d="M7.49991 14.9998C11.642 14.9998 14.9998 11.642 14.9998 7.49991C14.9998 3.35783 11.642 0 7.49991 0C3.35782 0 0 3.35783 0 7.49991C0 11.642 3.35782 14.9998 7.49991 14.9998Z" fill="#41B4E6"/>
<path d="M15.0008 7.49931C15.0008 7.31655 14.9939 7.13547 14.9811 6.95597L11.8727 3.84766L3.12891 7.28708L6.47434 10.6325L6.51823 10.7905L6.57504 10.7332L6.57527 10.7335L6.51823 10.7905L10.2189 14.4912C13.0174 13.4025 15.0008 10.6827 15.0008 7.49931Z" fill="#0091C8"/>
<path d="M6.77247 8.59199L10.1619 11.151L11.8728 3.84766L3.12891 7.28708L5.78956 8.16836L10.6453 4.91125L6.77247 8.59199Z" fill="white"/>
<path d="M5.78906 8.16824L6.51776 10.7904L6.77197 8.59188L10.6448 4.91113L5.78906 8.16824Z" fill="#D2D2D7"/>
<path d="M7.87335 9.42348L6.51758 10.7904L6.77179 8.5918L7.87335 9.42348Z" fill="#B9B9BE"/>
</svg>
