<svg width="12" height="25" viewBox="0 0 12 25" fill="none" xmlns="http://www.w3.org/2000/svg">
<path d="M7.52408 13.8164H6.02614C5.93296 13.8164 5.84359 13.7794 5.77771 13.7135C5.71182 13.6476 5.6748 13.5583 5.6748 13.4651C5.6748 13.3719 5.71182 13.2826 5.77771 13.2167C5.84359 13.1508 5.93296 13.1138 6.02614 13.1138H7.52408C7.61726 13.1138 7.70662 13.1508 7.77251 13.2167C7.8384 13.2826 7.87541 13.3719 7.87541 13.4651C7.87541 13.5583 7.8384 13.6476 7.77251 13.7135C7.70662 13.7794 7.61726 13.8164 7.52408 13.8164Z" fill="black"/>
<path d="M7.52408 10.8174H6.02614C5.93296 10.8174 5.84359 10.7804 5.77771 10.7145C5.71182 10.6486 5.6748 10.5593 5.6748 10.4661C5.6748 10.3729 5.71182 10.2835 5.77771 10.2176C5.84359 10.1518 5.93296 10.1147 6.02614 10.1147H7.52408C7.61726 10.1147 7.70662 10.1518 7.77251 10.2176C7.8384 10.2835 7.87541 10.3729 7.87541 10.4661C7.87541 10.5593 7.8384 10.6486 7.77251 10.7145C7.70662 10.7804 7.61726 10.8174 7.52408 10.8174Z" fill="black"/>
<path d="M7.52408 7.81887H6.02614C5.93296 7.81887 5.84359 7.78186 5.77771 7.71597C5.71182 7.65008 5.6748 7.56072 5.6748 7.46754C5.6748 7.37436 5.71182 7.285 5.77771 7.21911C5.84359 7.15323 5.93296 7.11621 6.02614 7.11621H7.52408C7.61726 7.11621 7.70662 7.15323 7.77251 7.21911C7.8384 7.285 7.87541 7.37436 7.87541 7.46754C7.87541 7.56072 7.8384 7.65008 7.77251 7.71597C7.70662 7.78186 7.61726 7.81887 7.52408 7.81887Z" fill="black"/>
<path d="M7.52408 4.82034H6.02614C5.93296 4.82034 5.84359 4.78332 5.77771 4.71743C5.71182 4.65155 5.6748 4.56218 5.6748 4.46901C5.6748 4.37583 5.71182 4.28647 5.77771 4.22058C5.84359 4.15469 5.93296 4.11768 6.02614 4.11768H7.52408C7.61726 4.11768 7.70662 4.15469 7.77251 4.22058C7.8384 4.28647 7.87541 4.37583 7.87541 4.46901C7.87541 4.56218 7.8384 4.65155 7.77251 4.71743C7.70662 4.78332 7.61726 4.82034 7.52408 4.82034Z" fill="black"/>
<path d="M11.4131 4.06087C11.2224 4.13181 11.0196 4.16491 10.8162 4.15831C10.6517 4.17802 10.4849 4.16172 10.3274 4.11053C10.1698 4.05935 10.0253 3.97452 9.90382 3.86191C9.78234 3.74931 9.6868 3.61162 9.62383 3.45841C9.56086 3.3052 9.53197 3.14013 9.53916 2.97464C9.5329 2.80233 9.56323 2.63065 9.62814 2.47091C9.69305 2.31116 9.79108 2.16699 9.91576 2.04789C10.0404 1.92879 10.1889 1.83746 10.3515 1.77992C10.514 1.72238 10.6869 1.69993 10.8588 1.71407C11.0617 1.70547 11.2641 1.74154 11.4516 1.81975L11.3274 2.31864C11.1883 2.26157 11.0393 2.23265 10.889 2.23354C10.7963 2.22735 10.7033 2.24139 10.6166 2.2747C10.5298 2.308 10.4513 2.35977 10.3866 2.42641C10.3218 2.49306 10.2723 2.57299 10.2416 2.66066C10.2108 2.74833 10.1994 2.84165 10.2083 2.93415C10.1996 3.02745 10.2115 3.12152 10.2432 3.20971C10.2749 3.2979 10.3255 3.37806 10.3915 3.44455C10.4575 3.51103 10.5374 3.56222 10.6253 3.59449C10.7133 3.62676 10.8073 3.63933 10.9006 3.63132C11.0447 3.63192 11.1879 3.60921 11.3247 3.56407L11.4131 4.06087Z" fill="black"/>
<path d="M9.25301 1.69548C9.11432 1.69548 8.97874 1.65435 8.86342 1.5773C8.7481 1.50024 8.65821 1.39072 8.60514 1.26258C8.55206 1.13445 8.53817 0.993446 8.56523 0.857416C8.59229 0.721386 8.65908 0.596434 8.75715 0.498362C8.85522 0.40029 8.98018 0.333502 9.11621 0.306443C9.25224 0.279385 9.39324 0.293273 9.52137 0.346349C9.64951 0.399425 9.75903 0.489307 9.83609 0.604628C9.91314 0.719949 9.95427 0.855529 9.95427 0.994224C9.9542 1.18019 9.88029 1.35851 9.7488 1.49001C9.6173 1.6215 9.43898 1.69541 9.25301 1.69548V1.69548ZM9.25301 0.644299C9.18381 0.644299 9.11615 0.664822 9.05861 0.703272C9.00106 0.741723 8.95621 0.796373 8.92973 0.860314C8.90324 0.924254 8.89631 0.994613 8.90981 1.06249C8.92331 1.13037 8.95664 1.19272 9.00558 1.24166C9.05452 1.2906 9.11687 1.32392 9.18475 1.33743C9.25263 1.35093 9.32298 1.344 9.38692 1.31751C9.45087 1.29103 9.50552 1.24618 9.54397 1.18863C9.58242 1.13109 9.60294 1.06343 9.60294 0.994224C9.60301 0.948246 9.59401 0.902705 9.57645 0.860212C9.55889 0.817718 9.53312 0.779106 9.50061 0.746589C9.46811 0.714071 9.4295 0.688286 9.38702 0.670712C9.34453 0.653138 9.29899 0.644119 9.25301 0.644173V0.644299Z" fill="black"/>
<path d="M4.83993 18.1159C4.76507 18.0866 4.70259 18.0324 4.66298 17.9624C4.62337 17.8924 4.60904 17.811 4.6224 17.7317L4.62447 17.7193L4.62207 9.87061H3.73379V17.7412C3.74022 17.7895 3.73624 17.8387 3.72212 17.8853C3.70774 17.9365 3.68192 17.9837 3.64662 18.0234C3.61132 18.0631 3.56746 18.0942 3.51835 18.1145C3.12582 18.268 2.79921 18.5538 2.59491 18.9225C2.39061 19.2911 2.32144 19.7196 2.39933 20.1338C2.47723 20.548 2.69731 20.922 3.02158 21.1913C3.34585 21.4606 3.75395 21.6082 4.17544 21.6086C4.59693 21.6091 5.00535 21.4623 5.33019 21.1938C5.65503 20.9252 5.8759 20.5516 5.95468 20.1376C6.03346 19.7235 5.9652 19.2949 5.76168 18.9258C5.55816 18.5567 5.23216 18.2703 4.83996 18.1159L4.83993 18.1159Z" fill="black"/>
<path d="M6.02455 16.0913V1.84325C6.0232 1.35392 5.82787 0.885099 5.48139 0.539568C5.1349 0.194037 4.66554 0 4.17621 0C3.68688 0 3.21752 0.194037 2.87103 0.539568C2.52455 0.885099 2.32922 1.35392 2.32787 1.84325V16.0914C1.48257 16.5087 0.80328 17.1996 0.400478 18.0519C-0.00232373 18.9041 -0.104948 19.8676 0.109296 20.7856C0.323539 21.7036 0.842048 22.5221 1.5805 23.1081C2.31895 23.694 3.23391 24.0129 4.17657 24.0128C5.11924 24.0128 6.03417 23.6938 6.77256 23.1078C7.51096 22.5218 8.02939 21.7033 8.24355 20.7853C8.45771 19.8672 8.355 18.9038 7.95212 18.0515C7.54924 17.1993 6.86989 16.5084 6.02455 16.0913V16.0913ZM4.17612 22.3086C3.61252 22.3091 3.06517 22.1198 2.6222 21.7714C2.17924 21.4229 1.86644 20.9355 1.73419 20.3876C1.60194 19.8398 1.65794 19.2633 1.89315 18.7512C2.12837 18.239 2.52912 17.8209 3.03087 17.5642V1.84359C3.03034 1.69281 3.05958 1.54341 3.11691 1.40396C3.17425 1.2645 3.25855 1.13774 3.36498 1.03093C3.47141 0.924128 3.59788 0.839385 3.73713 0.781562C3.87639 0.723738 4.02568 0.693973 4.17646 0.693973C4.32724 0.693973 4.47654 0.723738 4.61579 0.781562C4.75505 0.839385 4.88151 0.924128 4.98795 1.03093C5.09438 1.13774 5.17868 1.2645 5.23601 1.40396C5.29335 1.54341 5.32259 1.69281 5.32206 1.84359V17.5643C5.82386 17.821 6.22464 18.2392 6.45985 18.7514C6.69505 19.2637 6.75099 19.8402 6.61865 20.3881C6.48632 20.936 6.1734 21.4234 5.73032 21.7718C5.28724 22.1202 4.73978 22.3093 4.17612 22.3087V22.3086Z" fill="black"/>
<path d="M4.62151 9.1678L4.61928 1.84339C4.61961 1.78501 4.60839 1.72714 4.58628 1.67312C4.56417 1.61909 4.53159 1.56996 4.49043 1.52857C4.44927 1.48717 4.40033 1.45432 4.34643 1.43191C4.29252 1.40949 4.23472 1.39795 4.17634 1.39795C4.11796 1.39795 4.06016 1.40949 4.00626 1.43191C3.95236 1.45432 3.90342 1.48717 3.86225 1.52857C3.82109 1.56996 3.78852 1.61909 3.7664 1.67312C3.74429 1.72714 3.73308 1.78501 3.73341 1.84339V9.1678H4.62151Z" fill="black"/>
</svg>
