<svg width="18" height="15" viewBox="0 0 18 15" fill="none" xmlns="http://www.w3.org/2000/svg">
<path d="M5.66064 15C12.4531 15 16.1683 9.22855 16.1683 4.22358C16.1683 4.05965 16.1683 3.89647 16.1575 3.73401C16.8803 3.19786 17.5042 2.534 18 1.77352C17.326 2.07997 16.611 2.28084 15.8789 2.36942C16.6499 1.89614 17.2269 1.15164 17.5025 0.274543C16.7776 0.715751 15.9845 1.02667 15.1574 1.19387C14.6006 0.586659 13.8642 0.18458 13.0621 0.0498528C12.2601 -0.0848747 11.4371 0.0552603 10.7205 0.448572C10.0039 0.841884 9.43367 1.46645 9.09806 2.22561C8.76245 2.98477 8.68016 3.83621 8.86392 4.64817C7.39567 4.57263 5.95932 4.1813 4.64809 3.49957C3.33686 2.81784 2.18007 1.86095 1.2528 0.691008C0.780546 1.5248 0.635904 2.51184 0.848325 3.45116C1.06075 4.39048 1.61426 5.21145 2.39616 5.74693C1.80842 5.72927 1.23349 5.56666 0.72 5.27287V5.32087C0.720233 6.19531 1.01539 7.04275 1.5554 7.71946C2.09542 8.39616 2.84705 8.86046 3.6828 9.03361C3.13911 9.18571 2.56866 9.20794 2.01528 9.09859C2.25136 9.8511 2.71082 10.5091 3.32943 10.9807C3.94804 11.4523 4.69487 11.7139 5.46552 11.7288C4.69983 12.3461 3.82299 12.8024 2.88516 13.0718C1.94733 13.3412 0.966911 13.4183 0 13.2987C1.68887 14.4102 3.65394 14.9998 5.66064 14.997" fill="#83D0FF"/>
</svg>
