<svg width="35" height="35" viewBox="0 0 35 35" fill="none" xmlns="http://www.w3.org/2000/svg">
<path fill-rule="evenodd" clip-rule="evenodd" d="M23.9259 27.3439H31.763C33.0978 27.3439 34.1799 26.2618 34.1799 24.927C34.1799 24.286 33.9253 23.6713 33.472 23.218L31.763 21.509C31.122 20.868 30.7619 19.9987 30.7619 19.0922L30.7619 13.6218C30.7619 6.0987 24.6632 0 17.14 0C9.60094 0 3.49563 6.12365 3.51826 13.6627L3.53444 19.0512C3.53723 19.9819 3.16042 20.8734 2.49102 21.52L0.732535 23.2184C0.26439 23.6706 3.54547e-06 24.2935 0 24.9444C0 26.2696 1.07432 27.3439 2.39956 27.3439H10.254C10.254 31.1193 13.3145 34.1799 17.0899 34.1799C20.8654 34.1799 23.9259 31.1193 23.9259 27.3439ZM29.9503 23.3217L31.4091 24.7804H2.80526L4.27193 23.3638C5.44338 22.2324 6.10281 20.6722 6.09792 19.0435L6.08174 13.655C6.06337 7.53474 11.0197 2.56349 17.14 2.56349C23.2474 2.56349 28.1984 7.51448 28.1984 13.6218L28.1984 19.0922C28.1984 20.6785 28.8286 22.2 29.9503 23.3217ZM21.3624 27.3439H12.8175C12.8175 29.7035 14.7303 31.6164 17.0899 31.6164C19.4496 31.6164 21.3624 29.7035 21.3624 27.3439Z" fill="black"/>
</svg>
