<svg width="16" height="16" viewBox="0 0 16 16" fill="none" xmlns="http://www.w3.org/2000/svg">
<path d="M11.1252 9.63622C9.19927 9.04878 7.23479 9.03042 5.25748 9.36698C3.91573 9.59339 2.68954 10.0829 1.7073 11.0069C0.474688 12.1696 0.0317181 13.6259 -0.000381202 15.2291C-0.0132209 15.8166 0.179375 16.0002 0.79568 16.0002C3.08757 16.0002 5.37303 16.0002 7.66492 16.0002C9.18643 16.0002 10.7015 16.0002 12.223 16.0002C13.0255 16.0002 13.828 16.0063 14.6305 16.0002C15.0542 16.0002 15.2981 15.7921 15.2981 15.4188C15.3238 12.8977 14.2132 10.5725 11.1252 9.63622ZM1.21939 14.8314C1.36063 13.2098 2.02829 11.9187 3.55622 11.1171C4.53203 10.603 5.59773 10.4011 6.69552 10.3399C8.26197 10.2481 9.82199 10.3093 11.2921 10.909C13.0833 11.6433 13.9114 13.0018 14.0784 14.8314C9.77705 14.8314 5.51427 14.8314 1.21939 14.8314Z" fill="black"/>
<path d="M7.67154 8.36355C8.09524 8.27177 8.54463 8.23505 8.94267 8.08207C10.5412 7.47016 11.395 6.28304 11.5876 4.68594C11.7674 3.15615 11.2538 1.84053 9.87354 0.977726C8.4997 0.108805 7.02313 0.0904476 5.5915 0.8737C3.95444 1.7671 3.26752 3.72523 3.89025 5.54262C4.46803 7.22539 5.96386 8.32684 7.67154 8.36355ZM7.64586 1.48562C9.2444 1.48562 10.4192 2.64214 10.4192 4.20864C10.4192 4.92459 10.2074 5.57322 9.74515 6.1423C8.60241 7.55583 6.54806 7.51299 5.46953 6.04439C5.06508 5.49367 4.87248 4.88175 4.8789 4.20864C4.8789 2.62378 6.02805 1.48562 7.64586 1.48562Z" fill="black"/>
</svg>
