<svg width="30" height="33" viewBox="0 0 30 33" fill="none" xmlns="http://www.w3.org/2000/svg">
<path d="M18.7643 24.099L19.3652 24.5001L19.7885 23.9146C20.2718 23.246 20.9062 22.7015 21.6398 22.3254C22.3731 21.9494 23.1847 21.7523 24.0085 21.7503C25.0448 21.7505 26.0579 22.0582 26.9198 22.6348C27.7819 23.2115 28.4539 24.0314 28.8508 24.9908C29.2477 25.9502 29.3516 27.0059 29.1492 28.0245C28.9469 29.0431 28.4474 29.9785 27.7142 30.7127C26.981 31.4468 26.0469 31.9467 25.0301 32.1492C24.0134 32.3517 22.9595 32.2477 22.0017 31.8505C21.0439 31.4533 20.225 30.7805 19.6489 29.9172C19.0758 29.0584 18.7684 28.0495 18.7652 27.0168C18.774 26.8319 18.7929 26.6477 18.8218 26.4649L18.8969 25.9905L18.4974 25.7239L10.4212 20.333L9.93561 20.0089L9.50225 20.4C8.74924 21.0797 7.81569 21.5261 6.81467 21.6853C5.81366 21.8445 4.788 21.7097 3.86187 21.2971C2.93573 20.8846 2.14877 20.212 1.59641 19.3607C1.04404 18.5093 0.75 17.5158 0.75 16.5004C0.75 15.485 1.04404 14.4914 1.59641 13.6401C2.14877 12.7887 2.93573 12.1161 3.86187 11.7036C4.788 11.2911 5.81366 11.1563 6.81467 11.3155C7.81569 11.4747 8.74925 11.9211 9.50225 12.6007L9.93561 12.9919L10.4212 12.6678L18.4974 7.2769L18.8969 7.01026L18.8218 6.53588C18.7928 6.35259 18.7739 6.16785 18.7651 5.98249C18.7639 4.74373 19.202 3.5447 20.0015 2.59926C20.8043 1.64997 21.9186 1.01857 23.1443 0.818262C24.37 0.617954 25.6269 0.861809 26.6892 1.50614C27.7516 2.15049 28.5499 3.15317 28.9404 4.33422C29.3309 5.51528 29.288 6.79708 28.8194 7.94927C28.3507 9.10144 27.4872 10.0483 26.3841 10.6199C25.2811 11.1916 24.0107 11.3506 22.8012 11.0685C21.5916 10.7865 20.522 10.0817 19.7845 9.0807L19.3598 8.50425L18.7643 8.90172L11.2513 13.9161L10.7568 14.2462L10.9653 14.803C11.3752 15.8974 11.3752 17.1034 10.9653 18.1978L10.7568 18.7546L11.2513 19.0847L18.7643 24.099Z" stroke="black" stroke-width="1.5"/>
</svg>
