<svg width="15" height="16" viewBox="0 0 15 16" fill="none" xmlns="http://www.w3.org/2000/svg">
<path d="M8.8 0H5.6C2.512 0 0 2.512 0 5.6V8C0 10.17 1.25 12.136 3.2 13.062V15.736C3.2 15.968 3.49 16.088 3.654 15.924L5.978 13.602H8.8C11.888 13.602 14.4 11.09 14.4 8V5.6C14.4 2.512 11.888 0 8.8 0ZM10.896 10.4962L10.086 11.2882C9.234 12.1222 7.01 11.1702 5.05 9.1682C3.09 7.1642 2.23 4.9202 3.04 4.0862L3.85 3.2942C4.148 3.0022 4.654 3.0082 4.988 3.3062L6.156 4.5002C6.572 4.9262 6.396 5.6402 5.846 5.8042C5.466 5.9262 5.208 6.3442 5.33 6.7242C5.532 7.6122 6.658 8.7222 7.498 8.9422C7.876 9.0302 8.3 8.8242 8.432 8.4462C8.606 7.9002 9.324 7.7382 9.742 8.1662L10.908 9.3582C11.2 9.656 11.196 10.1622 10.896 10.4962ZM7.928 3.8C7.848 3.8 7.768 3.804 7.69 3.814C7.544 3.83 7.412 3.724 7.396 3.578C7.38 3.432 7.486 3.3 7.632 3.284C7.73 3.272 7.83 3.268 7.928 3.268C9.398 3.268 10.594 4.464 10.594 5.934C10.594 6.032 10.59 6.132 10.578 6.23C10.562 6.374 10.428 6.482 10.284 6.466C10.14 6.45 10.032 6.316 10.048 6.172C10.056 6.094 10.062 6.014 10.062 5.934C10.062 4.758 9.104 3.8 7.928 3.8ZM9.528 5.934C9.528 6.08 9.406 6.2 9.26 6.2C9.116 6.2 8.994 6.08 8.994 5.934C8.994 5.346 8.516 4.868 7.928 4.868C7.78 4.868 7.66 4.748 7.66 4.6C7.66 4.454 7.78 4.334 7.928 4.334C8.81 4.334 9.528 5.052 9.528 5.934ZM11.562 6.796C11.528 6.94 11.374 7.03 11.232 6.992C11.094 6.954 11.01 6.81 11.042 6.672C11.1 6.432 11.128 6.184 11.128 5.934C11.128 4.17 9.692 2.734 7.928 2.734C7.846 2.734 7.762 2.736 7.68 2.744C7.534 2.754 7.406 2.644 7.394 2.498C7.384 2.35 7.494 2.222 7.64 2.212C7.736 2.204 7.832 2.2 7.928 2.2C9.986 2.2 11.662 3.876 11.662 5.934C11.662 6.224 11.628 6.514 11.562 6.796Z" fill="#665CAC"/>
</svg>
