<svg width="23" height="16" viewBox="0 0 23 16" fill="none" xmlns="http://www.w3.org/2000/svg">
<path d="M22.2348 2.49806C22.1065 2.01493 21.8534 1.57399 21.5011 1.21937C21.1487 0.864757 20.7094 0.608904 20.2271 0.477419C18.4516 5.64001e-08 11.3548 0 11.3548 0C11.3548 0 4.25807 5.64001e-08 2.48258 0.477419C2.00028 0.608904 1.56097 0.864757 1.20862 1.21937C0.856265 1.57399 0.603231 2.01493 0.474839 2.49806C5.64001e-08 4.28129 0 8 0 8C0 8 5.64001e-08 11.7187 0.474839 13.5019C0.603231 13.9851 0.856265 14.426 1.20862 14.7806C1.56097 15.1352 2.00028 15.3911 2.48258 15.5226C4.25807 16 11.3548 16 11.3548 16C11.3548 16 18.4516 16 20.2271 15.5226C20.7094 15.3911 21.1487 15.1352 21.5011 14.7806C21.8534 14.426 22.1065 13.9851 22.2348 13.5019C22.7097 11.7187 22.7097 8 22.7097 8C22.7097 8 22.7097 4.28129 22.2348 2.49806Z" fill="#FF0302"/>
<path d="M9.03125 11.3771V4.62354L14.9667 8.00031L9.03125 11.3771Z" fill="#FEFEFE"/>
</svg>
