<svg width="20" height="20" viewBox="0 0 20 20" fill="none" xmlns="http://www.w3.org/2000/svg">
<path d="M2.49951 1.2C2.49951 0.537185 3.0367 0 3.69952 0H12.4995L17.4995 4.19999V18.8C17.4995 19.4628 16.9623 20 16.2995 20H3.69952C3.0367 20 2.49951 19.4628 2.49951 18.8V1.2Z" fill="#309667"/>
<path d="M12.5 0V2.99999C12.5 3.6628 13.0372 4.20028 13.7 4.20028H17.5" fill="#1F744D"/>
<path d="M7.50089 10.7556C7.2634 10.5618 7.01338 10.4428 6.68214 10.4428C6.08839 10.4428 5.66309 10.8868 5.66309 11.9434C5.66309 12.9809 6.0634 13.4246 6.65749 13.4246C7.08216 13.4246 7.35123 13.2493 7.59498 13.0621L8.06372 13.6621C7.74497 13.9684 7.2759 14.2249 6.58842 14.2249C5.39469 14.2249 4.58154 13.4308 4.58154 11.9433C4.58154 10.4927 5.45059 9.67395 6.60718 9.67395C7.23219 9.67395 7.6447 9.86147 8.0072 10.1552L7.50089 10.7556Z" fill="white"/>
<path d="M9.92588 14.225C9.13805 14.225 8.5509 13.9503 8.19434 13.6L8.71932 13.0191C9.0384 13.3003 9.42588 13.4566 9.8884 13.4566C10.3134 13.4566 10.6009 13.2625 10.6009 12.931C10.6009 12.6185 10.4197 12.4813 9.81963 12.2931C8.82557 11.9807 8.44431 11.5869 8.44431 10.9369C8.44431 10.1363 9.1818 9.67407 10.0821 9.67407C10.7387 9.67407 11.2509 9.88031 11.6262 10.2366L11.1384 10.7997C10.8447 10.5557 10.5006 10.4366 10.1631 10.4366C9.77564 10.4366 9.51873 10.5806 9.51873 10.8559C9.51873 11.1309 9.7128 11.2375 10.3753 11.4497C11.2006 11.7181 11.6818 12.0556 11.6818 12.8497C11.6825 13.6622 11.0203 14.225 9.92588 14.225Z" fill="white"/>
<path d="M13.7506 13.2558H13.7818L14.5759 9.78613H15.6384L14.3946 14.1186H13.1068L11.8687 9.78613H12.969L13.7506 13.2558Z" fill="white"/>
</svg>
